SplineFontDB: 1.0
FontName: FreeSans
FullName: Free Sans
FamilyName: FreeSans
Weight: Medium
Copyright: Copyleft 2002, 2003, 2005 Free Software Foundation.
Version: $Revision: 1.49 $
ItalicAngle: 0
UnderlinePosition: -151
UnderlineWidth: 50
Ascent: 800
Descent: 200
NeedsXUIDChange: 1
FSType: 0
PfmFamily: 33
TTFWeight: 400
TTFWidth: 5
LineGap: 90
VLineGap: 0
Panose: 2 11 5 4 2 2 2 2 2 4
OS2TypoAscent: 0
OS2TypoAOffset: 1
OS2TypoDescent: 0
OS2TypoDOffset: 1
OS2TypoLinegap: 0
OS2WinAscent: 0
OS2WinAOffset: 1
OS2WinDescent: 0
OS2WinDOffset: 1
HheadAscent: 0
HheadAOffset: 1
HheadDescent: 0
HheadDOffset: 1
OS2Vendor: 'PfEd'
ScriptLang: 5
 1 latn 1 dflt 
 1 armn 1 dflt 
 1 hebr 1 dflt 
 1 DFLT 1 dflt 
 1 kana 1 dflt 
ChainSub: class 0 0 'ccmp' 3 0 3 1
  Class: 3 i j
  Class: 197 gravecomb acutecomb uni0302 tildecomb uni0304 uni0305 uni0306 uni0307 uni0308 uni030A uni030B uni030C uni030D uni030E uni030F uni0310 uni0311 uni0312 uni0313 uni0314 uni033D uni033E uni0351 uni0357
  FClass: 3 i j
  FClass: 197 gravecomb acutecomb uni0302 tildecomb uni0304 uni0305 uni0306 uni0307 uni0308 uni030A uni030B uni030C uni030D uni030E uni030F uni0310 uni0311 uni0312 uni0313 uni0314 uni033D uni033E uni0351 uni0357
 1 0 1
  ClsList: 1
  BClsList:
  FClsList: 2
 1
  SeqLookup: 0 's001'
EndFPST
GenTags: 1 sb's001'
TtfTable: cvt  4
!$MDh
EndTtf
LangName: 1033 "" "" "" "" "" "" "" "" "" "" "" "" "" "The use of this font is granted subject to GNU General Public License." "http://www.gnu.org/copyleft/gpl.html" "" "" "" "" "The quick brown fox jumps over the lazy dog." 
LangName: 1060 "" "" "navadno" "" "" "" "" "" "" "" "" "" "" "Dovoljena je uporaba v skladu z licenco GNU General Public License." "http://www.gnu.org/copyleft/gpl.html" "" "" "" "" "+AWAA-erif bo za vajo spet kuhal doma+AQ0A-e +AX4A-gance." 
Encoding: UnicodeBmp
UnicodeInterp: none
DisplaySize: -36
AntiAlias: 1
FitToEm: 1
WinInfo: 9520 16 7
BeginPrivate: 8
UniqueID 7 5020902
BlueValues 31 [-23 0 524 544 729 749 686 709]

StartChar: exclam
Encoding: 33 33 1
Width: 278
Flags: W
HStem: 0 21G<124 208> 709 20G<125 208>
VStem: 124 84<0 104>
Fore
208 729 m 1
 208 391 l 1
 186 168 l 1
 147 168 l 1
 125 391 l 1
 125 729 l 1
 208 729 l 1
208 104 m 1
 208 0 l 1
 124 0 l 1
 124 104 l 1
 208 104 l 1
EndSplineSet
EndChar
StartChar: quotedbl
Encoding: 34 34 2
Width: 355
Flags: W
HStem: 689 20G<52 145 212 305>
VStem: 52 93<598 709> 212 93<598 709>
Fore
52 709 m 5
 145 709 l 5
 145 598 l 5
 118 464 l 5
 79 464 l 5
 52 598 l 5
 52 709 l 5
212 709 m 5
 305 709 l 5
 305 598 l 5
 278 464 l 5
 239 464 l 5
 212 598 l 5
 212 709 l 5
EndSplineSet
EndChar
StartChar: numbersign
Encoding: 35 35 3
Width: 556
Flags: W
HStem: -20 21G<77 153 278 354> 191 68<14 128 192 329 393 510> 433 68<51 172 236 373 436 542> 677 20G<208 284 408 485>
Fore
485 697 m 1
 449 501 l 1
 542 501 l 1
 542 433 l 1
 436 433 l 1
 405 259 l 1
 510 259 l 1
 510 191 l 1
 393 191 l 1
 354 -20 l 1
 278 -20 l 1
 316 191 l 1
 192 191 l 1
 153 -20 l 1
 77 -20 l 1
 115 191 l 1
 14 191 l 1
 14 259 l 1
 128 259 l 1
 159 433 l 1
 51 433 l 1
 51 501 l 1
 172 501 l 1
 208 697 l 1
 284 697 l 1
 248 501 l 1
 373 501 l 1
 408 697 l 1
 485 697 l 1
360 433 m 1
 236 433 l 1
 204 259 l 1
 329 259 l 1
 360 433 l 1
EndSplineSet
EndChar
StartChar: dollar
Encoding: 36 36 4
Width: 556
Flags: W
VStem: 46 81<484.5 573> 243 59<-126 -23 46 318 397 646 716 770> 436 82<131.5 276>
Fore
518 195 m 0
 518 68 443 -13 302 -23 c 1
 302 -126 l 1
 243 -126 l 1
 243 -23 l 1
 108 -14 33 62 33 191 c 0
 33 196 33 202 33 208 c 1
 112 208 l 1
 118 140 122 62 243 46 c 1
 243 318 l 1
 170 340 143 351 117 370 c 0
 70 404 46 453 46 516 c 0
 46 630 115 700 243 716 c 1
 243 770 l 1
 302 770 l 1
 302 716 l 1
 423 707 496 633 496 519 c 1
 417 519 l 1
 416 592 369 643 302 646 c 1
 302 397 l 1
 362 379 518 357 518 195 c 0
243 405 m 1
 243 645 l 1
 169 635 127 592 127 526 c 0
 127 465 164 426 243 405 c 1
302 46 m 1
 395 57 436 114 436 183 c 0
 436 249 404 279 302 309 c 1
 302 46 l 1
EndSplineSet
EndChar
StartChar: percent
Encoding: 37 37 5
Width: 889
Flags: W
HStem: -19 70<642 735> 252 70<641.5 736> 343 70<153 246.5> 615 70<152.5 247> 689 20G<609 675>
VStem: 29 69<467 561> 301 69<466 560.5> 518 69<105 198.5> 790 69<104 198>
Fore
199 685 m 0
 295 685 370 609 370 512 c 0
 370 420 293 343 200 343 c 0
 106 343 29 420 29 514 c 0
 29 608 106 685 199 685 c 0
199 615 m 0
 144 615 98 570 98 514 c 0
 98 459 144 413 200 413 c 0
 255 413 301 458 301 513 c 0
 301 570 256 615 199 615 c 0
609 709 m 1
 675 709 l 1
 280 -20 l 1
 214 -20 l 1
 609 709 l 1
688 322 m 0
 784 322 859 246 859 150 c 0
 859 58 781 -19 689 -19 c 0
 595 -19 518 58 518 152 c 0
 518 245 595 322 688 322 c 0
688 252 m 0
 633 252 587 207 587 152 c 0
 587 96 633 51 689 51 c 0
 744 51 790 96 790 150 c 0
 790 207 745 252 688 252 c 0
EndSplineSet
EndChar
StartChar: ampersand
Encoding: 38 38 6
Width: 667
Flags: W
HStem: -23 78<195.5 314> 639 70<256.5 351.5>
VStem: 52 84<116 221.5> 133 82<528.5 596> 388 79<516 598> 493 80<304 334>
Fore
466 78 m 1xdc
 434 47 371 -23 257 -23 c 0
 134 -23 52 56 52 176 c 0xec
 52 267 90 317 214 389 c 1
 152 467 133 505 133 552 c 0
 133 640 209 709 304 709 c 0
 399 709 467 644 467 552 c 0
 467 480 433 437 329 378 c 1
 462 215 l 1
 481 249 493 294 493 330 c 0
 493 331 493 333 493 334 c 1
 573 334 l 1
 573 274 552 208 515 151 c 1
 637 0 l 1
 528 0 l 1
 466 78 l 1xdc
285 431 m 1
 363 480 388 509 388 554 c 0
 388 603 351 639 301 639 c 0
 249 639 215 605 215 553 c 0xdc
 215 518 224 501 285 431 c 1
418 137 m 1
 258 337 l 1
 167 279 136 239 136 183 c 0xec
 136 113 195 55 267 55 c 0
 319 55 362 78 418 137 c 1
EndSplineSet
EndChar
StartChar: quotesingle
Encoding: 39 39 7
Width: 191
Flags: W
HStem: 689 20G<48 142>
VStem: 48 94<598 709>
Fore
48 709 m 5
 142 709 l 5
 142 598 l 5
 115 464 l 5
 75 464 l 5
 48 598 l 5
 48 709 l 5
EndSplineSet
EndChar
StartChar: parenleft
Encoding: 40 40 8
Width: 333
Flags: W
HStem: 709 20G<236 291>
VStem: 73 81<179 338.5>
Fore
236 729 m 1
 291 729 l 1
 203 587 154 418 154 259 c 0
 154 99 203 -69 291 -212 c 1
 236 -212 l 1
 136 -81 73 101 73 259 c 0
 73 416 136 598 236 729 c 1
EndSplineSet
EndChar
StartChar: parenright
Encoding: 41 41 9
Width: 333
Flags: W
HStem: 709 20G<38 93>
VStem: 175 81<178.5 338>
Fore
93 -212 m 1
 38 -212 l 1
 126 -70 175 99 175 258 c 0
 175 418 126 586 38 729 c 1
 93 729 l 1
 193 598 256 416 256 258 c 0
 256 101 193 -81 93 -212 c 1
EndSplineSet
EndChar
StartChar: asterisk
Encoding: 42 42 10
Width: 389
Flags: W
HStem: 709 20G<160 223>
Fore
160 729 m 1
 223 729 l 1
 218 617 l 1
 324 655 l 1
 343 596 l 1
 235 566 l 1
 305 477 l 1
 254 441 l 1
 192 534 l 1
 129 441 l 1
 79 477 l 1
 148 566 l 1
 40 596 l 1
 59 655 l 1
 165 617 l 1
 160 729 l 1
EndSplineSet
EndChar
StartChar: plus
Encoding: 43 43 11
Width: 584
Flags: W
HStem: -10 21G<257 327> 197 70<50 257 327 534>
VStem: 257 70<-10 197 267 474>
Fore
534 267 m 1
 534 197 l 1
 327 197 l 1
 327 -10 l 1
 257 -10 l 1
 257 197 l 1
 50 197 l 1
 50 267 l 1
 257 267 l 1
 257 474 l 1
 327 474 l 1
 327 267 l 1
 534 267 l 1
EndSplineSet
EndChar
StartChar: comma
Encoding: 44 44 12
Width: 278
Flags: W
HStem: -20 20G<87 147>
VStem: 147 45<-59 0>
Fore
87 104 m 1
 192 104 l 1
 192 -16 l 2
 192 -102 157 -147 87 -147 c 1
 87 -109 l 1
 134 -107 147 -87 147 -18 c 2
 147 0 l 1
 87 0 l 1
 87 104 l 1
EndSplineSet
KernsSLIFO: 2147 -50 3 0 2151 -41 3 0 2369 -100 3 0
EndChar
StartChar: hyphen
Encoding: 45 45 13
Width: 333
Flags: W
HStem: 240 72<46 284>
Fore
284 312 m 5
 284 240 l 5
 46 240 l 5
 46 312 l 5
 284 312 l 5
EndSplineSet
KernsSLIFO: 57 -92 3 0 55 -19 3 0 54 -46 3 0 52 -80 3 0 132 -7 3 0 131 -7 3 0 128 -7 3 0 133 -11 3 0 33 -7 3 0
EndChar
StartChar: period
Encoding: 46 46 14
Width: 278
Flags: W
HStem: 0 21G<87 191>
Fore
191 104 m 5
 191 0 l 5
 87 0 l 5
 87 104 l 5
 191 104 l 5
EndSplineSet
KernsSLIFO: 2147 -51 3 0 2151 -41 3 0 2369 -101 3 0
EndChar
StartChar: slash
Encoding: 47 47 15
Width: 278
Flags: W
HStem: -20 21G<-8 47> 709 20G<229 284>
Fore
229 729 m 1
 284 729 l 1
 47 -20 l 1
 -8 -20 l 1
 229 729 l 1
EndSplineSet
EndChar
StartChar: zero
Encoding: 48 48 16
Width: 556
Flags: W
HStem: -23 73<199 350> 631 78<225.5 363>
VStem: 43 90<223.5 498.5> 417 90<220.5 440>
Fore
43 343 m 0
 43 654 176 709 275 709 c 0
 451 709 507 543 507 337 c 0
 507 104 425 -23 275 -23 c 0
 123 -23 43 104 43 343 c 0
275 631 m 0
 180 631 133 536 133 342 c 0
 133 148 180 50 273 50 c 0
 371 50 417 144 417 345 c 0
 417 535 370 631 275 631 c 0
EndSplineSet
EndChar
StartChar: one
Encoding: 49 49 17
Width: 556
Flags: W
HStem: 0 21G<259 347> 689 20G<289 347>
VStem: 259 88<0 709>
Fore
259 505 m 1
 102 505 l 1
 102 568 l 1
 238 585 258 600 289 709 c 1
 347 709 l 1
 347 0 l 1
 259 0 l 1
 259 505 l 1
EndSplineSet
EndChar
StartChar: two
Encoding: 50 50 18
Width: 556
Flags: W
HStem: 0 87<34 506> 632 77<220 351>
VStem: 421 90<457.5 562.5>
Fore
50 463 m 1
 56 677 187 709 284 709 c 0
 418 709 511 624 511 501 c 0
 511 414 460 341 361 287 c 2
 261 233 l 1
 174 182 142 145 133 87 c 1
 506 87 l 1
 506 0 l 1
 34 0 l 1
 42 156 85 223 233 307 c 2
 325 359 l 2
 388 395 421 443 421 499 c 0
 421 575 361 632 281 632 c 0
 159 632 142 529 138 463 c 1
 50 463 l 1
EndSplineSet
EndChar
StartChar: three
Encoding: 51 51 19
Width: 556
Flags: W
HStem: -23 78<192 339> 325 75<221 232> 632 77<197.5 336.5>
VStem: 395 90<465 575> 416 90<131 243>
Fore
270 632 m 0xf0
 158 632 137 557 135 480 c 1
 47 480 l 1
 50 631 126 709 269 709 c 0
 404 709 485 636 485 514 c 0xf0
 485 443 452 393 386 367 c 1
 471 338 506 288 506 198 c 0
 506 64 412 -23 266 -23 c 0
 118 -23 43 52 32 206 c 1
 120 206 l 1
 126 103 173 55 269 55 c 0
 361 55 416 108 416 197 c 0xe8
 416 282 366 326 269 326 c 2
 232 325 l 1
 221 325 l 1
 221 400 l 1
 338 402 395 419 395 511 c 0
 395 586 348 632 270 632 c 0xf0
EndSplineSet
EndChar
StartChar: four
Encoding: 52 52 20
Width: 556
Flags: W
HStem: 0 21G<327 415> 170 79<28 327 415 520> 689 20G<350 415>
VStem: 327 88<0 170 249 709>
Fore
327 170 m 1
 28 170 l 5
 28 263 l 1
 350 709 l 1
 415 709 l 1
 415 249 l 1
 520 249 l 1
 520 170 l 1
 415 170 l 1
 415 0 l 1
 327 0 l 1
 327 170 l 1
327 249 m 1
 327 559 l 1
 105 249 l 1
 327 249 l 1
EndSplineSet
EndChar
StartChar: five
Encoding: 53 53 21
Width: 556
Flags: W
HStem: -23 78<170 341.5> 389 78<240.5 352> 622 87<110 476>
VStem: 423 90<156 301>
Fore
476 709 m 1
 476 622 l 1
 181 622 l 1
 153 424 l 1
 194 454 234 467 284 467 c 0
 420 467 513 371 513 231 c 0
 513 81 413 -23 270 -23 c 0
 70 -23 44 128 35 174 c 1
 123 174 l 1
 144 94 191 55 268 55 c 0
 364 55 423 117 423 219 c 0
 423 324 363 389 268 389 c 0
 213 389 179 372 138 323 c 1
 57 323 l 1
 110 709 l 1
 476 709 l 1
EndSplineSet
EndChar
StartChar: six
Encoding: 54 54 22
Width: 556
Flags: W
HStem: -23 78<192.5 348.5> 363 78<241.5 359.5> 524 21G<410 498> 631 78<240.5 351>
VStem: 43 95<168.5 487> 423 90<146.5 282>
Fore
43 323 m 0
 43 651 193 709 297 709 c 0
 405 709 481 640 498 524 c 1
 410 524 l 1
 396 592 353 631 291 631 c 0
 190 631 134 535 133 362 c 1
 171 414 226 441 296 441 c 0
 423 441 513 348 513 216 c 0
 513 77 416 -23 281 -23 c 0
 104 -23 43 123 43 323 c 0
285 363 m 0
 198 363 138 302 138 214 c 0
 138 123 200 55 282 55 c 0
 363 55 423 120 423 209 c 0
 423 304 370 363 285 363 c 0
EndSplineSet
EndChar
StartChar: seven
Encoding: 55 55 23
Width: 556
Flags: W
HStem: 0 21G<138 232> 622 87<46 520>
Fore
520 709 m 1
 520 635 l 1
 360 422 271 227 232 0 c 1
 138 0 l 1
 191 233 260 381 429 622 c 1
 46 622 l 1
 46 709 l 1
 520 709 l 1
EndSplineSet
EndChar
StartChar: eight
Encoding: 56 56 24
Width: 556
Flags: W
HStem: -23 78<205 345> 334 74<231 319> 631 78<212.5 338>
VStem: 37 90<132 236.5> 62 90<485.5 575.5> 398 90<485 575.5> 423 90<131.5 236.5>
Fore
391 373 m 1xec
 473 334 513 275 513 196 c 0
 513 67 415 -23 275 -23 c 0
 135 -23 37 67 37 197 c 0xf2
 37 275 77 334 158 373 c 1
 86 418 62 454 62 520 c 0
 62 631 150 709 275 709 c 0
 401 709 488 631 488 520 c 0
 488 453 464 417 391 373 c 1xec
275 631 m 0
 201 631 152 587 152 519 c 0
 152 452 201 408 275 408 c 0
 349 408 398 452 398 518 c 0xec
 398 587 350 631 275 631 c 0
275 334 m 0
 187 334 127 278 127 195 c 0
 127 112 187 55 273 55 c 0
 363 55 423 111 423 195 c 0xf2
 423 278 363 334 275 334 c 0
EndSplineSet
EndChar
StartChar: nine
Encoding: 57 57 25
Width: 556
Flags: W
HStem: -23 78<200 310.5> 245 78<192 309> 632 77<202.5 358>
VStem: 38 90<404 539.5> 413 96<199 518>
Fore
509 363 m 0
 509 35 358 -23 254 -23 c 0
 146 -23 70 46 53 162 c 1
 141 162 l 1
 155 94 198 55 260 55 c 0
 361 55 417 151 418 324 c 1
 372 269 323 245 256 245 c 0
 128 245 38 338 38 470 c 0
 38 609 135 709 270 709 c 0
 446 709 509 565 509 363 c 0
269 632 m 0
 188 632 128 567 128 477 c 0
 128 382 181 323 266 323 c 0
 352 323 413 385 413 472 c 0
 413 564 351 632 269 632 c 0
EndSplineSet
EndChar
StartChar: colon
Encoding: 58 58 26
Width: 278
Flags: W
HStem: 0 21G<110 214> 504 20G<110 214>
Fore
214 104 m 1
 214 0 l 1
 110 0 l 1
 110 104 l 1
 214 104 l 1
214 524 m 1
 214 420 l 1
 110 420 l 1
 110 524 l 1
 214 524 l 1
EndSplineSet
EndChar
StartChar: semicolon
Encoding: 59 59 27
Width: 278
Flags: W
HStem: -20 20G<110 170> 504 20G<111 215>
VStem: 170 45<-59 0>
Fore
215 524 m 1
 215 420 l 1
 111 420 l 1
 111 524 l 1
 215 524 l 1
110 104 m 1
 215 104 l 1
 215 -16 l 2
 215 -102 180 -147 110 -147 c 1
 110 -109 l 1
 157 -107 170 -87 170 -18 c 2
 170 0 l 1
 110 0 l 1
 110 104 l 1
EndSplineSet
EndChar
StartChar: less
Encoding: 60 60 28
Width: 584
Flags: W
Fore
45 198 m 1
 45 267 l 1
 534 474 l 1
 534 395 l 1
 140 234 l 1
 534 70 l 1
 534 -9 l 1
 45 198 l 1
EndSplineSet
EndChar
StartChar: equal
Encoding: 61 61 29
Width: 584
Flags: W
HStem: 111 70<50 534> 283 70<50 534>
Fore
534 353 m 1
 534 283 l 1
 50 283 l 1
 50 353 l 1
 534 353 l 1
534 181 m 1
 534 111 l 1
 50 111 l 1
 50 181 l 1
 534 181 l 1
EndSplineSet
EndChar
StartChar: greater
Encoding: 62 62 30
Width: 584
Flags: W
Fore
539 267 m 1
 539 198 l 1
 50 -9 l 1
 50 70 l 1
 444 231 l 1
 50 395 l 1
 50 474 l 1
 539 267 l 1
EndSplineSet
EndChar
StartChar: question
Encoding: 63 63 31
Width: 556
Flags: W
HStem: 0 21G<240 330> 663 78<224 361>
VStem: 240 90<0 104 199 322> 419 90<466.5 607.5>
Fore
509 549 m 0
 509 384 330 365 330 246 c 2
 330 199 l 1
 240 199 l 1
 240 254 l 2
 240 390 419 423 419 549 c 0
 419 617 368 663 291 663 c 0
 187 663 162 596 162 507 c 1
 77 507 l 1
 77 661 152 741 296 741 c 0
 426 741 509 666 509 549 c 0
330 104 m 1
 330 0 l 1
 240 0 l 1
 240 104 l 1
 330 104 l 1
EndSplineSet
EndChar
StartChar: at
Encoding: 64 64 32
Width: 1015
Flags: W
HStem: -142 77<362.5 526> 57 70<647.5 738.5> 458 64<454 548.5> 664 77<406.5 641.5>
VStem: 34 85<147 378> 264 90<193 317.5> 609 37<159 393.5> 864 87<298.5 470.5>
Fore
665 501 m 1
 748 501 l 1
 658 221 l 1
 650 198 646 180 646 171 c 0
 646 147 669 127 696 127 c 0
 781 127 864 240 864 357 c 0
 864 524 703 664 512 664 c 0
 301 664 119 483 119 273 c 0
 119 82 282 -65 494 -65 c 0
 548 -65 605 -56 687 -33 c 1
 715 -100 l 1
 643 -127 563 -142 489 -142 c 0
 236 -142 34 36 34 258 c 0
 34 389 94 523 192 612 c 0
 280 692 406 741 525 741 c 0
 758 741 951 572 951 369 c 0
 951 291 920 210 865 146 c 0
 814 86 753 57 679 57 c 0
 616 57 578 83 569 134 c 1
 523 84 480 62 427 62 c 0
 334 62 264 141 264 245 c 0
 264 390 387 522 521 522 c 0
 576 522 618 492 643 435 c 1
 665 501 l 1
453 126 m 0
 548 126 609 281 609 368 c 0
 609 419 569 458 515 458 c 0
 431 458 354 356 354 244 c 0
 354 178 398 126 453 126 c 0
EndSplineSet
EndChar
StartChar: A
Encoding: 65 65 33
Width: 667
Flags: W
HStem: 0 21G<17 116 549 653> 219 78<193 474> 709 20G<277 397>
AnchorPoint: "above" 335 729 basechar 0
Fore
474 219 m 1
 193 219 l 1
 116 0 l 1
 17 0 l 1
 277 729 l 1
 397 729 l 1
 653 0 l 1
 549 0 l 1
 474 219 l 1
448 297 m 1
 336 629 l 1
 216 297 l 1
 448 297 l 1
EndSplineSet
KernsSLIFO: 203 -36 0 0 204 -11 0 0 89 -34 0 0 87 -21 0 0 86 -31 0 0 85 -12 0 0 84 -16 0 0 2147 -65 0 0 2151 -56 0 0 81 -8 0 0 14 5 0 0 79 -13 0 0 13 -3 0 0 2167 -40 0 0 106 -44 0 0 71 -10 0 0 69 -16 0 0 68 -8 0 0 12 5 0 0 166 -10 0 0 67 -11 0 0 66 4 0 0 65 -4 0 0 57 -99 0 0 55 -51 0 0 54 -75 0 0 152 -37 0 0 155 -37 0 0 154 -37 0 0 153 -37 0 0 53 -37 0 0 52 -93 0 0 49 -32 0 0 149 -33 0 0 47 -33 0 0 39 -35 0 0 134 -36 0 0 35 -36 0 0
EndChar
StartChar: B
Encoding: 66 66 34
Width: 667
Flags: W
HStem: 0 82<79 472.5> 333 82<172 399> 647 82<79 461.5>
VStem: 79 93<0 729> 498 93<487.5 581> 530 93<145.5 252>
AnchorPoint: "above" 307 729 basechar 0
AnchorPoint: "below" 314 0 basechar 0
Fore
623 208 m 0xf4
 623 83 537 0 408 0 c 2
 79 0 l 1
 79 729 l 1
 375 729 l 2
 548 729 591 618 591 544 c 0xf8
 591 470 556 416 490 385 c 1
 583 349 623 296 623 208 c 0xf4
498 531 m 0
 498 625 430 647 352 647 c 2
 172 647 l 1
 172 415 l 1
 352 415 l 2
 440 415 498 444 498 531 c 0
399 82 m 2
 504 82 530 156 530 207 c 0xf4
 530 281 485 333 399 333 c 2
 172 333 l 1
 172 82 l 1
 399 82 l 2
EndSplineSet
KernsSLIFO: 57 -44 0 0 55 -25 0 0 54 -41 0 0 151 -1 0 0 145 -7 0 0 149 -7 0 0 147 -7 0 0 146 -7 0 0 273 -5 0 0 47 -7 0 0 130 -21 0 0 132 -21 0 0 131 -21 0 0 129 -21 0 0 128 -21 0 0 133 -21 0 0 33 -21 0 0
EndChar
StartChar: C
Encoding: 67 67 35
Width: 722
Flags: W
HStem: -23 82<245.5 466> 659 82<248 461>
VStem: 48 93<266 450.5>
AnchorPoint: "above" 381 729 basechar 0
Fore
48 356 m 0
 48 508 115 741 381 741 c 0
 541 741 633 663 662 503 c 1
 567 503 l 1
 546 605 488 659 370 659 c 0
 229 659 141 544 141 357 c 0
 141 175 233 59 378 59 c 0
 500 59 559 128 581 266 c 1
 677 266 l 1
 655 73 555 -23 377 -23 c 0
 114 -23 48 207 48 356 c 0
EndSplineSet
KernsSLIFO: 149 -8 0 0 146 -8 0 0 47 -8 0 0 43 -10 0 0 40 -12 0 0 132 -32 0 0 131 -32 0 0 128 -32 0 0 133 -33 0 0 33 -32 0 0
EndChar
StartChar: D
Encoding: 68 68 36
Width: 722
Flags: W
HStem: 0 82<89 462> 647 82<89 462.5>
VStem: 89 93<0 729> 574 93<251.5 478>
AnchorPoint: "above" 347 729 basechar 0
AnchorPoint: "below" 354 0 basechar 0
Fore
89 0 m 1
 89 729 l 1
 370 729 l 2
 555 729 667 591 667 365 c 0
 667 138 554 0 370 0 c 2
 89 0 l 1
182 82 m 1
 354 82 l 2
 498 82 574 180 574 364 c 0
 574 550 498 647 354 647 c 2
 182 647 l 1
 182 82 l 1
EndSplineSet
KernsSLIFO: 57 -63 0 0 56 -53 0 0 55 -29 0 0 54 -51 0 0 52 -45 0 0 42 -5 0 0 130 -42 0 0 132 -42 0 0 127 -42 0 0 131 -42 0 0 129 -42 0 0 128 -42 0 0 33 -42 0 0
EndChar
StartChar: E
Encoding: 69 69 37
Width: 667
Flags: W
HStem: 0 82<90 613> 332 82<183 580> 647 82<90 595>
VStem: 90 93<0 729>
AnchorPoint: "below" 344 0 basechar 0
AnchorPoint: "above" 344 729 basechar 0
Fore
183 332 m 1
 183 82 l 1
 613 82 l 1
 613 0 l 1
 90 0 l 1
 90 729 l 1
 595 729 l 1
 595 647 l 1
 183 647 l 1
 183 414 l 1
 580 414 l 1
 580 332 l 1
 183 332 l 1
EndSplineSet
EndChar
StartChar: F
Encoding: 70 70 38
Width: 611
Flags: W
HStem: 0 21G<90 183> 332 82<183 531> 647 82<90 579>
VStem: 90 93<0 729>
AnchorPoint: "above" 344 729 basechar 0
AnchorPoint: "below" 344 0 basechar 0
Fore
183 332 m 1
 183 0 l 1
 90 0 l 1
 90 729 l 1
 579 729 l 1
 579 647 l 1
 183 647 l 1
 183 414 l 1
 531 414 l 1
 531 332 l 1
 183 332 l 1
EndSplineSet
KernsSLIFO: 85 -33 0 0 82 -35 0 0 14 -108 0 0 183 -21 0 0 274 -23 0 0 181 -21 0 0 178 -21 0 0 79 -21 0 0 74 -12 0 0 73 -10 0 0 13 -14 0 0 168 -24 0 0 69 -24 0 0 12 -108 0 0 164 -33 0 0 165 -29 0 0 163 -33 0 0 160 -33 0 0 65 -33 0 0 149 -22 0 0 47 -22 0 0 42 -51 0 0 130 -69 0 0 132 -69 0 0 127 -69 0 0 131 -69 0 0 129 -69 0 0 128 -69 0 0 33 -69 0 0
EndChar
StartChar: G
Encoding: 71 71 39
Width: 778
Flags: W
HStem: -23 82<279.5 464.5> 303 82<405 709> 659 82<254 477.5>
VStem: 44 93<245 451.5> 627 82<218 303 385 385>
AnchorPoint: "below" 403 0 basechar 0
AnchorPoint: "above" 403 729 basechar 0
Fore
137 362 m 0
 137 245 189 59 398 59 c 0
 531 59 627 153 627 283 c 2
 627 303 l 1
 405 303 l 1
 405 385 l 1
 709 385 l 1
 709 -4 l 1
 650 -4 l 1
 627 93 l 1
 556 14 477 -23 378 -23 c 0
 181 -23 44 133 44 357 c 0
 44 503 114 741 394 741 c 0
 561 741 673 656 699 508 c 1
 604 508 l 1
 584 602 504 659 393 659 c 0
 239 659 137 541 137 362 c 0
EndSplineSet
KernsSLIFO: 57 -62 0 0 55 -28 0 0 54 -50 0 0 52 -44 0 0 130 -6 0 0 132 -6 0 0 127 -6 0 0 131 -6 0 0 129 -6 0 0 128 -6 0 0 133 -3 0 0 33 -6 0 0
EndChar
StartChar: H
Encoding: 72 72 40
Width: 722
Flags: W
HStem: 0 21G<83 177 551 644> 332 82<176 551> 709 20G<83 176 551 644>
VStem: 83 93<414 729> 551 93<0 729>
AnchorPoint: "below" 363 0 basechar 0
AnchorPoint: "above" 363 729 basechar 0
Fore
551 332 m 1
 177 332 l 1
 177 0 l 1
 83 0 l 1
 83 729 l 1
 176 729 l 1
 176 414 l 1
 551 414 l 1
 551 729 l 1
 644 729 l 1
 644 0 l 1
 551 0 l 1
 551 332 l 1
EndSplineSet
EndChar
StartChar: I
Encoding: 73 73 41
Width: 278
Flags: W
HStem: 0 21G<100 194> 709 20G<100 194>
VStem: 100 94<0 729>
AnchorPoint: "below" 142 0 basechar 0
AnchorPoint: "above" 142 729 basechar 0
Fore
194 729 m 1
 194 0 l 1
 100 0 l 1
 100 729 l 1
 194 729 l 1
EndSplineSet
EndChar
StartChar: J
Encoding: 74 74 42
Width: 500
Flags: W
HStem: -23 78<157.5 283.5> 709 20G<333 426>
VStem: 17 95<111 234> 333 93<119 729>
AnchorPoint: "below" 220 0 basechar 0
AnchorPoint: "above" 379 729 basechar 0
Fore
221 55 m 0
 312 55 333 124 333 216 c 2
 333 729 l 1
 426 729 l 1
 426 182 l 2
 426 56 347 -23 220 -23 c 0
 95 -23 17 52 17 170 c 2
 17 234 l 1
 112 234 l 1
 112 187 l 2
 112 102 151 55 221 55 c 0
EndSplineSet
KernsSLIFO: 132 -32 0 0 131 -32 0 0 133 -31 0 0 33 -32 0 0
EndChar
StartChar: K
Encoding: 75 75 43
Width: 667
Flags: W
HStem: 0 21G<79 172 548 658> 709 20G<79 172 535 655>
VStem: 79 93<0 729>
AnchorPoint: "above" 344 729 basechar 0
AnchorPoint: "below" 344 0 basechar 0
Fore
172 255 m 1
 172 0 l 1
 79 0 l 1
 79 729 l 1
 172 729 l 1
 172 360 l 1
 535 729 l 1
 655 729 l 1
 358 432 l 1
 658 0 l 1
 548 0 l 1
 291 374 l 1
 172 255 l 1
EndSplineSet
KernsSLIFO: 89 -62 0 0 187 -19 0 0 85 -19 0 0 181 -29 0 0 178 -29 0 0 79 -29 0 0 13 -47 0 0 69 -32 0 0 164 -11 0 0 165 -7 0 0 163 -11 0 0 65 -11 0 0 52 20 0 0 51 -38 0 0 149 -48 0 0 146 -48 0 0 273 -45 0 0 47 -48 0 0 39 -51 0 0 35 -51 0 0
EndChar
StartChar: L
Encoding: 76 76 44
Width: 556
Flags: W
HStem: 0 82<80 533> 709 20G<80 173>
VStem: 80 93<0 729>
AnchorPoint: "below" 302 0 basechar 0
AnchorPoint: "above" 140 737 basechar 0
Fore
173 729 m 1
 173 82 l 1
 533 82 l 1
 533 0 l 1
 80 0 l 1
 80 729 l 1
 173 729 l 1
EndSplineSet
KernsSLIFO: 287 -19 0 0 203 -41 0 0 89 -56 0 0 187 -7 0 0 85 -7 0 0 2147 -149 0 0 2151 -141 0 0 13 -125 0 0 57 -121 0 0 55 -68 0 0 54 -105 0 0 155 -35 0 0 53 -35 0 0 52 -105 0 0 51 -19 0 0 148 -41 0 0 145 -41 0 0 149 -41 0 0 147 -41 0 0 146 -41 0 0 47 -41 0 0 39 -42 0 0 134 -37 0 0 35 -41 0 0 132 17 0 0 131 17 0 0 128 17 0 0 133 20 0 0 33 17 0 0
EndChar
StartChar: M
Encoding: 77 77 45
Width: 833
Flags: W
HStem: 0 21G<75 163 370 468 673 761> 709 20G<75 204 632 761>
VStem: 75 88<0 729> 673 88<0 729>
AnchorPoint: "below" 420 -2 basechar 0
AnchorPoint: "above" 420 727 basechar 0
Fore
468 0 m 1
 370 0 l 1
 163 611 l 1
 163 0 l 1
 75 0 l 1
 75 729 l 1
 204 729 l 1
 420 94 l 1
 632 729 l 1
 761 729 l 1
 761 0 l 1
 673 0 l 1
 673 611 l 1
 468 0 l 1
EndSplineSet
EndChar
StartChar: N
Encoding: 78 78 46
Width: 722
Flags: W
HStem: 0 21G<76 164 541 646> 709 20G<76 177 558 646>
VStem: 76 88<0 729> 558 88<0 729>
AnchorPoint: "below" 343 0 basechar 0
AnchorPoint: "above" 368 737 basechar 0
Fore
646 729 m 1
 646 0 l 1
 541 0 l 1
 164 591 l 1
 164 0 l 1
 76 0 l 1
 76 729 l 1
 177 729 l 1
 558 133 l 1
 558 729 l 1
 646 729 l 1
EndSplineSet
KernsSLIFO: 203 -3 0 0 14 -7 0 0 183 4 0 0 181 2 0 0 178 2 0 0 79 2 0 0 12 -7 0 0 164 -5 0 0 165 -2 0 0 163 -5 0 0 160 -5 0 0 65 -5 0 0 39 -2 0 0 134 -3 0 0 35 -3 0 0 132 -9 0 0 131 -9 0 0 128 -9 0 0 133 -6 0 0 33 -9 0 0
EndChar
StartChar: O
Encoding: 79 79 47
Width: 778
Flags: W
HStem: -23 82<285 499> 659 82<284.5 496>
VStem: 38 93<245 473> 649 93<248 470.5>
AnchorPoint: "below" 390 0 basechar 0
AnchorPoint: "above" 390 729 basechar 0
Fore
742 353 m 0
 742 143 608 -23 390 -23 c 0
 180 -23 38 131 38 359 c 0
 38 587 180 741 389 741 c 0
 603 741 742 588 742 353 c 0
389 659 m 0
 235 659 131 539 131 359 c 0
 131 179 235 59 390 59 c 0
 544 59 649 179 649 355 c 0
 649 539 547 659 389 659 c 0
EndSplineSet
KernsSLIFO: 57 -59 0 0 56 -46 0 0 55 -23 0 0 54 -45 0 0 52 -42 0 0 132 -35 0 0 131 -35 0 0 128 -35 0 0 133 -39 0 0 33 -35 0 0
EndChar
StartChar: P
Encoding: 80 80 48
Width: 667
Flags: W
HStem: 0 21G<91 184> 309 82<184 473> 647 82<91 464>
VStem: 91 93<0 729> 520 97<452.5 583.5>
AnchorPoint: "below" 314 0 basechar 0
AnchorPoint: "above" 307 729 basechar 0
Fore
617 515 m 0
 617 390 533 309 413 309 c 2
 184 309 l 1
 184 0 l 1
 91 0 l 1
 91 729 l 1
 392 729 l 2
 536 729 617 652 617 515 c 0
184 391 m 1
 378 391 l 2
 467 391 520 439 520 519 c 0
 520 599 467 647 378 647 c 2
 184 647 l 1
 184 391 l 1
EndSplineSet
KernsSLIFO: 14 -135 0 0 183 -27 0 0 274 -28 0 0 181 -27 0 0 178 -27 0 0 79 -27 0 0 13 -40 0 0 168 -31 0 0 69 -31 0 0 12 -135 0 0 164 -28 0 0 165 -24 0 0 163 -28 0 0 160 -28 0 0 65 -28 0 0 42 -78 0 0 132 -78 0 0 131 -78 0 0 128 -78 0 0 133 -86 0 0 33 -78 0 0
EndChar
StartChar: Q
Encoding: 81 81 49
Width: 778
Flags: W
HStem: -23 82<285 426> 659 82<285 495>
VStem: 38 93<245 473> 649 93<303.5 474>
AnchorPoint: "above" 390 729 basechar 0
AnchorPoint: "below" 390 0 basechar 0
Fore
733 -1 m 1
 686 -59 l 1
 581 28 l 1
 522 -7 462 -23 390 -23 c 0
 180 -23 38 131 38 359 c 0
 38 587 180 741 390 741 c 0
 600 741 742 587 742 361 c 0
 742 246 708 152 639 76 c 1
 733 -1 l 1
481 205 m 1
 570 132 l 1
 624 193 649 266 649 360 c 0
 649 539 545 659 390 659 c 0
 235 659 131 539 131 359 c 0
 131 179 234 59 389 59 c 0
 433 59 466 67 509 87 c 1
 435 149 l 1
 481 205 l 1
EndSplineSet
EndChar
StartChar: R
Encoding: 82 82 50
Width: 722
Flags: W
HStem: 0 21G<93 186 566 679> 314 82<186 467.5> 647 82<93 500.5>
VStem: 93 93<0 729> 554 97<478 597>
AnchorPoint: "below" 364 0 basechar 0
AnchorPoint: "above" 357 729 basechar 0
Fore
536 360 m 1
 717 282 574 95 679 23 c 1
 679 0 l 1
 566 0 l 1
 553 30 544 74 545 119 c 0
 546 184 l 1
 546 274 509 314 426 314 c 2
 186 314 l 1
 186 0 l 1
 93 0 l 1
 93 729 l 1
 429 729 l 2
 572 729 651 660 651 534 c 0
 651 451 618 400 536 360 c 1
554 521 m 0
 554 625 489 647 411 647 c 2
 186 647 l 1
 186 396 l 1
 411 396 l 2
 510 396 554 435 554 521 c 0
EndSplineSet
KernsSLIFO: 89 -8 0 0 187 -9 0 0 185 -9 0 0 85 -9 0 0 274 -11 0 0 181 -9 0 0 178 -9 0 0 79 -9 0 0 13 -2 0 0 168 -12 0 0 69 -12 0 0 164 -15 0 0 165 -12 0 0 163 -15 0 0 160 -15 0 0 65 -15 0 0 57 -43 0 0 55 -27 0 0 54 -39 0 0 155 -17 0 0 53 -17 0 0 52 -23 0 0 149 -13 0 0 146 -13 0 0 273 -11 0 0 47 -13 0 0 39 -15 0 0 134 -16 0 0 35 -16 0 0
EndChar
StartChar: S
Encoding: 83 83 51
Width: 667
Flags: W
HStem: -23 82<259.5 450> 663 78<249 413>
VStem: 48 88<190 232> 70 93<482.5 593> 528 93<155.5 245>
AnchorPoint: "below" 336 0 basechar 0
AnchorPoint: "above" 335 729 basechar 0
Fore
342 59 m 0xe8
 500 59 528 139 528 191 c 0
 528 248 486 285 394 309 c 2
 213 357 l 2
 117 382 70 438 70 527 c 0
 70 659 169 741 329 741 c 0
 497 741 595 658 596 515 c 1
 508 515 l 1
 507 610 442 663 326 663 c 0
 228 663 163 614 163 540 c 0xd8
 163 484 195 456 283 432 c 2
 466 383 l 2
 565 356 621 290 621 200 c 0
 621 111 564 -23 336 -23 c 0
 210 -23 51 25 48 232 c 1
 136 232 l 1
 136 230 136 229 136 227 c 0
 136 153 177 59 342 59 c 0xe8
EndSplineSet
KernsSLIFO: 84 -3 0 0 57 -48 0 0 55 -28 0 0 54 -42 0 0 52 -28 0 0 132 -22 0 0 131 -22 0 0 128 -22 0 0 133 -22 0 0 33 -22 0 0
EndChar
StartChar: T
Encoding: 84 84 52
Width: 611
Flags: W
HStem: 0 21G<261 354> 647 82<21 593>
VStem: 261 93<0 647>
AnchorPoint: "below" 305 0 basechar 0
AnchorPoint: "above" 308 729 basechar 0
Fore
354 647 m 1
 354 0 l 1
 261 0 l 1
 261 647 l 1
 21 647 l 1
 21 729 l 1
 593 729 l 1
 593 647 l 1
 354 647 l 1
EndSplineSet
KernsSLIFO: 288 -60 0 0 287 -24 0 0 89 -100 0 0 87 -93 0 0 86 -95 0 0 85 -91 0 0 27 -129 0 0 83 -92 0 0 82 -92 0 0 14 -100 0 0 183 -87 0 0 79 -92 0 0 74 -5 0 0 73 -3 0 0 13 -77 0 0 2167 -117 0 0 106 -121 0 0 71 -89 0 0 69 -95 0 0 12 -100 0 0 26 -133 0 0 67 -90 0 0 165 -97 0 0 65 -100 0 0 57 20 0 0 55 16 0 0 54 12 0 0 51 -24 0 0 148 -42 0 0 151 -41 0 0 145 -42 0 0 149 -42 0 0 147 -42 0 0 146 -42 0 0 273 -35 0 0 47 -42 0 0 42 -100 0 0 39 -45 0 0 35 -44 0 0 130 -95 0 0 132 -95 0 0 127 -95 0 0 131 -95 0 0 129 -95 0 0 128 -95 0 0 133 -97 0 0 33 -95 0 0
EndChar
StartChar: U
Encoding: 85 85 53
Width: 722
Flags: W
HStem: -23 82<277.5 449.5> 709 20G<85 178 552 645>
VStem: 85 93<143 729> 552 93<144 729>
AnchorPoint: "below" 365 0 basechar 0
AnchorPoint: "above" 365 729 basechar 0
Fore
552 729 m 5
 645 729 l 1
 645 217 l 2
 645 71 535 -23 364 -23 c 0
 191 -23 85 69 85 217 c 2
 85 729 l 1
 178 729 l 1
 178 217 l 2
 178 107 257 59 364 59 c 0
 481 59 552 119 552 217 c 2
 552 729 l 5
EndSplineSet
KernsSLIFO: 82 -4 0 0 14 -25 0 0 80 3 0 0 78 -4 0 0 77 -4 0 0 12 -27 0 0 130 -36 0 0 132 -36 0 0 131 -36 0 0 129 -36 0 0 128 -36 0 0 133 -39 0 0 33 -36 0 0
EndChar
StartChar: V
Encoding: 86 86 54
Width: 667
Flags: W
HStem: 0 21G<292 392> 709 20G<30 130 546 645>
AnchorPoint: "above" 344 729 basechar 0
AnchorPoint: "below" 344 0 basechar 0
Fore
392 0 m 1
 292 0 l 1
 30 729 l 1
 130 729 l 1
 344 112 l 1
 546 729 l 1
 645 729 l 1
 392 0 l 1
EndSplineSet
KernsSLIFO: 287 -35 0 0 204 -43 0 0 89 -20 0 0 85 -41 0 0 27 -66 0 0 82 -42 0 0 14 -89 0 0 183 -50 0 0 79 -54 0 0 73 -5 0 0 13 -38 0 0 2167 -80 0 0 106 -83 0 0 71 -50 0 0 69 -57 0 0 12 -89 0 0 26 -66 0 0 165 -55 0 0 65 -59 0 0 52 15 0 0 51 -35 0 0 148 -40 0 0 151 -33 0 0 145 -40 0 0 149 -40 0 0 147 -40 0 0 146 -40 0 0 47 -40 0 0 39 -42 0 0 35 -43 0 0 130 -71 0 0 132 -71 0 0 127 -71 0 0 131 -71 0 0 129 -71 0 0 128 -71 0 0 133 -78 0 0 33 -71 0 0
EndChar
StartChar: W
Encoding: 87 87 55
Width: 944
Flags: W
HStem: 0 21G<209 311 642 744> 709 20G<22 126 425 525 825 929>
AnchorPoint: "below" 475 0 basechar 0
AnchorPoint: "above" 475 729 basechar 0
Fore
744 0 m 1
 642 0 l 1
 474 599 l 1
 311 0 l 1
 209 0 l 1
 22 729 l 1
 126 729 l 1
 263 137 l 1
 425 729 l 1
 525 729 l 1
 691 137 l 1
 825 729 l 1
 929 729 l 1
 744 0 l 1
EndSplineSet
KernsSLIFO: 89 -6 0 0 85 -28 0 0 27 -53 0 0 82 -28 0 0 14 -56 0 0 183 -25 0 0 79 -29 0 0 73 -1 0 0 13 -13 0 0 2167 -54 0 0 106 -58 0 0 71 -25 0 0 69 -32 0 0 12 -56 0 0 26 -52 0 0 165 -34 0 0 65 -38 0 0 52 19 0 0 51 -24 0 0 148 -20 0 0 151 -13 0 0 145 -20 0 0 149 -20 0 0 147 -20 0 0 146 -20 0 0 47 -20 0 0 39 -22 0 0 35 -23 0 0 130 -50 0 0 132 -50 0 0 127 -50 0 0 131 -50 0 0 129 -50 0 0 128 -50 0 0 133 -56 0 0 33 -50 0 0
EndChar
StartChar: X
Encoding: 88 88 56
Width: 667
Flags: W
HStem: 0 21G<22 135 534 649> 709 20G<38 151 526 637>
AnchorPoint: "above" 333 729 basechar 0
AnchorPoint: "below" 333 0 basechar 0
Fore
391 374 m 1
 649 0 l 1
 534 0 l 1
 335 304 l 1
 135 0 l 1
 22 0 l 1
 280 374 l 1
 38 729 l 1
 151 729 l 1
 338 443 l 1
 526 729 l 1
 637 729 l 1
 391 374 l 1
EndSplineSet
KernsSLIFO: 89 -61 0 0 85 -24 0 0 79 -33 0 0 13 -51 0 0 69 -36 0 0 65 -15 0 0 49 -44 0 0 149 -45 0 0 47 -45 0 0 35 -48 0 0
EndChar
StartChar: Y
Encoding: 89 89 57
Width: 667
Flags: W
HStem: 0 21G<294 387> 709 20G<13 128 550 661>
VStem: 294 93<0 286>
AnchorPoint: "below" 343 2 basechar 0
AnchorPoint: "above" 343 731 basechar 0
Fore
387 286 m 1
 387 0 l 1
 294 0 l 1
 294 286 l 1
 13 729 l 1
 128 729 l 1
 342 374 l 1
 550 729 l 1
 661 729 l 1
 387 286 l 1
EndSplineSet
KernsSLIFO: 86 -36 0 0 85 -63 0 0 27 -88 0 0 14 -111 0 0 80 -54 0 0 183 -82 0 0 79 -86 0 0 73 3 0 0 13 -84 0 0 2167 -119 0 0 106 -123 0 0 71 -83 0 0 69 -89 0 0 12 -111 0 0 26 -87 0 0 165 -84 0 0 65 -88 0 0 52 23 0 0 51 -41 0 0 148 -56 0 0 151 -54 0 0 145 -56 0 0 149 -56 0 0 147 -56 0 0 146 -56 0 0 47 -56 0 0 39 -58 0 0 35 -58 0 0 130 -96 0 0 132 -96 0 0 127 -96 0 0 131 -96 0 0 129 -96 0 0 128 -96 0 0 133 -103 0 0 33 -96 0 0
EndChar
StartChar: Z
Encoding: 90 90 58
Width: 611
Flags: W
HStem: 0 82<28 583> 647 82<56 581>
AnchorPoint: "above" 319 729 basechar 0
Fore
581 729 m 1
 581 645 l 1
 145 82 l 1
 583 82 l 1
 583 0 l 1
 28 0 l 1
 28 82 l 1
 466 647 l 1
 56 647 l 1
 56 729 l 1
 581 729 l 1
EndSplineSet
KernsSLIFO: 89 -38 0 0 86 -33 0 0
EndChar
StartChar: bracketleft
Encoding: 91 91 59
Width: 278
Flags: W
HStem: -212 72<64 250> 657 72<64 250>
VStem: 64 83<-212 729>
Fore
250 729 m 1
 250 657 l 1
 147 657 l 1
 147 -140 l 1
 250 -140 l 1
 250 -212 l 1
 64 -212 l 1
 64 729 l 1
 250 729 l 1
EndSplineSet
EndChar
StartChar: backslash
Encoding: 92 92 60
Width: 278
Flags: W
HStem: -20 21G<229 284> 709 20G<-8 47>
Fore
47 729 m 1
 284 -20 l 1
 229 -20 l 1
 -8 729 l 1
 47 729 l 1
EndSplineSet
EndChar
StartChar: bracketright
Encoding: 93 93 61
Width: 278
Flags: W
HStem: -212 72<23 209> 657 72<23 209>
VStem: 126 83<-212 729>
Fore
23 -212 m 1
 23 -140 l 1
 126 -140 l 1
 126 657 l 1
 23 657 l 1
 23 729 l 1
 209 729 l 1
 209 -212 l 1
 23 -212 l 1
EndSplineSet
EndChar
StartChar: asciicircum
Encoding: 94 94 62
Width: 469
Flags: W
HStem: 689 20G<197 270>
Fore
197 709 m 1
 270 709 l 1
 425 329 l 1
 356 329 l 1
 234 629 l 1
 113 329 l 1
 44 329 l 1
 197 709 l 1
EndSplineSet
EndChar
StartChar: underscore
Encoding: 95 95 63
Width: 556
Flags: W
HStem: -176 50<-22 578>
Fore
578 -126 m 1
 578 -176 l 1
 -22 -176 l 1
 -22 -126 l 1
 578 -126 l 1
EndSplineSet
EndChar
StartChar: grave
Encoding: 96 96 64
Width: 333
Flags: W
HStem: 720 20G<22 135>
Fore
135 740 m 1
 231 592 l 1
 171 592 l 1
 22 740 l 1
 135 740 l 1
EndSplineSet
EndChar
StartChar: a
Encoding: 97 97 65
Width: 556
Flags: W
HStem: -23 73<161 281.5> 462 77<228 339.5>
VStem: 42 87<84.5 202> 389 83<88 442.5>
AnchorPoint: "below" 274 0 basechar 0
AnchorPoint: "above" 274 538 basechar 0
Fore
65 369 m 1
 70 511 181 539 275 539 c 0
 404 539 472 489 472 396 c 2
 472 88 l 2
 472 62 488 47 517 47 c 0
 522 47 526 47 535 49 c 1
 535 -14 l 1
 508 -21 495 -23 478 -23 c 0
 424 -23 398 1 392 54 c 1
 333 0 280 -23 214 -23 c 0
 108 -23 42 37 42 132 c 0
 42 272 149 284 302 304 c 0
 368 312 389 327 389 362 c 2
 389 384 l 2
 389 434 347 462 272 462 c 0
 194 462 156 433 149 369 c 1
 65 369 l 1
232 50 m 0
 331 50 389 115 389 165 c 2
 389 259 l 1
 304 220 129 249 129 134 c 0
 129 81 167 50 232 50 c 0
EndSplineSet
KernsSLIFO: 89 -26 0 0 87 -13 0 0 86 -21 0 0 2147 -23 0 0 74 -4 0 0
EndChar
StartChar: b
Encoding: 98 98 66
Width: 556
Flags: W
HStem: -23 78<239 364> 461 78<239 368> 709 20G<54 137>
VStem: 54 75<0 67> 54 83<196.5 319.5 453 729> 436 87<177 349>
AnchorPoint: "below" 274 0 basechar 0
Fore
54 729 m 1xec
 137 729 l 1
 137 453 l 1xec
 176 512 227 539 299 539 c 0
 437 539 523 434 523 264 c 0
 523 90 433 -23 295 -23 c 0
 222 -23 169 6 129 67 c 1
 129 0 l 1
 54 0 l 1xf4
 54 729 l 1xec
283 461 m 0
 195 461 137 381 137 258 c 0
 137 135 195 55 283 55 c 0
 374 55 436 136 436 255 c 0
 436 380 376 461 283 461 c 0
EndSplineSet
KernsSLIFO: 89 -15 0 0 87 -3 0 0 86 -11 0 0
EndChar
StartChar: c
Encoding: 99 99 67
Width: 500
Flags: W
HStem: -23 77<192 325.5> 462 77<193.5 324>
VStem: 31 87<168.5 340>
AnchorPoint: "below" 274 0 basechar 0
AnchorPoint: "above" 265 538 basechar 0
Fore
471 348 m 1
 387 348 l 1
 377 421 333 462 263 462 c 0
 172 462 118 384 118 253 c 0
 118 129 173 54 265 54 c 0
 336 54 379 96 393 180 c 1
 477 180 l 1
 467 52 388 -23 263 -23 c 0
 121 -23 31 84 31 253 c 0
 31 427 123 539 264 539 c 0
 384 539 461 473 471 348 c 1
EndSplineSet
KernsSLIFO: 75 7 0 0 72 1 0 0
EndChar
StartChar: d
Encoding: 100 100 68
Width: 556
Flags: W
HStem: -23 78<183.5 310> 461 78<183 310> 709 20G<412 495>
VStem: 26 87<174.5 346.5> 412 83<195.5 318.5 458 729> 421 74<0 69>
AnchorPoint: "below" 274 0 basechar 0
Fore
495 729 m 1xf8
 495 0 l 1
 421 0 l 1
 421 69 l 1xf4
 376 4 326 -23 254 -23 c 0
 113 -23 26 86 26 263 c 0
 26 430 115 539 251 539 c 0
 321 539 377 511 412 458 c 1
 412 729 l 1
 495 729 l 1xf8
265 461 m 0
 174 461 113 380 113 258 c 0
 113 136 174 55 266 55 c 0
 354 55 412 135 412 256 c 0xf8
 412 381 355 461 265 461 c 0
EndSplineSet
EndChar
StartChar: e
Encoding: 101 101 69
Width: 556
Flags: W
HStem: -23 77<204.5 338> 234 68<127 513> 462 77<207 329>
VStem: 424 89<234 351>
AnchorPoint: "below" 274 0 basechar 0
AnchorPoint: "above" 285 538 basechar 0
Fore
513 234 m 1
 127 234 l 1
 128 182 135 152 155 122 c 0
 183 78 228 54 281 54 c 0
 348 54 395 90 418 159 c 1
 502 159 l 1
 481 45 398 -23 278 -23 c 0
 131 -23 40 83 40 255 c 0
 40 427 134 539 280 539 c 0
 378 539 458 487 492 401 c 0
 507 362 513 314 513 234 c 1
129 302 m 5
 423 302 l 1
 424 304 424 306 424 308 c 0
 424 394 361 462 279 462 c 0
 195 462 136 399 129 302 c 5
EndSplineSet
KernsSLIFO: 89 -19 0 0 88 -27 0 0 87 -9 0 0 86 -15 0 0 84 -10 0 0 2147 -18 0 0
EndChar
StartChar: f
Encoding: 102 102 70
Width: 278
Flags: W
HStem: 0 21G<88 171> 456 68<18 88 171 258> 659 73<172.5 232.5>
VStem: 88 83<0 456 524 613>
AnchorPoint: "below" 134 2 basechar 0
Fore
258 524 m 1
 258 456 l 1
 171 456 l 1
 171 0 l 1
 88 0 l 1
 88 456 l 1
 18 456 l 1
 18 524 l 1
 88 524 l 1
 88 613 l 2
 88 688 134 732 211 732 c 0
 228 732 239 731 258 727 c 1
 258 658 l 1
 239 659 236 659 229 659 c 0
 191 659 171 641 171 606 c 2
 171 524 l 1
 258 524 l 1
EndSplineSet
KernsSLIFO: 84 24 0 0 183 -9 0 0 274 -12 0 0 181 -10 0 0 178 -10 0 0 79 -10 0 0 76 -3 0 0 74 -4 0 0 73 -2 0 0 70 22 0 0 168 -15 0 0 69 -15 0 0 164 -9 0 0 165 -5 0 0 163 -9 0 0 160 -9 0 0 65 -9 0 0
EndChar
StartChar: g
Encoding: 103 103 71
Width: 556
Flags: W
HStem: -218 70<193.5 354.5> -23 77<185.5 306> 462 77<185.5 306>
VStem: 29 87<167.5 338> 404 85<-16 86 -5 320.5> 412 77<448 524>
AnchorPoint: "below" 260 -200 basechar 0
AnchorPoint: "above" 250 538 basechar 0
Fore
245 -23 m 0xf8
 126 -23 29 82 29 253 c 0
 29 423 119 539 252 539 c 0
 319 539 370 510 412 448 c 1
 412 524 l 1
 489 524 l 1xf4
 489 86 l 2
 489 -96 454 -218 255 -218 c 0
 132 -218 55 -159 46 -60 c 1
 131 -60 l 1
 145 -145 232 -148 258 -148 c 0
 376 -148 404 -76 404 44 c 2
 404 71 l 1
 357 5 311 -23 245 -23 c 0xf8
261 462 m 0
 172 462 116 384 116 258 c 0
 116 131 171 54 262 54 c 0
 350 54 404 130 404 255 c 0xf8
 404 386 351 462 261 462 c 0
EndSplineSet
KernsSLIFO: 181 3 0 0 178 3 0 0 164 -5 0 0 165 -1 0 0 163 -5 0 0 65 -5 0 0
EndChar
StartChar: h
Encoding: 104 104 72
Width: 556
Flags: W
HStem: 0 21G<70 153 403 486> 466 73<252 372> 709 20G<70 153>
VStem: 70 83<0 729> 403 83<0 440>
AnchorPoint: "below" 274 0 basechar 0
AnchorPoint: "above" 110 716 basechar 0
Fore
403 363 m 2
 403 445 338 466 295 466 c 0
 209 466 153 396 153 289 c 2
 153 0 l 1
 70 0 l 1
 70 729 l 1
 153 729 l 1
 153 452 l 1
 202 516 247 539 321 539 c 0
 423 539 486 484 486 396 c 2
 486 0 l 1
 403 0 l 1
 403 363 l 2
EndSplineSet
KernsSLIFO: 89 -18 0 0 2147 -15 0 0
EndChar
StartChar: i
Encoding: 105 105 73
Width: 222
Flags: W
HStem: 0 21<67 150> 504 20<67 150> 709 20G<66 150>
VStem: 66 84<624 729> 67 83<0 524>
AnchorPoint: "below" 110 0 basechar 0
AnchorPoint: "above" 111 743 basechar 0
Fore
150 729 m 1xf0
 150 624 l 1
 66 624 l 1
 66 729 l 1
 150 729 l 1xf0
EndSplineSet
Refer: 240 305 N 1 0 0 1 -27 0 2
KernsSLIFO: 74 -3 0 0 52 -7 0 0
Substitution: 0 65534 's001' dotlessi
EndChar
StartChar: j
Encoding: 106 106 74
Width: 222
Flags: HW
HStem: 709 20G<70 153>
VStem: 70 83<624 729>
AnchorPoint: "below" 88 -200 basechar 0
AnchorPoint: "above" 109.5 743 basechar 0
Fore
153 729 m 1
 153 624 l 1
 70 624 l 1
 70 729 l 1
 153 729 l 1
EndSplineSet
Refer: 2367 63166 N 1 0 0 1 0 0 2
Substitution: 0 65534 's001' dotlessj
EndChar
StartChar: k
Encoding: 107 107 75
Width: 500
Flags: W
HStem: 0 21G<58 141 399 502> 504 20G<363 470> 709 20G<58 141>
VStem: 58 83<0 729>
AnchorPoint: "above" 102 716 basechar 0
AnchorPoint: "below" 262 0 basechar 0
Fore
141 729 m 1
 141 302 l 1
 363 524 l 1
 470 524 l 1
 288 343 l 1
 502 0 l 1
 399 0 l 1
 222 284 l 1
 141 204 l 1
 141 0 l 1
 58 0 l 1
 58 729 l 1
 141 729 l 1
EndSplineSet
KernsSLIFO: 187 -6 0 0 85 -11 0 0 83 -3 0 0 181 -19 0 0 178 -19 0 0 79 -19 0 0 13 -41 0 0 71 -16 0 0 168 -21 0 0 69 -21 0 0 164 -2 0 0 165 2 0 0 163 -2 0 0 160 -2 0 0 65 -2 0 0
EndChar
StartChar: l
Encoding: 108 108 76
Width: 222
Flags: W
HStem: 0 21G<68 152> 709 20G<68 152>
VStem: 68 84<0 729>
AnchorPoint: "above" 111 743 basechar 0
AnchorPoint: "below" 108 0 basechar 0
Fore
152 729 m 1
 152 0 l 1
 68 0 l 1
 68 729 l 1
 152 729 l 1
EndSplineSet
KernsSLIFO: 89 -5 0 0
EndChar
StartChar: m
Encoding: 109 109 77
Width: 833
Flags: W
HStem: 0 21G<70 154 374 458 678 762> 466 73<243 342 547 659>
VStem: 70 84<0 367> 70 77<450 524> 374 84<0 394.5> 678 84<0 440>
AnchorPoint: "above" 416.5 538 basechar 0
AnchorPoint: "below" 412 -2 basechar 0
Fore
70 524 m 1xdc
 147 524 l 1
 147 450 l 1xdc
 192 513 238 539 308 539 c 0
 376 539 418 515 449 459 c 1
 498 518 540 539 610 539 c 0
 708 539 762 487 762 393 c 2
 762 0 l 1
 678 0 l 1
 678 361 l 2
 678 427 642 466 581 466 c 0
 513 466 458 405 458 329 c 2
 458 0 l 1
 374 0 l 1
 374 361 l 2
 374 428 339 466 277 466 c 0
 209 466 154 405 154 329 c 2
 154 0 l 1
 70 0 l 1xec
 70 524 l 1xdc
EndSplineSet
KernsSLIFO: 89 -18 0 0 87 -7 0 0 86 -13 0 0 80 5 0 0
EndChar
StartChar: n
Encoding: 110 110 78
Width: 556
Flags: W
HStem: 0 21G<70 154 404 487> 466 73<253 371.5>
VStem: 70 84<0 342.5> 70 77<436 524> 404 83<0 439.5>
AnchorPoint: "below" 274 0 basechar 0
AnchorPoint: "above" 278 538 basechar 0
Fore
70 524 m 1xd8
 147 524 l 1
 147 436 l 1xd8
 193 509 243 539 321 539 c 0
 422 539 487 483 487 396 c 2
 487 0 l 1
 404 0 l 1
 404 363 l 2
 404 426 362 466 296 466 c 0
 210 466 154 396 154 289 c 2
 154 0 l 1
 70 0 l 1xe8
 70 524 l 1xd8
EndSplineSet
KernsSLIFO: 89 -18 0 0 87 -7 0 0 86 -13 0 0 2147 -14 0 0 80 5 0 0 52 -96 0 0
EndChar
StartChar: o
Encoding: 111 111 79
Width: 556
Flags: W
HStem: -23 77<198.5 346.5> 462 77<198.5 347.5>
VStem: 36 87<170 346> 423 87<168 344.5>
AnchorPoint: "below" 273 0 basechar 0
AnchorPoint: "above" 272 538 basechar 0
Fore
272 539 m 0
 423 539 510 435 510 254 c 0
 510 82 420 -23 273 -23 c 0
 124 -23 36 82 36 258 c 0
 36 434 125 539 272 539 c 0
273 462 m 0
 180 462 123 384 123 258 c 0
 123 131 180 54 273 54 c 0
 365 54 423 132 423 255 c 0
 423 385 367 462 273 462 c 0
EndSplineSet
KernsSLIFO: 89 -22 0 0 88 -27 0 0 87 -10 0 0 86 -18 0 0 84 -10 0 0 2147 -21 0 0 52 -99 0 0
EndChar
StartChar: p
Encoding: 112 112 80
Width: 556
Flags: W
HStem: -23 78<240 366.5> 461 78<240 367.5>
VStem: 54 77<445 524> 54 84<-218 55 196.5 319.5> 436 87<169.5 341>
AnchorPoint: "below" 272 -200 basechar 0
AnchorPoint: "above" 272 538 basechar 0
Fore
54 -218 m 1xd8
 54 524 l 1
 131 524 l 1
 131 445 l 1xe8
 170 507 227 539 298 539 c 0
 437 539 523 429 523 253 c 0
 523 86 434 -23 299 -23 c 0
 231 -23 182 1 138 55 c 1
 138 -218 l 1
 54 -218 l 1xd8
284 461 m 0
 196 461 138 381 138 258 c 0xd8
 138 135 196 55 284 55 c 0
 375 55 436 136 436 255 c 0
 436 380 376 461 284 461 c 0
EndSplineSet
KernsSLIFO: 89 -16 0 0 84 -4 0 0
EndChar
StartChar: q
Encoding: 113 113 81
Width: 556
Flags: W
HStem: -23 78<181 310> 461 78<185 310.5>
VStem: 26 87<167 339> 412 83<-218 60 195 318> 421 74<454 524>
AnchorPoint: "below" 272 -200 basechar 0
AnchorPoint: "above" 272 538 basechar 0
Fore
495 -218 m 1xf0
 412 -218 l 1
 412 60 l 1xf0
 373 3 323 -23 250 -23 c 0
 112 -23 26 82 26 252 c 0
 26 426 116 539 254 539 c 0
 323 539 382 509 421 454 c 1
 421 524 l 1
 495 524 l 1xe8
 495 -218 l 1xf0
266 461 m 0
 174 461 113 379 113 258 c 0
 113 136 174 55 266 55 c 0
 354 55 412 135 412 255 c 0
 412 381 355 461 266 461 c 0
EndSplineSet
KernsSLIFO: 85 4 0 0 67 8 0 0
EndChar
StartChar: r
Encoding: 114 114 82
Width: 333
Flags: W
HStem: 0 21G<69 153> 451 88<262 321>
VStem: 69 77<429 524> 69 84<0 345.5>
AnchorPoint: "below" 110 0 basechar 0
AnchorPoint: "above" 191 538 basechar 0
Fore
321 451 m 1xe0
 220 449 153 419 153 272 c 2
 153 0 l 1
 69 0 l 1xd0
 69 524 l 1
 146 524 l 1
 146 429 l 1
 194 507 235 539 289 539 c 0
 300 539 307 538 321 536 c 1
 321 451 l 1xe0
EndSplineSet
KernsSLIFO: 204 -6 0 0 90 9 0 0 89 24 0 0 88 20 0 0 87 31 0 0 86 29 0 0 85 2 0 0 84 28 0 0 27 -22 0 0 83 4 0 0 2147 1 0 0 81 -3 0 0 14 -69 0 0 80 8 0 0 183 -6 0 0 177 -6 0 0 274 -8 0 0 181 -6 0 0 179 -6 0 0 178 -6 0 0 79 -6 0 0 76 1 0 0 75 6 0 0 73 1 0 0 13 -47 0 0 71 -4 0 0 70 26 0 0 167 -11 0 0 169 -11 0 0 168 -11 0 0 69 -11 0 0 68 -1 0 0 12 -69 0 0 26 -22 0 0 166 -9 0 0 67 -6 0 0 164 -5 0 0 159 -5 0 0 165 -1 0 0 163 -5 0 0 161 -5 0 0 160 -5 0 0 65 -5 0 0
EndChar
StartChar: s
Encoding: 115 115 83
Width: 500
Flags: W
HStem: -23 77<174.5 309> 462 77<187 308.5>
VStem: 47 87<338 427.5> 372 87<92.5 182>
AnchorPoint: "below" 242 0 basechar 0
AnchorPoint: "above" 246 538 basechar 0
Fore
122 156 m 1
 129 105 148 54 250 54 c 0
 323 54 372 87 372 136 c 0
 372 174 349 195 291 209 c 2
 213 228 l 2
 89 258 47 297 47 379 c 0
 47 476 126 539 248 539 c 0
 369 539 437 481 438 378 c 1
 350 378 l 1
 348 433 312 462 245 462 c 0
 177 462 134 431 134 383 c 0
 134 346 163 324 231 308 c 2
 311 289 l 2
 415 264 459 221 459 143 c 0
 459 42 375 -23 243 -23 c 0
 106 -23 38 35 34 156 c 1
 122 156 l 1
EndSplineSet
KernsSLIFO: 84 -3 0 0 2147 -22 0 0
EndChar
StartChar: t
Encoding: 116 116 84
Width: 278
Flags: W
HStem: -23 73<153.5 222> 456 68<14 85 168 254>
VStem: 85 83<60 456 524 668>
AnchorPoint: "below" 156 0 basechar 0
Fore
254 524 m 1
 254 456 l 1
 168 456 l 1
 168 97 l 2
 168 60 178 50 214 50 c 0
 230 50 243 51 254 54 c 1
 254 -16 l 1
 226 -21 206 -23 186 -23 c 0
 121 -23 85 7 85 60 c 2
 85 456 l 1
 14 456 l 1
 14 524 l 1
 85 524 l 1
 85 668 l 1
 168 668 l 1
 168 524 l 1
 254 524 l 1
EndSplineSet
KernsSLIFO: 27 -28 0 0 2147 -1 0 0 181 -12 0 0 178 -12 0 0 79 -12 0 0 72 -3 0 0 168 -14 0 0 69 -14 0 0 26 -28 0 0 164 -1 0 0 165 2 0 0 163 -1 0 0 160 -1 0 0 65 -1 0 0 51 -8 0 0
EndChar
StartChar: u
Encoding: 117 117 85
Width: 556
Flags: W
HStem: -23 73<181 299.5> 504 20G<65 148 399 482>
VStem: 65 83<76.5 524> 399 83<173.5 524> 407 75<0 73>
AnchorPoint: "above" 273 538 basechar 0
Fore
482 0 m 1xe8
 407 0 l 1
 407 73 l 1xe8
 358 4 309 -23 232 -23 c 0
 130 -23 65 33 65 120 c 2
 65 524 l 1
 148 524 l 1
 148 153 l 2
 148 90 190 50 256 50 c 0
 343 50 399 120 399 227 c 2
 399 524 l 1
 482 524 l 1xf0
 482 0 l 1xe8
EndSplineSet
KernsSLIFO: 2147 -8 0 0
EndChar
StartChar: v
Encoding: 118 118 86
Width: 500
Flags: W
HStem: 0 21G<194 285> 504 20G<10 104 392 486>
Fore
285 0 m 1
 194 0 l 1
 10 524 l 1
 104 524 l 1
 244 99 l 1
 392 524 l 1
 486 524 l 1
 285 0 l 1
EndSplineSet
KernsSLIFO: 204 -16 0 0 27 -23 0 0 83 -9 0 0 14 -69 0 0 183 -17 0 0 177 -17 0 0 181 -17 0 0 178 -17 0 0 79 -17 0 0 13 -12 0 0 71 -14 0 0 167 -21 0 0 169 -21 0 0 168 -21 0 0 69 -21 0 0 12 -69 0 0 26 -23 0 0 67 -16 0 0 162 -18 0 0 164 -18 0 0 159 -18 0 0 165 -14 0 0 163 -18 0 0 161 -18 0 0 160 -18 0 0 65 -18 0 0
EndChar
StartChar: w
Encoding: 119 119 87
Width: 722
Flags: W
HStem: 0 21G<158 252 459 554> 504 20G<6 98 305 407 614 708>
AnchorPoint: "above" 356 538 basechar 0
Fore
554 0 m 1
 459 0 l 1
 353 411 l 1
 252 0 l 1
 158 0 l 1
 6 524 l 1
 98 524 l 1
 205 116 l 1
 305 524 l 1
 407 524 l 1
 510 116 l 1
 614 524 l 1
 708 524 l 1
 554 0 l 1
EndSplineSet
KernsSLIFO: 27 -23 0 0 83 -5 0 0 14 -50 0 0 183 -6 0 0 177 -9 0 0 181 -9 0 0 178 -9 0 0 79 -9 0 0 13 -1 0 0 71 -6 0 0 167 -12 0 0 169 -12 0 0 168 -12 0 0 69 -12 0 0 12 -50 0 0 26 -23 0 0 67 -7 0 0 162 -15 0 0 164 -15 0 0 159 -15 0 0 165 -11 0 0 163 -15 0 0 161 -15 0 0 160 -15 0 0 65 -15 0 0
EndChar
StartChar: x
Encoding: 120 120 88
Width: 500
Flags: W
HStem: 0 21G<17 112 376 473> 504 20G<27 122 374 468>
Fore
292 271 m 1
 473 0 l 1
 376 0 l 1
 245 201 l 1
 112 0 l 1
 17 0 l 1
 202 267 l 1
 27 524 l 1
 122 524 l 1
 248 334 l 1
 374 524 l 1
 468 524 l 1
 292 271 l 1
EndSplineSet
KernsSLIFO: 81 -20 0 0 79 -25 0 0 168 -28 0 0 69 -28 0 0 67 -23 0 0 65 -17 0 0
EndChar
StartChar: y
Encoding: 121 121 89
Width: 500
Flags: W
HStem: -218 82<92 138.5> 504 20G<20 109 388 478>
AnchorPoint: "above" 248 538 basechar 0
Fore
388 524 m 1
 478 524 l 1
 245 -110 l 2
 216 -187 167 -218 110 -218 c 0
 88 -218 71 -214 54 -205 c 1
 54 -130 l 1
 72 -134 86 -136 98 -136 c 0
 133 -136 151 -122 165 -85 c 0
 197 -2 l 1
 20 524 l 1
 109 524 l 1
 243 116 l 1
 388 524 l 1
EndSplineSet
KernsSLIFO: 27 -27 0 0 83 -12 0 0 14 -70 0 0 183 -19 0 0 177 -20 0 0 181 -20 0 0 178 -20 0 0 79 -20 0 0 76 -4 0 0 13 -14 0 0 71 -17 0 0 167 -24 0 0 169 -24 0 0 168 -24 0 0 69 -24 0 0 12 -70 0 0 26 -27 0 0 67 -19 0 0 162 -22 0 0 164 -22 0 0 159 -22 0 0 165 -18 0 0 163 -22 0 0 161 -22 0 0 160 -22 0 0 65 -22 0 0
EndChar
StartChar: z
Encoding: 122 122 90
Width: 500
Flags: W
HStem: 0 73<31 457> 451 73<52 443>
AnchorPoint: "above" 250 538 basechar 0
Fore
443 524 m 1
 443 450 l 1
 132 73 l 1
 457 73 l 1
 457 0 l 1
 31 0 l 1
 31 75 l 1
 344 451 l 1
 52 451 l 1
 52 524 l 1
 443 524 l 1
EndSplineSet
EndChar
StartChar: braceleft
Encoding: 123 123 91
Width: 334
Flags: W
HStem: -212 65<195.5 276 230 276> 664 65<195.5 276 230 276>
VStem: 121 77<-81 142.5 416 639.5>
Fore
276 729 m 1
 276 664 l 1
 261 664 l 2
 212 664 198 649 198 597 c 2
 198 416 l 2
 198 324 177 283 116 259 c 1
 172 233 198 184 198 101 c 2
 198 -80 l 2
 198 -132 212 -147 261 -147 c 2
 276 -147 l 1
 276 -212 l 1
 230 -212 l 2
 161 -212 121 -164 121 -81 c 2
 121 86 l 2
 121 178 102 212 43 224 c 1
 43 293 l 1
 102 305 121 338 121 431 c 2
 121 598 l 2
 121 681 161 729 230 729 c 2
 276 729 l 1
EndSplineSet
EndChar
StartChar: bar
Encoding: 124 124 92
Width: 260
Flags: W
HStem: 709 20G<100 160>
VStem: 100 60<-212 729>
Fore
100 729 m 1
 160 729 l 1
 160 -212 l 1
 100 -212 l 1
 100 729 l 1
EndSplineSet
EndChar
StartChar: braceright
Encoding: 125 125 93
Width: 334
Flags: W
HStem: -212 65<29 111> 664 65<29 111>
VStem: 109 77<-122.5 101 375 598>
Fore
29 -212 m 1
 29 -147 l 1
 45 -147 l 2
 95 -147 109 -132 109 -80 c 2
 109 101 l 2
 109 184 135 233 191 258 c 1
 135 284 109 334 109 416 c 2
 109 597 l 2
 109 649 95 664 45 664 c 2
 29 664 l 1
 29 729 l 1
 76 729 l 2
 146 729 186 681 186 598 c 2
 186 431 l 2
 186 339 205 305 262 293 c 1
 262 224 l 1
 205 212 186 178 186 86 c 2
 186 -81 l 2
 186 -164 146 -212 76 -212 c 2
 29 -212 l 1
EndSplineSet
EndChar
StartChar: asciitilde
Encoding: 126 126 94
Width: 584
Flags: W
HStem: 268 68<390.5 435> 371 67<150.5 192>
VStem: 455 53<356.5 411 381.5 411>
Fore
181 371 m 0
 138 371 130 320 128 293 c 1
 75 293 l 1
 80 387 118 438 183 438 c 0
 201 438 220 432 237 422 c 2
 354 353 l 2
 374 341 390 336 404 336 c 0
 440 336 455 357 455 406 c 0
 455 408 455 409 455 411 c 1
 508 411 l 1
 508 395 l 2
 508 318 467 268 403 268 c 0
 378 268 348 278 322 294 c 2
 224 357 l 2
 214 363 191 371 181 371 c 0
EndSplineSet
EndChar
StartChar: exclamdown
Encoding: 161 161 96
Width: 333
Flags: W
HStem: 504 20G<121 205>
VStem: 121 84<420 524>
Fore
122 -205 m 1
 122 133 l 1
 144 356 l 1
 183 356 l 1
 205 133 l 1
 205 -205 l 1
 122 -205 l 1
121 420 m 1
 121 524 l 1
 205 524 l 1
 205 420 l 1
 121 420 l 1
EndSplineSet
EndChar
StartChar: cent
Encoding: 162 162 97
Width: 556
Flags: W
VStem: 52 87<173.5 334.5> 270 42<-120 -22 53 462 538 628>
Fore
312 462 m 1
 312 53 l 1
 376 60 414 101 426 180 c 1
 510 180 l 1
 503 60 428 -17 312 -23 c 1
 312 -120 l 1
 270 -120 l 1
 270 -22 l 1
 135 -10 52 94 52 253 c 0
 52 416 135 524 270 538 c 1
 270 628 l 1
 312 628 l 1
 312 539 l 1
 429 531 498 462 504 348 c 1
 420 348 l 1
 413 415 373 457 312 462 c 1
270 55 m 1
 270 461 l 1
 184 445 139 374 139 253 c 0
 139 140 187 68 270 55 c 1
EndSplineSet
EndChar
StartChar: sterling
Encoding: 163 163 98
Width: 556
Flags: W
HStem: -23 92<362 430> 23 77<174.5 281> 321 55<26 136 206 366> 651 78<225 334.5>
VStem: 54 93<492 575.5> 160 85<212.5 259.5>
Fore
147 523 m 0x7c
 147 461 180 429 206 376 c 1
 366 376 l 1
 366 321 l 1
 230 321 l 1
 240 292 245 269 245 250 c 0
 245 198 217 152 127 61 c 1
 166 87 206 100 249 100 c 0x7c
 313 100 358 69 410 69 c 0
 436 69 464 79 493 99 c 1
 535 33 l 1
 495 -6 456 -23 404 -23 c 0xbc
 320 -23 265 23 192 23 c 0
 157 23 121 11 83 -14 c 1
 35 52 l 1
 127 131 160 182 160 243 c 0
 160 268 151 296 136 321 c 1
 26 321 l 1
 26 376 l 1
 107 376 l 1
 61 452 54 471 54 515 c 0
 54 636 158 729 292 729 c 0
 377 729 509 697 512 497 c 1
 424 497 l 1
 421 600 375 651 288 651 c 0
 203 651 147 600 147 523 c 0x7c
EndSplineSet
EndChar
StartChar: currency
Encoding: 164 164 99
Width: 556
Flags: W
HStem: 159 77<245.5 303.5> 445 77<245 304>
VStem: 89 79<311.5 369> 381 79<311 368.5>
Fore
485 190 m 1
 427 136 l 1
 374 189 l 1
 347 169 313 159 274 159 c 0
 241 159 206 168 180 184 c 1
 129 133 l 1
 73 190 l 1
 121 239 l 1
 101 266 89 305 89 341 c 0
 89 377 101 415 121 443 c 1
 67 498 l 1
 123 551 l 1
 178 496 l 1
 207 513 239 522 275 522 c 0
 312 522 347 512 373 494 c 1
 432 547 l 1
 489 489 l 1
 434 434 l 1
 450 409 460 373 460 341 c 0
 460 307 450 275 431 244 c 1
 485 190 l 1
274 445 m 0
 216 445 168 398 168 340 c 0
 168 283 216 236 275 236 c 0
 332 236 381 283 381 339 c 0
 381 398 334 445 274 445 c 0
EndSplineSet
EndChar
StartChar: yen
Encoding: 165 165 100
Width: 556
Flags: W
HStem: 0 21G<237 325> 175 51<65 237 325 495> 303 51<65 237 325 495> 689 20G<11 96 460 545>
VStem: 237 88<0 175 226 303>
Fore
495 354 m 1
 495 303 l 1
 325 303 l 1
 325 226 l 1
 495 226 l 1
 495 175 l 1
 325 175 l 1
 325 0 l 1
 237 0 l 1
 237 175 l 1
 65 175 l 1
 65 226 l 1
 237 226 l 1
 237 303 l 1
 65 303 l 1
 65 354 l 1
 216 354 l 1
 11 709 l 1
 96 709 l 1
 281 387 l 1
 460 709 l 1
 545 709 l 1
 344 354 l 1
 495 354 l 1
EndSplineSet
EndChar
StartChar: brokenbar
Encoding: 166 166 101
Width: 260
Flags: W
HStem: 709 20G<100 160>
VStem: 100 60<-212 189 328 729>
Fore
100 729 m 1
 160 729 l 1
 160 328 l 1
 100 328 l 1
 100 729 l 1
100 189 m 1
 160 189 l 1
 160 -212 l 1
 100 -212 l 1
 100 189 l 1
EndSplineSet
EndChar
StartChar: section
Encoding: 167 167 102
Width: 556
Flags: W
HStem: -213 77<227 316.5> -34 20G<77 162> 524 21G<380 464> 652 77<237 341>
VStem: 43 79<279.5 348> 104 90<545 610> 360 90<-93 -23.5> 380 84<524 605> 427 79<188 265>
Fore
162 -14 m 1xf2
 162 -118 223 -136 264 -136 c 0
 321 -136 360 -101 360 -50 c 0
 360 -15 344 11 305 38 c 2
 135 155 l 2
 70 200 43 247 43 312 c 0xfa
 43 378 74 423 148 462 c 1
 117 498 104 526 104 564 c 0
 104 656 185 729 289 729 c 0
 393 729 464 658 464 552 c 1
 464 524 l 1
 380 524 l 1
 380 550 l 1xf5
 380 612 342 652 283 652 c 0
 232 652 194 616 194 567 c 0
 194 538 209 518 251 490 c 2
 397 396 l 2
 478 344 506 301 506 229 c 0xf480
 506 153 469 100 397 73 c 1
 437 28 450 -2 450 -45 c 0
 450 -141 370 -213 263 -213 c 0
 191 -213 77 -183 77 -14 c 1
 162 -14 l 1xf2
188 229 m 2
 354 106 l 1
 401 131 427 168 427 208 c 0xf880
 427 249 403 286 354 320 c 2
 193 429 l 1
 141 395 122 368 122 328 c 0
 122 288 135 268 188 229 c 2
EndSplineSet
EndChar
StartChar: dieresis
Encoding: 168 168 103
Width: 333
Flags: W
Fore
134 715 m 1
 134 612 l 1
 30 612 l 1
 30 715 l 1
 134 715 l 1
296 715 m 1
 296 612 l 1
 192 612 l 1
 192 715 l 1
 296 715 l 1
EndSplineSet
EndChar
StartChar: copyright
Encoding: 169 169 104
Width: 737
Flags: W
HStem: -22 62<261.5 472> 126 62<317.5 446> 530 62<319 422.5> 680 62<263.5 474.5>
VStem: -13 68<256 465.5> 181 69<289 427> 683 68<254 466>
Fore
552 312 m 1
 541 259 517 126 375 126 c 0
 260 126 181 221 181 357 c 0
 181 497 260 592 378 592 c 0
 467 592 520 543 544 437 c 1
 473 437 l 1
 456 503 428 530 375 530 c 0
 299 530 250 463 250 358 c 0
 250 265 298 188 375 188 c 0
 431 188 468 231 481 312 c 1
 552 312 l 1
369 742 m 0
 580 742 751 571 751 361 c 0
 751 147 580 -22 364 -22 c 0
 159 -22 -13 152 -13 360 c 0
 -13 571 158 742 369 742 c 0
369 680 m 0
 196 680 55 536 55 360 c 0
 55 186 196 40 365 40 c 0
 543 40 683 182 683 361 c 0
 683 536 542 680 369 680 c 0
EndSplineSet
EndChar
StartChar: ordfeminine
Encoding: 170 170 105
Width: 370
Flags: W
HStem: 303 51<43 320> 399 52<109 176.5> 690 52<137 218.5>
VStem: 37 58<465.5 531> 243 57<469 679.5>
Fore
320 354 m 1
 320 303 l 1
 43 303 l 1
 43 354 l 1
 320 354 l 1
333 449 m 1
 333 405 l 1
 320 400 313 399 301 399 c 0
 268 399 252 411 246 442 c 1
 213 413 180 399 141 399 c 0
 77 399 37 436 37 495 c 0
 37 558 71 591 194 600 c 0
 232 603 243 611 243 633 c 2
 243 646 l 2
 243 674 219 690 176 690 c 0
 131 690 115 677 108 634 c 1
 49 634 l 1
 51 705 96 742 178 742 c 0
 259 742 300 711 300 648 c 2
 300 469 l 2
 300 454 308 446 323 446 c 0
 326 446 329 447 333 449 c 1
243 568 m 1
 187 544 95 564 95 498 c 0
 95 468 116 451 152 451 c 0
 201 451 243 482 243 517 c 2
 243 568 l 1
EndSplineSet
EndChar
StartChar: guillemotleft
Encoding: 171 171 106
Width: 556
Flags: W
Fore
98 227 m 1
 98 316 l 1
 250 438 l 1
 250 355 l 1
 144 272 l 1
 250 189 l 1
 250 106 l 1
 98 227 l 1
303 227 m 1
 303 316 l 1
 455 438 l 1
 455 355 l 1
 349 272 l 1
 455 189 l 1
 455 106 l 1
 303 227 l 1
EndSplineSet
EndChar
StartChar: logicalnot
Encoding: 172 172 107
Width: 584
Flags: W
HStem: 305 70<40 474>
VStem: 474 70<86 375>
Fore
40 375 m 1
 544 375 l 1
 544 86 l 1
 474 86 l 1
 474 305 l 1
 40 305 l 1
 40 375 l 1
EndSplineSet
EndChar
StartChar: softhyphen
Encoding: 173 173 108
Width: 333
Flags: W
HStem: 240 72<46 284>
Fore
284 312 m 1
 284 240 l 1
 46 240 l 1
 46 312 l 1
 284 312 l 1
EndSplineSet
EndChar
StartChar: registered
Encoding: 174 174 109
Width: 737
Flags: W
HStem: -22 62<261.5 472> 325 63<272 428.5> 522 63<202 455.5> 680 62<263.5 474.5>
VStem: -13 68<256 465.5> 202 70<140 585> 469 94<140 217> 476 73<432 501.5> 683 68<254 466>
Fore
495 360 m 1xfd80
 581 304 508 205 563 165 c 1
 563 140 l 1
 484 140 l 1
 475 161 468 189 469 217 c 0xfe80
 470 257 l 1
 470 305 451 325 406 325 c 2
 272 325 l 1
 272 140 l 1
 202 140 l 1
 202 585 l 1
 408 585 l 2
 503 585 549 544 549 459 c 0
 549 413 536 390 495 360 c 1xfd80
272 388 m 1
 401 388 l 2
 453 388 476 409 476 455 c 0xfd80
 476 502 454 522 401 522 c 2
 272 522 l 1
 272 388 l 1
369 742 m 0
 580 742 751 571 751 361 c 0
 751 147 580 -22 364 -22 c 0
 159 -22 -13 152 -13 360 c 0
 -13 571 158 742 369 742 c 0
369 680 m 0
 196 680 55 536 55 360 c 0
 55 186 196 40 365 40 c 0
 543 40 683 182 683 361 c 0
 683 536 542 680 369 680 c 0
EndSplineSet
EndChar
StartChar: macron
Encoding: 175 175 110
Width: 333
Flags: W
HStem: 631 70<28 302>
Fore
302 701 m 1
 302 631 l 1
 28 631 l 1
 28 701 l 1
 302 701 l 1
EndSplineSet
EndChar
StartChar: degree
Encoding: 176 176 111
Width: 606
Flags: W
HStem: 383 57<260 343.5> 629 57<261 344.5>
VStem: 151 57<493.5 576.5> 397 57<492.5 576.5>
Fore
303 686 m 0
 386 686 454 618 454 535 c 0
 454 450 386 383 301 383 c 0
 219 383 151 452 151 535 c 0
 151 618 219 686 303 686 c 0
303 629 m 0
 251 629 208 586 208 535 c 0
 208 483 251 440 301 440 c 0
 355 440 397 482 397 535 c 0
 397 587 355 629 303 629 c 0
EndSplineSet
EndChar
StartChar: plusminus
Encoding: 177 177 112
Width: 584
Flags: W
HStem: -11 70<50 534> 346 70<50 257 327 534>
VStem: 257 70<139 346 416 623>
Fore
534 416 m 1
 534 346 l 1
 327 346 l 1
 327 139 l 1
 257 139 l 1
 257 346 l 1
 50 346 l 1
 50 416 l 1
 257 416 l 1
 257 623 l 1
 327 623 l 1
 327 416 l 1
 534 416 l 1
534 59 m 1
 534 -11 l 1
 50 -11 l 1
 50 59 l 1
 534 59 l 1
EndSplineSet
EndChar
StartChar: twosuperior
Encoding: 178 178 113
Width: 351
Flags: W
HStem: 284 58<19 323> 656 53<130.5 223>
VStem: 263 63<556.5 620>
Fore
178 656 m 0
 104 656 94 600 91 557 c 1
 29 557 l 1
 32 660 81 709 180 709 c 0
 266 709 326 657 326 583 c 0
 326 530 293 485 230 454 c 2
 167 422 l 2
 124 399 106 380 94 342 c 1
 323 342 l 1
 323 284 l 1
 19 284 l 1
 24 381 50 420 146 471 c 2
 204 502 l 2
 243 523 263 550 263 581 c 0
 263 624 226 656 178 656 c 0
EndSplineSet
EndChar
StartChar: threesuperior
Encoding: 179 179 114
Width: 351
Flags: W
HStem: 270 53<119 214> 656 53<122.5 212>
VStem: 245 63<564.5 626> 259 63<363.5 429.5>
Fore
169 656 m 0xe0
 103 656 88 620 88 567 c 1
 25 567 l 1
 27 661 76 709 169 709 c 0
 255 709 308 663 308 589 c 0xe0
 308 550 288 521 251 504 c 1
 299 488 322 455 322 404 c 0
 322 323 261 270 167 270 c 4
 71 270 16 322 16 412 c 1
 78 412 l 1
 81 350 109 323 169 323 c 0
 225 323 259 353 259 404 c 0xd0
 259 440 236 468 201 474 c 0
 186 476 170 476 135 476 c 1
 135 527 l 1
 221 527 245 541 245 588 c 0
 245 630 216 656 169 656 c 0xe0
EndSplineSet
EndChar
StartChar: acute
Encoding: 180 180 115
Width: 333
Flags: W
HStem: 720 20G<188 301>
Fore
188 740 m 1
 301 740 l 1
 152 592 l 1
 92 592 l 1
 188 740 l 1
EndSplineSet
EndChar
StartChar: mu
Encoding: 181 181 116
Width: 556
Flags: W
HStem: -23 73<220 298.5> 504 20G<65 148 398 481>
VStem: 65 83<-220 524> 398 83<74.5 524>
Fore
544 49 m 1
 544 -14 l 1
 518 -21 505 -23 487 -23 c 0
 430 -23 403 3 401 60 c 1
 362 5 306 -23 238 -23 c 0
 202 -23 173 -15 148 3 c 1
 148 -220 l 1
 65 -220 l 1
 65 524 l 1
 148 524 l 1
 148 153 l 2
 148 90 190 50 255 50 c 0
 342 50 398 120 398 227 c 2
 398 524 l 1
 481 524 l 1
 481 88 l 2
 481 61 497 47 526 47 c 0
 530 47 534 47 544 49 c 1
EndSplineSet
EndChar
StartChar: paragraph
Encoding: 182 182 117
Width: 537
Flags: W
HStem: 665 64<272 522>
VStem: 48 271<429.5 665> 255 64<-177 259> 401 64<-177 665>
Fore
255 259 m 1xb0
 120 266 48 370 48 489 c 0
 48 624 146 729 272 729 c 2
 522 729 l 1
 522 665 l 1
 465 665 l 1
 465 -177 l 1
 401 -177 l 1
 401 665 l 1
 319 665 l 1xd0
 319 -177 l 1
 255 -177 l 1
 255 259 l 1xb0
EndSplineSet
EndChar
StartChar: periodcentered
Encoding: 183 183 118
Width: 278
Flags: W
Fore
211 427 m 1
 211 302 l 1
 87 302 l 1
 87 427 l 1
 211 427 l 1
EndSplineSet
EndChar
StartChar: cedilla
Encoding: 184 184 119
Width: 333
Flags: W
HStem: -214 41<139.5 202> -91 91<160 180.5>
VStem: 212 75<-149.5 -99.5>
Fore
60 -140 m 1
 99 -157 121 -173 158 -173 c 0
 189 -173 212 -154 212 -128 c 0
 212 -105 195 -91 166 -91 c 0
 154 -91 147 -93 135 -99 c 1
 123 -92 l 1
 165 0 l 1
 203 0 l 1
 180 -56 l 1
 193 -54 200 -54 208 -54 c 0
 258 -54 287 -78 287 -121 c 0
 287 -178 240 -214 164 -214 c 0
 125 -214 101 -207 39 -180 c 1
 60 -140 l 1
EndSplineSet
EndChar
StartChar: onesuperior
Encoding: 185 185 120
Width: 351
Flags: W
HStem: 689 20G<179 222>
VStem: 160 62<284 709>
Fore
160 580 m 1
 61 580 l 1
 61 626 l 1
 76 627 l 2
 148 634 162 645 179 709 c 1
 222 709 l 1
 222 284 l 1
 160 284 l 1
 160 580 l 1
EndSplineSet
EndChar
StartChar: ordmasculine
Encoding: 186 186 121
Width: 365
Flags: W
HStem: 303 51<51 314> 399 52<137 226.5> 690 52<137 227.5>
VStem: 40 58<516.5 625> 266 58<515 624>
Fore
314 354 m 1
 314 303 l 1
 51 303 l 1
 51 354 l 1
 314 354 l 1
182 742 m 0
 273 742 324 680 324 568 c 0
 324 462 271 399 182 399 c 0
 92 399 40 462 40 571 c 0
 40 679 92 742 182 742 c 0
182 690 m 0
 130 690 98 645 98 571 c 0
 98 496 130 451 182 451 c 0
 234 451 266 496 266 569 c 0
 266 645 235 690 182 690 c 0
EndSplineSet
EndChar
StartChar: guillemotright
Encoding: 187 187 122
Width: 556
Flags: W
Fore
252 317 m 1
 252 228 l 1
 98 106 l 1
 98 189 l 1
 206 272 l 1
 98 355 l 1
 98 438 l 1
 252 317 l 1
451 317 m 1
 451 228 l 1
 297 106 l 1
 297 189 l 1
 405 272 l 1
 297 355 l 1
 297 438 l 1
 451 317 l 1
EndSplineSet
KernsSLIFO: 57 -133 3 0 55 -66 3 0 54 -93 3 0 52 -126 3 0 132 -50 3 0 131 -50 3 0 128 -50 3 0 133 -54 3 0 33 -50 3 0
EndChar
StartChar: onequarter
Encoding: 188 188 123
Width: 869
Flags: W
HStem: -20 21G<191 249> 100 53<532 720 782 849> 689 20G<179 222 643 701>
VStem: 160 62<284 709> 720 62<0 100 153 425>
Fore
160 580 m 1
 61 580 l 1
 61 626 l 1
 76 627 l 2
 148 634 162 645 179 709 c 1
 222 709 l 1
 222 284 l 1
 160 284 l 1
 160 580 l 1
643 709 m 1
 701 709 l 1
 249 -20 l 1
 191 -20 l 1
 643 709 l 1
720 100 m 1
 532 100 l 1
 532 159 l 1
 736 425 l 1
 782 425 l 1
 782 153 l 1
 849 153 l 1
 849 100 l 1
 782 100 l 1
 782 0 l 1
 720 0 l 1
 720 100 l 1
720 153 m 1
 720 323 l 1
 591 153 l 1
 720 153 l 1
EndSplineSet
EndChar
StartChar: onehalf
Encoding: 189 189 124
Width: 869
Flags: W
HStem: 0 58<537 841> 372 53<648.5 741> 689 20G<179 222 619 677>
VStem: 160 62<284 709> 781 63<272.5 336>
Fore
160 580 m 1
 61 580 l 1
 61 626 l 1
 76 627 l 2
 148 634 162 645 179 709 c 1
 222 709 l 1
 222 284 l 1
 160 284 l 1
 160 580 l 1
619 709 m 1
 677 709 l 1
 225 -20 l 1
 167 -20 l 1
 619 709 l 1
696 372 m 0
 622 372 612 316 609 273 c 1
 547 273 l 1
 550 376 599 425 698 425 c 0
 784 425 844 373 844 299 c 0
 844 246 811 201 748 170 c 2
 685 138 l 2
 642 115 624 96 612 58 c 1
 841 58 l 1
 841 0 l 1
 537 0 l 1
 542 97 568 136 664 187 c 2
 722 218 l 2
 761 239 781 266 781 297 c 0
 781 340 744 372 696 372 c 0
EndSplineSet
EndChar
StartChar: threequarters
Encoding: 190 190 125
Width: 869
Flags: W
HStem: -20 21G<201 259> 100 53<532 720 782 849> 270 53<119 214> 656 53<122.5 212>
VStem: 245 63<564.5 626> 259 63<363.5 429.5> 720 62<0 100 153 425>
Fore
169 656 m 0xfa
 103 656 88 620 88 567 c 1
 25 567 l 1
 27 661 76 709 169 709 c 0
 255 709 308 663 308 589 c 0xfa
 308 550 288 521 251 504 c 1
 299 488 322 455 322 404 c 0
 322 323 261 270 167 270 c 0
 71 270 16 322 16 412 c 1
 78 412 l 1
 81 350 109 323 169 323 c 0
 225 323 259 353 259 404 c 0xf6
 259 440 236 468 201 474 c 0
 186 476 170 476 135 476 c 1
 135 527 l 1
 221 527 245 541 245 588 c 0
 245 630 216 656 169 656 c 0xfa
653 709 m 1
 711 709 l 1
 259 -20 l 1xf6
 201 -20 l 1
 653 709 l 1
720 100 m 1
 532 100 l 1
 532 159 l 1
 736 425 l 1
 782 425 l 1
 782 153 l 1
 849 153 l 1
 849 100 l 1
 782 100 l 1
 782 0 l 1
 720 0 l 1
 720 100 l 1
720 153 m 1
 720 323 l 1
 591 153 l 1
 720 153 l 1
EndSplineSet
EndChar
StartChar: questiondown
Encoding: 191 191 126
Width: 611
Flags: W
HStem: -217 78<243.5 381> 504 20G<275 365>
VStem: 95 90<-83.5 58> 275 90<202 325 420 524>
Fore
95 -25 m 0
 95 141 275 159 275 278 c 2
 275 325 l 1
 365 325 l 1
 365 270 l 2
 365 134 185 103 185 -25 c 0
 185 -93 237 -139 314 -139 c 0
 418 -139 443 -72 443 17 c 1
 528 17 l 1
 528 -137 453 -217 309 -217 c 0
 178 -217 95 -142 95 -25 c 0
275 420 m 1
 275 524 l 1
 365 524 l 1
 365 420 l 1
 275 420 l 1
EndSplineSet
EndChar
StartChar: Agrave
Encoding: 192 192 127
Width: 667
Flags: HW
HStem: 0 21<17 116 549 653> 219 78<193 474> 709 20<277 397>
Back
474 219 m 1
 193 219 l 1
 116 0 l 1
 17 0 l 1
 277 729 l 1
 397 729 l 1
 653 0 l 1
 549 0 l 1
 474 219 l 1
448 297 m 1
 336 629 l 1
 216 297 l 1
 448 297 l 1
304 939 m 1
 400 791 l 1
 340 791 l 1
 191 939 l 1
 304 939 l 1
EndSplineSet
Refer: 1870 715 N 1 0 0 1 167 199 2
Refer: 33 65 N 1 0 0 1 0 0 3
KernsSLIFO: 14 5 0 0 12 5 0 0 57 -99 0 0 55 -51 0 0 54 -75 0 0 53 -37 0 0 52 -93 0 0 49 -32 0 0 47 -33 0 0 39 -35 0 0 35 -36 0 0
EndChar
StartChar: Aacute
Encoding: 193 193 128
Width: 667
Flags: HW
HStem: 0 21<17 116 549 653> 219 78<193 474> 709 20<277 397>
Back
474 219 m 1
 193 219 l 1
 116 0 l 1
 17 0 l 1
 277 729 l 1
 397 729 l 1
 653 0 l 1
 549 0 l 1
 474 219 l 1
448 297 m 1
 336 629 l 1
 216 297 l 1
 448 297 l 1
370 939 m 1
 483 939 l 1
 334 791 l 1
 274 791 l 1
 370 939 l 1
EndSplineSet
Refer: 1869 714 N 1 0 0 1 182 199 2
Refer: 33 65 N 1 0 0 1 0 0 3
KernsSLIFO: 89 -34 0 0 87 -21 0 0 86 -31 0 0 85 -12 0 0 84 -16 0 0 2147 -65 0 0 81 -8 0 0 14 5 0 0 79 -13 0 0 13 -3 0 0 2167 -40 0 0 106 -44 0 0 71 -10 0 0 69 -16 0 0 68 -8 0 0 12 5 0 0 67 -11 0 0 66 4 0 0 65 -4 0 0 57 -99 0 0 55 -51 0 0 54 -75 0 0 53 -37 0 0 52 -93 0 0 49 -32 0 0 47 -33 0 0 39 -35 0 0 35 -36 0 0
EndChar
StartChar: Acircumflex
Encoding: 194 194 129
Width: 667
Flags: W
HStem: 0 21<17 116 549 653> 219 78<193 474> 709 20<277 397> 920 20<288 383>
Back
474 219 m 1
 193 219 l 1
 116 0 l 1
 17 0 l 1
 277 729 l 1
 397 729 l 1
 653 0 l 1
 549 0 l 1
 474 219 l 1
448 297 m 1
 336 629 l 1
 216 297 l 1
 448 297 l 1
288 940 m 5
 383 940 l 5
 479 790 l 5
 416 790 l 5
 335 886 l 5
 256 790 l 5
 192 790 l 5
 288 940 l 5
EndSplineSet
Refer: 1867 710 N 1 0 0 1 172 199 2
Refer: 33 65 N 1 0 0 1 0 0 3
KernsSLIFO: 14 5 0 0 12 5 0 0 57 -99 0 0 55 -51 0 0 54 -75 0 0 53 -37 0 0 52 -93 0 0 49 -32 0 0 47 -33 0 0 39 -35 0 0 35 -36 0 0
EndChar
StartChar: Atilde
Encoding: 195 195 130
Width: 667
Flags: HW
HStem: 0 21<17 116 549 653> 219 78<193 474> 709 20<277 397>
Back
474 219 m 1
 193 219 l 1
 116 0 l 1
 17 0 l 1
 277 729 l 1
 397 729 l 1
 653 0 l 1
 549 0 l 1
 474 219 l 1
448 297 m 1
 336 629 l 1
 216 297 l 1
 448 297 l 1
434 916 m 1
 492 916 l 1
 482 847 452 812 403 812 c 0
 384 812 372 816 318 837 c 0
 294 846 280 850 269 850 c 0
 254 850 242 836 236 813 c 1
 178 813 l 1
 189 879 220 916 264 916 c 0
 285 916 292 914 334 897 c 0
 358 886 385 879 397 879 c 0
 415 879 426 891 434 916 c 1
EndSplineSet
Refer: 478 732 N 1 0 0 1 175 188 2
Refer: 33 65 N 1 0 0 1 0 0 3
KernsSLIFO: 14 5 0 0 12 5 0 0 57 -99 0 0 55 -51 0 0 54 -75 0 0 53 -37 0 0 52 -93 0 0 49 -32 0 0 47 -33 0 0 39 -35 0 0 35 -36 0 0
EndChar
StartChar: Adieresis
Encoding: 196 196 131
Width: 667
Flags: W
HStem: 0 21<17 116 549 653> 219 78<193 474> 709 20<277 397>
Back
474 219 m 1
 193 219 l 1
 116 0 l 1
 17 0 l 1
 277 729 l 1
 397 729 l 1
 653 0 l 1
 549 0 l 1
 474 219 l 1
448 297 m 1
 336 629 l 1
 216 297 l 1
 448 297 l 1
306 914 m 1
 306 811 l 1
 202 811 l 1
 202 914 l 1
 306 914 l 1
468 914 m 1
 468 811 l 1
 364 811 l 1
 364 914 l 1
 468 914 l 1
EndSplineSet
Refer: 103 168 N 1 0 0 1 174 189 2
Refer: 33 65 N 1 0 0 1 0 0 3
KernsSLIFO: 89 -34 0 0 87 -21 0 0 86 -31 0 0 85 -12 0 0 84 -16 0 0 2147 -65 0 0 2151 -56 0 0 81 -8 0 0 14 5 0 0 79 -13 0 0 13 -3 0 0 2167 -40 0 0 106 -44 0 0 71 -10 0 0 68 -8 0 0 12 5 0 0 67 -11 0 0 66 4 0 0 65 -4 0 0 57 -99 0 0 55 -51 0 0 54 -75 0 0 53 -37 0 0 52 -93 0 0 49 -32 0 0 47 -33 0 0 39 -35 0 0 35 -36 0 0
EndChar
StartChar: Aring
Encoding: 197 197 132
Width: 667
Flags: W
HStem: 0 21<17 116 549 653> 219 78<193 474> 709 20<277 397> 777 44<312 360> 908 44<312 360.5>
VStem: 248 44<841 888.5> 380 44<840 888.5>
Back
474 219 m 1
 193 219 l 1
 116 0 l 1
 17 0 l 1
 277 729 l 1
 397 729 l 1
 653 0 l 1
 549 0 l 1
 474 219 l 1
448 297 m 1
 336 629 l 1
 216 297 l 1
 448 297 l 1
335 953 m 0
 384 953 423 914 423 865 c 0
 423 817 383 778 335 778 c 0
 287 778 247 818 247 866 c 0
 247 913 287 953 335 953 c 0
335 909 m 0
 311 909 291 889 291 866 c 0
 291 842 311 822 335 822 c 0
 359 822 379 842 379 865 c 0
 379 890 360 909 335 909 c 0
EndSplineSet
Refer: 476 730 N 1 0 0 1 169 198 2
Refer: 33 65 N 1 0 0 1 0 0 3
KernsSLIFO: 89 -34 0 0 87 -21 0 0 86 -31 0 0 85 -12 0 0 84 -16 0 0 2147 -65 0 0 2151 -56 0 0 81 -8 0 0 14 5 0 0 79 -13 0 0 13 -3 0 0 2167 -40 0 0 106 -44 0 0 71 -10 0 0 69 -16 0 0 68 -8 0 0 12 5 0 0 67 -11 0 0 66 4 0 0 65 -4 0 0 57 -99 0 0 55 -51 0 0 54 -75 0 0 53 -37 0 0 52 -93 0 0 49 -32 0 0 47 -33 0 0 39 -35 0 0 35 -36 0 0
EndChar
StartChar: AE
Encoding: 198 198 133
Width: 1000
Flags: W
HStem: 0 82<468 950> 214 82<199 468> 332 82<561 913> 647 82<310 932>
VStem: 468 93<0 647>
AnchorPoint: "below" 618 0 basechar 0
AnchorPoint: "above" 618 737 basechar 0
Fore
468 214 m 1
 199 214 l 1
 114 0 l 1
 11 0 l 1
 310 729 l 1
 932 729 l 1
 932 647 l 1
 561 647 l 1
 561 414 l 1
 913 414 l 1
 913 332 l 1
 561 332 l 1
 561 82 l 1
 950 82 l 1
 950 0 l 1
 468 0 l 1
 468 214 l 1
468 296 m 1
 468 647 l 1
 368 647 l 1
 230 296 l 1
 468 296 l 1
EndSplineSet
EndChar
StartChar: Ccedilla
Encoding: 199 199 134
Width: 722
Flags: W
HStem: -214 41<324.5 388> -91 37<346 419> -23 81<305.5 467> 659 82<248 461>
VStem: 48 93<265.5 450.5> 398 75<-149.5 -99.5>
Fore
378 58 m 0
 500 58 558 125 581 266 c 1
 677 266 l 1
 655 75 555 -23 379 -23 c 1
 366 -56 l 1
 379 -54 386 -54 394 -54 c 0
 444 -54 473 -78 473 -121 c 0
 473 -178 426 -214 350 -214 c 0
 312 -214 286 -207 225 -180 c 1
 246 -140 l 1
 278 -154 305 -173 344 -173 c 0
 375 -173 398 -154 398 -128 c 0
 398 -105 381 -91 352 -91 c 0
 340 -91 333 -93 321 -99 c 1
 310 -92 l 1
 341 -23 l 1
 265 -12 235 -1 192 29 c 0
 101 94 48 214 48 356 c 0
 48 508 115 741 381 741 c 0
 541 741 633 663 662 503 c 1
 567 503 l 1
 547 602 492 659 371 659 c 0
 229 659 141 544 141 357 c 0
 141 174 233 58 378 58 c 0
EndSplineSet
KernsSLIFO: 33 -31 0 0
EndChar
StartChar: Egrave
Encoding: 200 200 135
Width: 667
Flags: HW
HStem: 0 82<90 613> 332 82<183 580> 647 82<90 595>
VStem: 90 93<0 729>
Back
183 332 m 1
 183 82 l 1
 613 82 l 1
 613 0 l 1
 90 0 l 1
 90 729 l 1
 595 729 l 1
 595 647 l 1
 183 647 l 1
 183 414 l 1
 580 414 l 1
 580 332 l 1
 183 332 l 1
320 939 m 1
 416 791 l 1
 356 791 l 1
 207 939 l 1
 320 939 l 1
EndSplineSet
Refer: 1870 715 N 1 0 0 1 184 199 2
Refer: 37 69 N 1 0 0 1 0 0 3
EndChar
StartChar: Eacute
Encoding: 201 201 136
Width: 667
Flags: HW
HStem: 0 82<90 613> 332 82<183 580> 647 82<90 595>
VStem: 90 93<0 729>
Back
183 332 m 1
 183 82 l 1
 613 82 l 1
 613 0 l 1
 90 0 l 1
 90 729 l 1
 595 729 l 1
 595 647 l 1
 183 647 l 1
 183 414 l 1
 580 414 l 1
 580 332 l 1
 183 332 l 1
366 939 m 1
 479 939 l 1
 330 791 l 1
 270 791 l 1
 366 939 l 1
EndSplineSet
Refer: 1869 714 S 1 0 0 1 178 199 2
Refer: 37 69 N 1 0 0 1 0 0 3
EndChar
StartChar: Ecircumflex
Encoding: 202 202 137
Width: 667
Flags: W
HStem: 0 82<90 613> 332 82<183 580> 647 82<90 595> 919 20<297 392>
VStem: 90 93<0 729>
Back
183 332 m 1
 183 82 l 1
 613 82 l 1
 613 0 l 1
 90 0 l 1
 90 729 l 1
 595 729 l 1
 595 647 l 1
 183 647 l 1
 183 414 l 1
 580 414 l 1
 580 332 l 1
 183 332 l 1
297 940 m 1
 392 940 l 1
 488 790 l 1
 425 790 l 1
 344 886 l 1
 265 790 l 1
 201 790 l 1
 297 940 l 1
EndSplineSet
Refer: 1867 710 S 1 0 0 1 181 198 2
Refer: 37 69 N 1 0 0 1 0 0 3
EndChar
StartChar: Edieresis
Encoding: 203 203 138
Width: 667
Flags: W
HStem: 0 82<90 613> 332 82<183 580> 647 82<90 595>
VStem: 90 93<0 729>
Back
183 332 m 1
 183 82 l 1
 613 82 l 1
 613 0 l 1
 90 0 l 1
 90 729 l 1
 595 729 l 1
 595 647 l 1
 183 647 l 1
 183 414 l 1
 580 414 l 1
 580 332 l 1
 183 332 l 1
315 914 m 1
 315 811 l 1
 211 811 l 1
 211 914 l 1
 315 914 l 1
477 914 m 1
 477 811 l 1
 373 811 l 1
 373 914 l 1
 477 914 l 1
EndSplineSet
Refer: 103 168 N 1 0 0 1 180 189 2
Refer: 37 69 N 1 0 0 1 0 0 3
EndChar
StartChar: Igrave
Encoding: 204 204 139
Width: 278
Flags: HW
HStem: 0 21<100 194> 709 20<100 194>
VStem: 100 94<0 729>
Back
193 729 m 1
 193 0 l 1
 100 0 l 1
 100 729 l 1
 193 729 l 1
114 939 m 1
 210 791 l 1
 150 791 l 1
 1 939 l 1
 114 939 l 1
EndSplineSet
Refer: 1870 715 S 1 0 0 1 -22 199 2
Refer: 41 73 N 1 0 0 1 0 0 3
EndChar
StartChar: Iacute
Encoding: 205 205 140
Width: 278
Flags: HW
HStem: 0 21<100 194> 709 20<100 194>
VStem: 100 94<0 729>
Back
193 729 m 1
 193 0 l 1
 100 0 l 1
 100 729 l 1
 193 729 l 1
167 939 m 1
 280 939 l 1
 131 791 l 1
 71 791 l 1
 167 939 l 1
EndSplineSet
Refer: 1869 714 N 1 0 0 1 -21 199 2
Refer: 41 73 N 1 0 0 1 0 0 3
EndChar
StartChar: Icircumflex
Encoding: 206 206 141
Width: 278
Flags: HW
HStem: 0 21<100 194> 709 20<100 194>
VStem: 100 94<0 729>
Back
193 729 m 1
 193 0 l 1
 100 0 l 1
 100 729 l 1
 193 729 l 1
95 940 m 1
 190 940 l 1
 286 790 l 1
 223 790 l 1
 142 886 l 1
 63 790 l 1
 -1 790 l 1
 95 940 l 1
EndSplineSet
Refer: 1867 710 S 1 0 0 1 -22 199 2
Refer: 41 73 N 1 0 0 1 0 0 3
EndChar
StartChar: Idieresis
Encoding: 207 207 142
Width: 278
Flags: W
HStem: 0 21<100 194> 709 20<100 194>
VStem: 100 94<0 729>
Back
193 729 m 1
 193 0 l 1
 100 0 l 1
 100 729 l 1
 193 729 l 1
113 907 m 1
 113 804 l 1
 9 804 l 1
 9 907 l 1
 113 907 l 1
275 907 m 1
 275 804 l 1
 171 804 l 1
 171 907 l 1
 275 907 l 1
EndSplineSet
Refer: 103 168 N 1 0 0 1 -16 189 2
Refer: 41 73 N 1 0 0 1 0 0 3
EndChar
StartChar: Eth
Encoding: 208 208 143
Width: 722
Flags: W
HStem: 0 82<89 463> 339 67<20 89 182 353> 647 82<89 463>
VStem: 89 93<0 339 406 729> 574 93<251.5 478>
Fore
89 339 m 5
 20 339 l 5
 20 406 l 5
 89 406 l 5
 89 729 l 1
 371 729 l 2
 555 729 667 591 667 365 c 0
 667 138 555 0 371 0 c 2
 89 0 l 1
 89 339 l 5
182 339 m 5
 182 82 l 1
 355 82 l 2
 498 82 574 179 574 365 c 0
 574 550 498 647 355 647 c 2
 182 647 l 1
 182 406 l 5
 353 406 l 5
 353 339 l 5
 182 339 l 5
EndSplineSet
EndChar
StartChar: Ntilde
Encoding: 209 209 144
Width: 722
Flags: HW
HStem: 0 21<76 164 541 646> 709 20<76 177 558 646>
VStem: 76 88<0 729> 558 88<0 729>
Back
646 729 m 1
 646 0 l 1
 541 0 l 1
 164 591 l 1
 164 0 l 1
 76 0 l 1
 76 729 l 1
 177 729 l 1
 558 133 l 1
 558 729 l 1
 646 729 l 1
467 916 m 1
 525 916 l 1
 515 847 485 812 436 812 c 0
 417 812 405 816 351 837 c 0
 327 846 313 850 302 850 c 0
 287 850 275 836 269 813 c 1
 211 813 l 1
 222 879 253 916 297 916 c 0
 318 916 325 914 367 897 c 0
 391 886 418 879 430 879 c 0
 448 879 459 891 467 916 c 1
EndSplineSet
Refer: 478 732 N 1 0 0 1 199 188 2
Refer: 46 78 N 1 0 0 1 0 0 3
EndChar
StartChar: Ograve
Encoding: 210 210 145
Width: 778
Flags: HW
HStem: -23 82<285 499> 659 82<284.5 496>
VStem: 38 93<245 473> 649 93<248 470.5>
Back
389 741 m 0
 603 741 742 588 742 353 c 0
 742 234 695 121 616 54 c 0
 557 4 478 -23 390 -23 c 0
 180 -23 38 131 38 359 c 128
 38 587 180 741 389 741 c 0
389 659 m 0
 235 659 131 539 131 359 c 128
 131 179 235 59 390 59 c 0
 544 59 649 179 649 355 c 0
 649 539 547 659 389 659 c 0
359 939 m 1
 455 791 l 1
 395 791 l 1
 246 939 l 1
 359 939 l 1
EndSplineSet
Refer: 1870 715 S 1 0 0 1 224 199 2
Refer: 47 79 N 1 0 0 1 0 0 3
KernsSLIFO: 57 -59 0 0 54 -45 0 0 52 -42 0 0
EndChar
StartChar: Oacute
Encoding: 211 211 146
Width: 778
Flags: HW
HStem: -23 82<285 499> 659 82<284.5 496>
VStem: 38 93<245 473> 649 93<248 470.5>
Back
389 741 m 0
 603 741 742 588 742 353 c 0
 742 234 695 121 616 54 c 0
 557 4 478 -23 390 -23 c 0
 180 -23 38 131 38 359 c 128
 38 587 180 741 389 741 c 0
389 659 m 0
 235 659 131 539 131 359 c 128
 131 179 235 59 390 59 c 0
 544 59 649 179 649 355 c 0
 649 539 547 659 389 659 c 0
418 939 m 1
 531 939 l 1
 382 791 l 1
 322 791 l 1
 418 939 l 1
EndSplineSet
Refer: 1869 714 S 1 0 0 1 229 199 2
Refer: 47 79 N 1 0 0 1 0 0 3
KernsSLIFO: 57 -59 0 0 55 -23 0 0 54 -45 0 0 52 -42 0 0 33 -35 0 0
EndChar
StartChar: Ocircumflex
Encoding: 212 212 147
Width: 778
Flags: W
HStem: -23 82<285 499> 659 82<284.5 496> 919 20<342 437>
VStem: 38 93<245 473> 649 93<248 470.5>
Back
389 741 m 0
 603 741 742 588 742 353 c 0
 742 234 695 121 616 54 c 0
 557 4 478 -23 390 -23 c 0
 180 -23 38 131 38 359 c 128
 38 587 180 741 389 741 c 0
389 659 m 0
 235 659 131 539 131 359 c 128
 131 179 235 59 390 59 c 0
 544 59 649 179 649 355 c 0
 649 539 547 659 389 659 c 0
343 940 m 1
 438 940 l 1
 534 790 l 1
 471 790 l 1
 390 886 l 1
 311 790 l 1
 247 790 l 1
 343 940 l 1
EndSplineSet
Refer: 1867 710 S 1 0 0 1 226 198 2
Refer: 47 79 N 1 0 0 1 0 0 3
KernsSLIFO: 57 -59 0 0 54 -45 0 0 52 -42 0 0
EndChar
StartChar: Otilde
Encoding: 213 213 148
Width: 778
Flags: W
HStem: -23 82<285 499> 659 82<284.5 496> 801 67<430.5 481.5> 839 66<296 342.5>
VStem: 38 93<245 473> 649 93<248 470.5>
Back
389 741 m 0
 603 741 742 588 742 353 c 0
 742 234 695 121 616 54 c 0
 557 4 478 -23 390 -23 c 0
 180 -23 38 131 38 359 c 128
 38 587 180 741 389 741 c 0
389 659 m 0
 235 659 131 539 131 359 c 128
 131 179 235 59 390 59 c 0
 544 59 649 179 649 355 c 0
 649 539 547 659 389 659 c 0
492 916 m 1
 550 916 l 1
 540 847 510 812 461 812 c 0
 442 812 430 816 376 837 c 0
 352 846 338 850 327 850 c 0
 312 850 300 836 294 813 c 1
 236 813 l 1
 247 879 278 916 322 916 c 0
 343 916 350 914 392 897 c 0
 416 886 443 879 455 879 c 0
 473 879 484 891 492 916 c 1
EndSplineSet
Refer: 478 732 N 1 0 0 1 227 188 2
Refer: 47 79 N 1 0 0 1 0 0 3
KernsSLIFO: 57 -59 0 0 54 -45 0 0 52 -42 0 0
EndChar
StartChar: Odieresis
Encoding: 214 214 149
Width: 778
Flags: W
HStem: -23 82<285 499> 659 82<284.5 496>
VStem: 38 93<245 473> 649 93<248 470.5>
Back
389 741 m 0
 603 741 742 588 742 353 c 0
 742 234 695 121 616 54 c 0
 557 4 478 -23 390 -23 c 0
 180 -23 38 131 38 359 c 128
 38 587 180 741 389 741 c 0
389 659 m 0
 235 659 131 539 131 359 c 128
 131 179 235 59 390 59 c 0
 544 59 649 179 649 355 c 0
 649 539 547 659 389 659 c 0
361 914 m 1
 361 811 l 1
 257 811 l 1
 257 914 l 1
 361 914 l 1
523 914 m 1
 523 811 l 1
 419 811 l 1
 419 914 l 1
 523 914 l 1
EndSplineSet
Refer: 103 168 N 1 0 0 1 226 189 2
Refer: 47 79 N 1 0 0 1 0 0 3
KernsSLIFO: 57 -59 0 0 56 -46 0 0 55 -23 0 0 54 -45 0 0 52 -42 0 0 33 -35 0 0
EndChar
StartChar: multiply
Encoding: 215 215 150
Width: 584
Flags: W
Fore
438 427 m 1
 487 377 l 1
 341 231 l 1
 488 84 l 1
 438 34 l 1
 291 181 l 1
 145 35 l 1
 95 84 l 1
 242 231 l 1
 96 377 l 1
 145 426 l 1
 291 281 l 1
 438 427 l 1
EndSplineSet
EndChar
StartChar: Oslash
Encoding: 216 216 151
Width: 778
Flags: W
HStem: -23 82<338.5 492> 659 82<282 432.5>
VStem: 35 93<311.5 473.5> 646 93<244.5 409>
AnchorPoint: "above" 390 729 basechar 0
Fore
30 19 m 1
 111 108 l 1
 61 178 35 263 35 360 c 0
 35 587 177 741 387 741 c 0
 478 741 555 714 617 660 c 1
 704 755 l 1
 744 719 l 1
 655 622 l 1
 709 554 739 460 739 358 c 0
 739 131 597 -23 387 -23 c 0
 290 -23 212 6 146 67 c 1
 69 -17 l 1
 30 19 l 1
174 176 m 1
 558 595 l 1
 510 637 452 659 387 659 c 0
 232 659 128 539 128 360 c 0
 128 291 144 228 174 176 c 1
593 554 m 1
 206 133 l 1
 255 84 316 59 387 59 c 0
 542 59 646 179 646 358 c 0
 646 433 628 500 593 554 c 1
EndSplineSet
KernsSLIFO: 33 -33 0 0
EndChar
StartChar: Ugrave
Encoding: 217 217 152
Width: 722
Flags: HW
HStem: -23 82<277.5 449.5> 709 20<85 178 552 645>
VStem: 85 93<143 729> 552 93<144 729>
Back
552 729 m 1
 645 729 l 1
 645 217 l 2
 645 71 535 -23 364 -23 c 0
 191 -23 85 69 85 217 c 2
 85 729 l 1
 178 729 l 1
 178 217 l 2
 178 106.872 257.273 59 364 59 c 0
 481 59 552 119 552 217 c 2
 552 729 l 1
334 939 m 1
 430 791 l 1
 370 791 l 1
 221 939 l 1
 334 939 l 1
EndSplineSet
Refer: 1870 715 S 1 0 0 1 199 199 2
Refer: 53 85 N 1 0 0 1 0 0 3
KernsSLIFO: 33 -36 0 0
EndChar
StartChar: Uacute
Encoding: 218 218 153
Width: 722
Flags: HW
HStem: -23 82<277.5 449.5> 709 20<85 178 552 645>
VStem: 85 93<143 729> 552 93<144 729>
Back
552 729 m 1
 645 729 l 1
 645 217 l 2
 645 71 535 -23 364 -23 c 0
 191 -23 85 69 85 217 c 2
 85 729 l 1
 178 729 l 1
 178 217 l 2
 178 106.872 257.273 59 364 59 c 0
 481 59 552 119 552 217 c 2
 552 729 l 1
387 939 m 1
 500 939 l 1
 351 791 l 1
 291 791 l 1
 387 939 l 1
EndSplineSet
Refer: 1869 714 S 1 0 0 1 199 199 2
Refer: 53 85 N 1 0 0 1 0 0 3
KernsSLIFO: 82 -4 0 0 14 -25 0 0 80 3 0 0 78 -4 0 0 77 -4 0 0 12 -27 0 0 33 -36 0 0
EndChar
StartChar: Ucircumflex
Encoding: 219 219 154
Width: 722
Flags: HW
HStem: -23 82<277.5 449.5> 709 20<85 178 552 645>
VStem: 85 93<143 729> 552 93<144 729>
Back
552 729 m 1
 645 729 l 1
 645 217 l 2
 645 71 535 -23 364 -23 c 0
 191 -23 85 69 85 217 c 2
 85 729 l 1
 178 729 l 1
 178 217 l 2
 178 106.872 257.273 59 364 59 c 0
 481 59 552 119 552 217 c 2
 552 729 l 1
318 940 m 1
 413 940 l 1
 509 790 l 1
 446 790 l 1
 365 886 l 1
 286 790 l 1
 222 790 l 1
 318 940 l 1
EndSplineSet
Refer: 1867 710 S 1 0 0 1 202 198 2
Refer: 53 85 N 1 0 0 1 0 0 3
KernsSLIFO: 33 -36 0 0
EndChar
StartChar: Udieresis
Encoding: 220 220 155
Width: 722
Flags: W
HStem: -23 82<277.5 449.5> 709 20<85 178 552 645>
VStem: 85 93<143 729> 552 93<144 729>
Back
552 729 m 1
 645 729 l 1
 645 217 l 2
 645 71 535 -23 364 -23 c 0
 191 -23 85 69 85 217 c 2
 85 729 l 1
 178 729 l 1
 178 217 l 2
 178 106.872 257.273 59 364 59 c 0
 481 59 552 119 552 217 c 2
 552 729 l 1
336 914 m 1
 336 811 l 1
 232 811 l 1
 232 914 l 1
 336 914 l 1
498 914 m 1
 498 811 l 1
 394 811 l 1
 394 914 l 1
 498 914 l 1
EndSplineSet
Refer: 103 168 N 1 0 0 1 202 189 2
Refer: 53 85 N 1 0 0 1 0 0 3
KernsSLIFO: 82 -4 0 0 14 -25 0 0 80 3 0 0 78 -4 0 0 77 -4 0 0 12 -27 0 0 66 3 0 0 33 -36 0 0
EndChar
StartChar: Yacute
Encoding: 221 221 156
Width: 667
Flags: HW
HStem: 0 21<294 387> 709 20<13 128 550 661>
VStem: 294 93<0 286>
Back
387 286 m 1
 387 0 l 1
 294 0 l 1
 294 286 l 1
 13 729 l 1
 128 729 l 1
 342 374 l 1
 550 729 l 1
 661 729 l 1
 387 286 l 1
365 939 m 1
 478 939 l 1
 329 791 l 1
 269 791 l 1
 365 939 l 1
EndSplineSet
Refer: 1869 714 S 1 0 0 1 177 199 2
Refer: 57 89 N 1 0 0 1 0 0 3
EndChar
StartChar: Thorn
Encoding: 222 222 157
Width: 666
Flags: W
HStem: 0 21G<91 184> 189 82<184 413> 527 82<184 392> 709 20G<91 184>
VStem: 91 93<0 729> 516 100<336 463>
Fore
184 189 m 1
 184 0 l 1
 91 0 l 1
 91 729 l 1
 184 729 l 1
 184 609 l 1
 392 609 l 2
 531 609 616 529 616 397 c 0
 616 275 532 189 413 189 c 2
 184 189 l 1
184 271 m 1
 378 271 l 2
 465 271 516 319 516 399 c 0
 516 479 465 527 378 527 c 2
 184 527 l 1
 184 271 l 1
EndSplineSet
EndChar
StartChar: germandbls
Encoding: 223 223 158
Width: 611
Flags: W
HStem: -15 79<303 390.5> 354 73<294 361> 652 76<223 372>
VStem: 67 88<0 589.5> 449 88<499.5 602.5> 480 91<145.5 266.5>
AnchorPoint: "below" 314 0 basechar 0
AnchorPoint: "above" 307 729 basechar 0
Back
302 349 m 5
 302 431 l 5
 311 431 l 6
 391 431 448 477 448 542 c 4
 448 606 399 651 330 651 c 4
 257 651 209 607 209 538 c 6
 209 0 l 5
 126 0 l 5
 126 538 l 6
 126 601 142 642 178 674 c 4
 219 709 276 729 337 729 c 4
 455 729 535 655 535 545 c 4
 535 474 500 428 426 401 c 5
 523 368 566 312 566 219 c 4
 566 72 479 -20 342 -20 c 4
 325 -20 315 -19 298 -16 c 5
 298 62 l 5
 334 62 l 5
 420 62 479 124 479 213 c 4
 479 281 445 330 388 343 c 4
 362 348 360 349 302 349 c 5
EndSplineSet
Fore
294 427 m 1xf4
 414 427 449 481 449 540 c 0
 449 605 398 652 297 652 c 0
 184 652 155 595 155 510 c 2
 155 0 l 1
 67 0 l 1
 67 532 l 2
 67 647 148 728 298 728 c 0
 446 728 537 657 537 548 c 0xf8
 537 451 478 415 455 400 c 1
 529 380 571 294 571 234 c 0
 571 57 462 -15 319 -15 c 0
 290 -15 280 -11 266 -8 c 1
 266 67 l 1
 281 65 296 64 310 64 c 0
 419 64 480 113 480 214 c 0
 480 319 412 354 310 354 c 2
 294 354 l 1
 294 427 l 1xf4
EndSplineSet
EndChar
StartChar: agrave
Encoding: 224 224 159
Width: 556
Flags: HW
HStem: -23 73<161 281.5> 462 77<228 339.5>
VStem: 42 87<84.5 202> 389 83<88 442.5>
Back
535 49 m 1
 535 -14 l 1
 508 -21 495 -23 478 -23 c 0
 424 -23 398 1 392 54 c 1
 333 0 280 -23 214 -23 c 0
 108 -23 42 37 42 132 c 0
 42 200 73 247 134 272 c 0
 166 285 184 289 302 304 c 0
 368 312 389 327 389 362 c 2
 389 384 l 2
 389 434 347 462 272 462 c 0
 194 462 156 433 149 369 c 1
 65 369 l 1
 67 421 77 451 101 478 c 0
 136 517 199 539 275 539 c 0
 404 539 472 489 472 396 c 2
 472 88 l 2
 472 62 488 47 517 47 c 0
 522 47 526 47 535 49 c 1
389 165 m 2
 389 259 l 1
 361 246 343 242 255 230 c 0
 166 217 129 189 129 134 c 0
 129 81 167 50 232 50 c 0
 281 50 322 66 356 97 c 0
 381 120 389 137 389 165 c 2
250 740 m 1
 346 592 l 1
 286 592 l 1
 137 740 l 1
 250 740 l 1
EndSplineSet
Refer: 1870 715 S 1 0 0 1 115 -1 2
Refer: 65 97 N 1 0 0 1 0 0 3
KernsSLIFO: 89 -26 0 0 87 -13 0 0 86 -21 0 0
EndChar
StartChar: aacute
Encoding: 225 225 160
Width: 556
Flags: HW
HStem: -23 73<161 281.5> 462 77<228 339.5>
VStem: 42 87<84.5 202> 389 83<88 442.5>
Back
535 49 m 1
 535 -14 l 1
 508 -21 495 -23 478 -23 c 0
 424 -23 398 1 392 54 c 1
 333 0 280 -23 214 -23 c 0
 108 -23 42 37 42 132 c 0
 42 200 73 247 134 272 c 0
 166 285 184 289 302 304 c 0
 368 312 389 327 389 362 c 2
 389 384 l 2
 389 434 347 462 272 462 c 0
 194 462 156 433 149 369 c 1
 65 369 l 1
 67 421 77 451 101 478 c 0
 136 517 199 539 275 539 c 0
 404 539 472 489 472 396 c 2
 472 88 l 2
 472 62 488 47 517 47 c 0
 522 47 526 47 535 49 c 1
389 165 m 2
 389 259 l 1
 361 246 343 242 255 230 c 0
 166 217 129 189 129 134 c 0
 129 81 167 50 232 50 c 0
 281 50 322 66 356 97 c 0
 381 120 389 137 389 165 c 2
303 740 m 1
 416 740 l 1
 267 592 l 1
 207 592 l 1
 303 740 l 1
EndSplineSet
Refer: 1869 714 S 1 0 0 1 115 -1 2
Refer: 65 97 N 1 0 0 1 0 0 3
KernsSLIFO: 89 -26 0 0 87 -13 0 0 86 -21 0 0
EndChar
StartChar: acircumflex
Encoding: 226 226 161
Width: 556
Flags: W
HStem: -23 73<161 281.5> 462 77<228 339.5> 721 20<228 323>
VStem: 42 87<84.5 202> 389 83<88 442.5>
Back
535 49 m 1
 535 -14 l 1
 508 -21 495 -23 478 -23 c 0
 424 -23 398 1 392 54 c 1
 333 0 280 -23 214 -23 c 0
 108 -23 42 37 42 132 c 0
 42 200 73 247 134 272 c 0
 166 285 184 289 302 304 c 0
 368 312 389 327 389 362 c 2
 389 384 l 2
 389 434 347 462 272 462 c 0
 194 462 156 433 149 369 c 1
 65 369 l 1
 67 421 77 451 101 478 c 0
 136 517 199 539 275 539 c 0
 404 539 472 489 472 396 c 2
 472 88 l 2
 472 62 488 47 517 47 c 0
 522 47 526 47 535 49 c 1
389 165 m 2
 389 259 l 1
 361 246 343 242 255 230 c 0
 166 217 129 189 129 134 c 0
 129 81 167 50 232 50 c 0
 281 50 322 66 356 97 c 0
 381 120 389 137 389 165 c 2
228 741 m 1
 323 741 l 1
 419 591 l 1
 356 591 l 1
 275 687 l 1
 196 591 l 1
 132 591 l 1
 228 741 l 1
EndSplineSet
Refer: 1867 710 S 1 0 0 1 112 0 2
Refer: 65 97 N 1 0 0 1 0 0 3
EndChar
StartChar: atilde
Encoding: 227 227 162
Width: 556
Flags: HW
HStem: -23 73<161 281.5> 462 77<228 339.5>
VStem: 42 87<84.5 202> 389 83<88 442.5>
Back
535 49 m 1
 535 -14 l 1
 508 -21 495 -23 478 -23 c 0
 424 -23 398 1 392 54 c 1
 333 0 280 -23 214 -23 c 0
 108 -23 42 37 42 132 c 0
 42 200 73 247 134 272 c 0
 166 285 184 289 302 304 c 0
 368 312 389 327 389 362 c 2
 389 384 l 2
 389 434 347 462 272 462 c 0
 194 462 156 433 149 369 c 1
 65 369 l 1
 67 421 77 451 101 478 c 0
 136 517 199 539 275 539 c 0
 404 539 472 489 472 396 c 2
 472 88 l 2
 472 62 488 47 517 47 c 0
 522 47 526 47 535 49 c 1
389 165 m 2
 389 259 l 1
 361 246 343 242 255 230 c 0
 166 217 129 189 129 134 c 0
 129 81 167 50 232 50 c 0
 281 50 322 66 356 97 c 0
 381 120 389 137 389 165 c 2
374 717 m 1
 432 717 l 1
 422 648 392 613 343 613 c 0
 324 613 312 617 258 638 c 0
 234 647 220 651 209 651 c 0
 194 651 182 637 176 614 c 1
 118 614 l 1
 129 680 160 717 204 717 c 0
 225 717 232 715 274 698 c 0
 298 687 325 680 337 680 c 0
 355 680 366 692 374 717 c 1
EndSplineSet
Refer: 478 732 N 1 0 0 1 113 -14 2
Refer: 65 97 N 1 0 0 1 0 0 3
EndChar
StartChar: adieresis
Encoding: 228 228 163
Width: 556
Flags: W
HStem: -23 73<161 281.5> 462 77<228 339.5>
VStem: 42 87<84.5 202> 389 83<88 442.5>
Back
535 49 m 1
 535 -14 l 1
 508 -21 495 -23 478 -23 c 0
 424 -23 398 1 392 54 c 1
 333 0 280 -23 214 -23 c 0
 108 -23 42 37 42 132 c 0
 42 200 73 247 134 272 c 0
 166 285 184 289 302 304 c 0
 368 312 389 327 389 362 c 2
 389 384 l 2
 389 434 347 462 272 462 c 0
 194 462 156 433 149 369 c 1
 65 369 l 1
 67 421 77 451 101 478 c 0
 136 517 199 539 275 539 c 0
 404 539 472 489 472 396 c 2
 472 88 l 2
 472 62 488 47 517 47 c 0
 522 47 526 47 535 49 c 1
389 165 m 2
 389 259 l 1
 361 246 343 242 255 230 c 0
 166 217 129 189 129 134 c 0
 129 81 167 50 232 50 c 0
 281 50 322 66 356 97 c 0
 381 120 389 137 389 165 c 2
244 715 m 1
 244 612 l 1
 140 612 l 1
 140 715 l 1
 244 715 l 1
406 715 m 1
 406 612 l 1
 302 612 l 1
 302 715 l 1
 406 715 l 1
EndSplineSet
Refer: 103 168 N 1 0 0 1 112 -13 2
Refer: 65 97 N 1 0 0 1 0 0 3
KernsSLIFO: 89 -26 0 0 87 -13 0 0 86 -21 0 0
EndChar
StartChar: aring
Encoding: 229 229 164
Width: 556
Flags: HW
HStem: -23 73<161 281.5> 462 77<228 339.5>
VStem: 42 87<84.5 202> 389 83<88 442.5>
Back
535 49 m 1
 535 -14 l 1
 508 -21 495 -23 478 -23 c 0
 424 -23 398 1 392 54 c 1
 333 0 280 -23 214 -23 c 0
 108 -23 42 37 42 132 c 0
 42 200 73 247 134 272 c 0
 166 285 184 289 302 304 c 0
 368 312 389 327 389 362 c 2
 389 384 l 2
 389 434 347 462 272 462 c 0
 194 462 156 433 149 369 c 1
 65 369 l 1
 67 421 77 451 101 478 c 0
 136 517 199 539 275 539 c 0
 404 539 472 489 472 396 c 2
 472 88 l 2
 472 62 488 47 517 47 c 0
 522 47 526 47 535 49 c 1
389 165 m 2
 389 259 l 1
 361 246 343 242 255 230 c 0
 166 217 129 189 129 134 c 0
 129 81 167 50 232 50 c 0
 281 50 322 66 356 97 c 0
 381 120 389 137 389 165 c 2
275 754 m 0
 324 754 363 715 363 666 c 0
 363 618 323 579 275 579 c 128
 227 579 187 619 187 667 c 0
 187 714 227 754 275 754 c 0
275 710 m 0
 251 710 231 690 231 667 c 0
 231 643 251 623 275 623 c 128
 299 623 319 643 319 666 c 0
 319 691 300 710 275 710 c 0
EndSplineSet
Refer: 476 730 S 1 0 0 1 108 0 2
Refer: 65 97 N 1 0 0 1 0 0 3
KernsSLIFO: 89 -26 0 0 87 -13 0 0 86 -21 0 0
EndChar
StartChar: ae
Encoding: 230 230 165
Width: 889
Flags: W
HStem: -23 73<151 274.5> 234 68<459 845> 462 77<219.5 307.5 569 661.5>
VStem: 34 87<85 197.5> 381 78<146 234> 755 90<234 349.5>
AnchorPoint: "below" 436 0 basechar 0
AnchorPoint: "above" 436 538 basechar 0
Fore
459 234 m 1
 462 88 551 54 613 54 c 0
 680 54 727 90 751 159 c 1
 835 159 l 1
 814 45 730 -23 612 -23 c 0
 535 -23 469 8 434 60 c 0
 429 68 425 75 418 87 c 1
 343 9 280 -23 202 -23 c 0
 100 -23 34 38 34 132 c 0
 34 263 141 290 294 303 c 0
 362 309 381 323 381 362 c 2
 381 384 l 2
 381 435 340 462 263 462 c 0
 186 462 148 433 141 369 c 1
 57 369 l 1
 62 511 174 539 265 539 c 0
 350 539 409 511 440 457 c 1
 476 508 541 539 613 539 c 0
 710 539 790 486 824 401 c 0
 839 362 845 314 845 234 c 1
 459 234 l 1
221 50 m 0
 328 50 381 135 381 157 c 2
 381 258 l 1
 282 215 121 249 121 134 c 0
 121 82 159 50 221 50 c 0
461 302 m 1
 755 302 l 1
 755 397 696 462 611 462 c 0
 527 462 468 399 461 302 c 1
EndSplineSet
KernsSLIFO: 89 -20 0 0 87 -10 0 0 86 -16 0 0
EndChar
StartChar: ccedilla
Encoding: 231 231 166
Width: 500
Flags: W
HStem: -214 41<209 273> -91 37<231 304> -23 76<219 325.5> 462 77<193.5 324>
VStem: 31 87<190 340> 283 75<-149.5 -100>
Fore
225 -21 m 1
 37 14 31 204 31 253 c 0
 31 427 123 539 264 539 c 0
 384 539 461 473 471 348 c 1
 387 348 l 1
 377 421 333 462 263 462 c 0
 172 462 118 384 118 252 c 0
 118 128 173 53 265 53 c 0
 336 53 379 96 393 180 c 1
 477 180 l 1
 470 55 387 -23 264 -23 c 1
 251 -56 l 1
 265 -54 271 -54 279 -54 c 0
 329 -54 358 -79 358 -121 c 0
 358 -178 311 -214 235 -214 c 0
 196 -214 174 -208 110 -181 c 1
 131 -140 l 1
 163 -154 189 -173 229 -173 c 0
 260 -173 283 -154 283 -128 c 0
 283 -105 266 -91 237 -91 c 0
 225 -91 218 -93 206 -99 c 1
 194 -92 l 1
 225 -21 l 1
EndSplineSet
EndChar
StartChar: egrave
Encoding: 232 232 167
Width: 556
Flags: HW
HStem: -23 77<204.5 338> 234 68<127 513> 462 77<207 329>
VStem: 424 89<234 351>
Back
513 234 m 1
 127 234 l 1
 128 182 135 152 155 122 c 0
 183 78 228 54 281 54 c 0
 348 54 395 90 418 159 c 1
 502 159 l 1
 481 45 398 -23 278 -23 c 0
 131 -23 40 83 40 255 c 128
 40 427 134 539 280 539 c 0
 378 539 458 487 492 401 c 0
 507 362 513 314 513 234 c 1
129 302 m 1
 423 302 l 1
 424 304 424 306 424 308 c 0
 424 394 361 462 279 462 c 0
 195 462 136 399 129 302 c 1
252 740 m 1
 348 592 l 1
 288 592 l 1
 139 740 l 1
 252 740 l 1
EndSplineSet
Refer: 1870 715 S 1 0 0 1 118 0 2
Refer: 69 101 N 1 0 0 1 0 0 3
EndChar
StartChar: eacute
Encoding: 233 233 168
Width: 556
Flags: HW
HStem: -23 77<204.5 338> 234 68<127 513> 462 77<207 329>
VStem: 424 89<234 351>
Back
513 234 m 1
 127 234 l 1
 128 182 135 152 155 122 c 0
 183 78 228 54 281 54 c 0
 348 54 395 90 418 159 c 1
 502 159 l 1
 481 45 398 -23 278 -23 c 0
 131 -23 40 83 40 255 c 128
 40 427 134 539 280 539 c 0
 378 539 458 487 492 401 c 0
 507 362 513 314 513 234 c 1
129 302 m 1
 423 302 l 1
 424 304 424 306 424 308 c 0
 424 394 361 462 279 462 c 0
 195 462 136 399 129 302 c 1
308 740 m 1
 421 740 l 1
 272 592 l 1
 212 592 l 1
 308 740 l 1
EndSplineSet
Refer: 1869 714 S 1 0 0 1 120 -1 2
Refer: 69 101 N 1 0 0 1 0 0 3
KernsSLIFO: 89 -19 0 0 87 -9 0 0 86 -15 0 0
EndChar
StartChar: ecircumflex
Encoding: 234 234 169
Width: 556
Flags: W
HStem: -23 77<204.5 338> 234 68<127 513> 462 77<207 329> 722 20<240 335>
VStem: 424 89<234 351>
Back
513 234 m 1
 127 234 l 1
 128 182 135 152 155 122 c 0
 183 78 228 54 281 54 c 0
 348 54 395 90 418 159 c 1
 502 159 l 1
 481 45 398 -23 278 -23 c 0
 131 -23 40 83 40 255 c 128
 40 427 134 539 280 539 c 0
 378 539 458 487 492 401 c 0
 507 362 513 314 513 234 c 1
129 302 m 1
 423 302 l 1
 424 304 424 306 424 308 c 0
 424 394 361 462 279 462 c 0
 195 462 136 399 129 302 c 1
239 741 m 1
 334 741 l 1
 430 591 l 1
 367 591 l 1
 286 687 l 1
 207 591 l 1
 143 591 l 1
 239 741 l 1
EndSplineSet
Refer: 1867 710 S 1 0 0 1 124 1 2
Refer: 69 101 N 1 0 0 1 0 0 3
KernsSLIFO: 89 -19 0 0 87 -9 0 0 86 -15 0 0
EndChar
StartChar: edieresis
Encoding: 235 235 170
Width: 556
Flags: W
HStem: -23 77<204.5 338> 234 68<127 513> 462 77<207 329>
VStem: 424 89<234 351>
Back
513 234 m 1
 127 234 l 1
 128 182 135 152 155 122 c 0
 183 78 228 54 281 54 c 0
 348 54 395 90 418 159 c 1
 502 159 l 1
 481 45 398 -23 278 -23 c 0
 131 -23 40 83 40 255 c 128
 40 427 134 539 280 539 c 0
 378 539 458 487 492 401 c 0
 507 362 513 314 513 234 c 1
129 302 m 1
 423 302 l 1
 424 304 424 306 424 308 c 0
 424 394 361 462 279 462 c 0
 195 462 136 399 129 302 c 1
257 715 m 1
 257 612 l 1
 153 612 l 1
 153 715 l 1
 257 715 l 1
419 715 m 1
 419 612 l 1
 315 612 l 1
 315 715 l 1
 419 715 l 1
EndSplineSet
Refer: 103 168 N 1 0 0 1 117 -13 2
Refer: 69 101 N 1 0 0 1 0 0 3
EndChar
StartChar: igrave
Encoding: 236 236 171
Width: 278
Flags: HW
Back
177 524 m 1
 177 0 l 1
 94 0 l 1
 94 524 l 1
 177 524 l 1
108 740 m 1
 204 592 l 1
 144 592 l 1
 -5 740 l 1
 108 740 l 1
EndSplineSet
Refer: 1870 715 S 1 0 0 1 -26 -2 2
Refer: 240 305 N 1 0 0 1 0 0 3
EndChar
StartChar: iacute
Encoding: 237 237 172
Width: 278
Flags: HW
Back
177 524 m 1
 177 0 l 1
 94 0 l 1
 94 524 l 1
 177 524 l 1
161 740 m 1
 274 740 l 1
 125 592 l 1
 65 592 l 1
 161 740 l 1
EndSplineSet
Refer: 1869 714 S 1 0 0 1 -27 -1 2
Refer: 240 305 N 1 0 0 1 0 0 3
EndChar
StartChar: icircumflex
Encoding: 238 238 173
Width: 278
Flags: HW
Back
177 524 m 1
 177 0 l 1
 94 0 l 1
 94 524 l 1
 177 524 l 1
89 741 m 1
 184 741 l 1
 280 591 l 1
 217 591 l 1
 136 687 l 1
 57 591 l 1
 -7 591 l 1
 89 741 l 1
EndSplineSet
Refer: 1867 710 S 1 0 0 1 -28 0 2
Refer: 240 305 N 1 0 0 1 0 0 3
EndChar
StartChar: idieresis
Encoding: 239 239 174
Width: 278
Flags: W
HStem: 0 21<94 177> 504 20<94 177>
VStem: 94 83<0 524>
Back
177 524 m 1
 177 0 l 1
 94 0 l 1
 94 524 l 1
 177 524 l 1
107 708 m 1
 107 605 l 1
 3 605 l 1
 3 708 l 1
 107 708 l 1
269 708 m 1
 269 605 l 1
 165 605 l 1
 165 708 l 1
 269 708 l 1
EndSplineSet
Refer: 103 168 N 1 0 0 1 -27 -13 2
Refer: 240 305 N 1 0 0 1 0 0 3
EndChar
StartChar: eth
Encoding: 240 240 175
Width: 556
Flags: W
HStem: -23 77<197.5 348.5> 462 75<210.5 320>
VStem: 36 87<168.5 369.5> 423 87<169 368>
Fore
36 258 m 0
 36 481 167 537 254 537 c 0
 273 537 287 534 317 524 c 1
 282 559 271 569 219 613 c 1
 122 568 l 1
 86 607 l 1
 171 647 l 1
 145 667 132 675 89 699 c 1
 133 743 l 1
 164 730 177 723 244 680 c 1
 341 725 l 1
 381 688 l 1
 291 647 l 1
 362 593 510 477 510 259 c 0
 510 79 424 -23 273 -23 c 0
 122 -23 36 79 36 258 c 0
273 462 m 0
 180 462 123 384 123 258 c 0
 123 132 180 54 273 54 c 0
 365 54 423 132 423 255 c 0
 423 385 367 462 273 462 c 0
EndSplineSet
EndChar
StartChar: ntilde
Encoding: 241 241 176
Width: 556
Flags: HW
HStem: 0 21<70 154 404 487> 466 73<253 371.5>
VStem: 70 77<436 524> 70 84<0 342.5> 404 83<0 439.5>
Back
70 524 m 1
 147 524 l 1
 147 436 l 1
 193 509 243 539 321 539 c 0
 422 539 487 483 487 396 c 2
 487 0 l 1
 404 0 l 1
 404 363 l 2
 404 426 362 466 296 466 c 0
 210 466 154 396 154 289 c 2
 154 0 l 1
 70 0 l 1
 70 524 l 1
378 717 m 1
 436 717 l 1
 426 648 396 613 347 613 c 0
 328 613 316 617 262 638 c 0
 238 647 224 651 213 651 c 0
 198 651 186 637 180 614 c 1
 122 614 l 1
 133 680 164 717 208 717 c 0
 229 717 236 715 278 698 c 0
 302 687 329 680 341 680 c 0
 359 680 370 692 378 717 c 1
EndSplineSet
Refer: 478 732 N 1 0 0 1 116 -14 2
Refer: 78 110 N 1 0 0 1 0 0 3
EndChar
StartChar: ograve
Encoding: 242 242 177
Width: 556
Flags: HW
HStem: -23 77<198.5 346.5> 462 77<198.5 347.5>
VStem: 36 87<170 346> 423 87<168 344.5>
Back
272 539 m 0
 423 539 510 435 510 254 c 0
 510 82 420 -23 273 -23 c 0
 124 -23 36 82 36 258 c 128
 36 434 125 539 272 539 c 0
273 462 m 0
 180 462 123 384 123 258 c 0
 123 131 180 54 273 54 c 0
 365 54 423 132 423 255 c 0
 423 385 367 462 273 462 c 0
245 740 m 1
 341 592 l 1
 281 592 l 1
 132 740 l 1
 245 740 l 1
EndSplineSet
Refer: 1870 715 S 1 0 0 1 109 1 2
Refer: 79 111 N 1 0 0 1 0 0 3
KernsSLIFO: 89 -22 0 0 87 -10 0 0 86 -18 0 0
EndChar
StartChar: oacute
Encoding: 243 243 178
Width: 556
Flags: HW
HStem: -23 77<198.5 346.5> 462 77<198.5 347.5>
VStem: 36 87<170 346> 423 87<168 344.5>
Back
272 539 m 0
 423 539 510 435 510 254 c 0
 510 82 420 -23 273 -23 c 0
 124 -23 36 82 36 258 c 128
 36 434 125 539 272 539 c 0
273 462 m 0
 180 462 123 384 123 258 c 0
 123 131 180 54 273 54 c 0
 365 54 423 132 423 255 c 0
 423 385 367 462 273 462 c 0
298 740 m 1
 411 740 l 1
 262 592 l 1
 202 592 l 1
 298 740 l 1
EndSplineSet
Refer: 1869 714 S 1 0 0 1 110 0 2
Refer: 79 111 N 1 0 0 1 0 0 3
KernsSLIFO: 89 -22 0 0 87 -10 0 0 86 -18 0 0
EndChar
StartChar: ocircumflex
Encoding: 244 244 179
Width: 556
Flags: W
HStem: -23 77<198.5 346.5> 462 77<198.5 347.5> 722 20<226 321>
VStem: 36 87<170 346> 423 87<168 344.5>
Back
272 539 m 0
 423 539 510 435 510 254 c 0
 510 82 420 -23 273 -23 c 0
 124 -23 36 82 36 258 c 128
 36 434 125 539 272 539 c 0
273 462 m 0
 180 462 123 384 123 258 c 0
 123 131 180 54 273 54 c 0
 365 54 423 132 423 255 c 0
 423 385 367 462 273 462 c 0
226 741 m 1
 321 741 l 1
 417 591 l 1
 354 591 l 1
 273 687 l 1
 194 591 l 1
 130 591 l 1
 226 741 l 1
EndSplineSet
Refer: 1867 710 S 1 0 0 1 110 1 2
Refer: 79 111 N 1 0 0 1 0 0 3
KernsSLIFO: 84 -10 0 0
EndChar
StartChar: otilde
Encoding: 245 245 180
Width: 556
Flags: W
HStem: -23 77<198.5 346.5> 462 77<198.5 347.5> 599 67<313.5 364.5> 637 66<179 225.5>
VStem: 36 87<170 346> 423 87<168 344.5>
Back
272 539 m 0
 423 539 510 435 510 254 c 0
 510 82 420 -23 273 -23 c 0
 124 -23 36 82 36 258 c 128
 36 434 125 539 272 539 c 0
273 462 m 0
 180 462 123 384 123 258 c 0
 123 131 180 54 273 54 c 0
 365 54 423 132 423 255 c 0
 423 385 367 462 273 462 c 0
375 717 m 1
 433 717 l 1
 423 648 393 613 344 613 c 0
 325 613 313 617 259 638 c 0
 235 647 221 651 210 651 c 0
 195 651 183 637 177 614 c 1
 119 614 l 1
 130 680 161 717 205 717 c 0
 226 717 233 715 275 698 c 0
 299 687 326 680 338 680 c 0
 356 680 367 692 375 717 c 1
EndSplineSet
Refer: 478 732 N 1 0 0 1 110 -14 2
Refer: 79 111 N 1 0 0 1 0 0 3
EndChar
StartChar: odieresis
Encoding: 246 246 181
Width: 556
Flags: W
HStem: -23 77<198.5 346.5> 462 77<198.5 347.5>
VStem: 36 87<170 346> 423 87<168 344.5>
Back
272 539 m 0
 423 539 510 435 510 254 c 0
 510 82 420 -23 273 -23 c 0
 124 -23 36 82 36 258 c 128
 36 434 125 539 272 539 c 0
273 462 m 0
 180 462 123 384 123 258 c 0
 123 131 180 54 273 54 c 0
 365 54 423 132 423 255 c 0
 423 385 367 462 273 462 c 0
244 715 m 1
 244 612 l 1
 140 612 l 1
 140 715 l 1
 244 715 l 1
406 715 m 1
 406 612 l 1
 302 612 l 1
 302 715 l 1
 406 715 l 1
EndSplineSet
Refer: 103 168 N 1 0 0 1 109 -13 2
Refer: 79 111 N 1 0 0 1 0 0 3
KernsSLIFO: 89 -22 0 0 88 -27 0 0 87 -10 0 0 86 -18 0 0 84 -10 0 0
EndChar
StartChar: divide
Encoding: 247 247 182
Width: 584
Flags: W
HStem: 0 21G<240 344> 201 70<50 534>
Fore
534 271 m 1
 534 201 l 1
 50 201 l 1
 50 271 l 1
 534 271 l 1
344 104 m 1
 344 0 l 1
 240 0 l 1
 240 104 l 1
 344 104 l 1
344 472 m 1
 344 368 l 1
 240 368 l 1
 240 472 l 1
 344 472 l 1
EndSplineSet
EndChar
StartChar: oslash
Encoding: 248 248 183
Width: 611
Flags: W
HStem: -23 77<240.5 348> 462 77<199 307.5>
VStem: 36 87<219 346> 423 87<170 296>
Fore
529 511 m 1
 466 440 l 1
 496 390 510 334 510 258 c 0
 510 82 422 -23 274 -23 c 0
 207 -23 151 -2 111 39 c 1
 50 -30 l 1
 18 -2 l 1
 84 72 l 1
 51 121 36 180 36 258 c 0
 36 434 125 539 273 539 c 0
 342 539 394 519 439 474 c 1
 497 539 l 1
 529 511 l 1
405 371 m 1
 167 102 l 1
 196 70 231 54 273 54 c 0
 366 54 423 132 423 258 c 0
 423 302 417 340 405 371 c 1
144 141 m 1
 383 410 l 1
 357 443 317 462 273 462 c 0
 180 462 123 384 123 258 c 0
 123 211 130 174 144 141 c 1
EndSplineSet
EndChar
StartChar: ugrave
Encoding: 249 249 184
Width: 556
Flags: HW
HStem: -23 73<181 299.5> 504 20<65 148 399 482>
VStem: 65 83<76.5 524> 399 83<173.5 524> 407 75<0 73>
Back
482 0 m 1
 407 0 l 1
 407 73 l 1
 358 4 309 -23 232 -23 c 0
 130 -23 65 33 65 120 c 2
 65 524 l 1
 148 524 l 1
 148 153 l 2
 148 90 190 50 256 50 c 0
 343 50 399 120 399 227 c 2
 399 524 l 1
 482 524 l 1
 482 0 l 1
243 740 m 1
 339 592 l 1
 279 592 l 1
 130 740 l 1
 243 740 l 1
EndSplineSet
Refer: 1870 715 S 1 0 0 1 108 -1 2
Refer: 85 117 N 1 0 0 1 0 0 3
EndChar
StartChar: uacute
Encoding: 250 250 185
Width: 556
Flags: HW
HStem: -23 73<181 299.5> 504 20<65 148 399 482>
VStem: 65 83<76.5 524> 399 83<173.5 524> 407 75<0 73>
Back
482 0 m 1
 407 0 l 1
 407 73 l 1
 358 4 309 -23 232 -23 c 0
 130 -23 65 33 65 120 c 2
 65 524 l 1
 148 524 l 1
 148 153 l 2
 148 90 190 50 256 50 c 0
 343 50 399 120 399 227 c 2
 399 524 l 1
 482 524 l 1
 482 0 l 1
296 740 m 1
 409 740 l 1
 260 592 l 1
 200 592 l 1
 296 740 l 1
EndSplineSet
Refer: 1869 714 S 1 0 0 1 108 0 2
Refer: 85 117 N 1 0 0 1 0 0 3
EndChar
StartChar: ucircumflex
Encoding: 251 251 186
Width: 556
Flags: HW
HStem: -23 73<181 299.5> 504 20<65 148 399 482>
VStem: 65 83<76.5 524> 399 83<173.5 524> 407 75<0 73>
Back
482 0 m 1
 407 0 l 1
 407 73 l 1
 358 4 309 -23 232 -23 c 0
 130 -23 65 33 65 120 c 2
 65 524 l 1
 148 524 l 1
 148 153 l 2
 148 90 190 50 256 50 c 0
 343 50 399 120 399 227 c 2
 399 524 l 1
 482 524 l 1
 482 0 l 1
227 741 m 1
 322 741 l 1
 418 591 l 1
 355 591 l 1
 274 687 l 1
 195 591 l 1
 131 591 l 1
 227 741 l 1
EndSplineSet
Refer: 1867 710 S 1 0 0 1 111 1 2
Refer: 85 117 N 1 0 0 1 0 0 3
EndChar
StartChar: udieresis
Encoding: 252 252 187
Width: 556
Flags: W
HStem: -23 73<181 299.5> 504 20<65 148 399 482>
VStem: 65 83<76.5 524> 399 83<173.5 524> 407 75<0 73>
Back
482 0 m 1
 407 0 l 1
 407 73 l 1
 358 4 309 -23 232 -23 c 0
 130 -23 65 33 65 120 c 2
 65 524 l 1
 148 524 l 1
 148 153 l 2
 148 90 190 50 256 50 c 0
 343 50 399 120 399 227 c 2
 399 524 l 1
 482 524 l 1
 482 0 l 1
245 715 m 1
 245 612 l 1
 141 612 l 1
 141 715 l 1
 245 715 l 1
407 715 m 1
 407 612 l 1
 303 612 l 1
 303 715 l 1
 407 715 l 1
EndSplineSet
Refer: 103 168 N 1 0 0 1 110 -13 2
Refer: 85 117 N 1 0 0 1 0 0 3
EndChar
StartChar: yacute
Encoding: 253 253 188
Width: 500
Flags: HW
HStem: -218 82<92 138.5> 504 20<20 109 388 478>
Back
388 524 m 1
 478 524 l 1
 245 -110 l 1
 229 -152 214 -174 188 -193 c 0
 166 -209 137 -218 110 -218 c 0
 88 -218 71 -214 54 -205 c 1
 54 -130 l 1
 72 -134 86 -136 98 -136 c 0
 133 -136 152 -122 165 -85 c 1
 197 -2 l 1
 20 524 l 1
 109 524 l 1
 243 116 l 1
 388 524 l 1
271 740 m 1
 384 740 l 1
 235 592 l 1
 175 592 l 1
 271 740 l 1
EndSplineSet
Refer: 1869 714 S 1 0 0 1 81 -1 2
Refer: 89 121 N 1 0 0 1 0 0 3
EndChar
StartChar: thorn
Encoding: 254 254 189
Width: 555
Flags: W
HStem: -23 78<239 365.5> 461 78<239 366>
VStem: 54 83<-218 714> 435 87<169.5 340>
Fore
54 -218 m 1
 54 714 l 1
 137 714 l 1
 137 459 l 1
 173 510 231 539 298 539 c 0
 434 539 522 427 522 253 c 0
 522 86 433 -23 298 -23 c 0
 230 -23 181 1 137 55 c 1
 137 -218 l 1
 54 -218 l 1
283 461 m 0
 195 461 137 381 137 258 c 0
 137 135 195 55 283 55 c 0
 374 55 435 136 435 255 c 0
 435 380 375 461 283 461 c 0
EndSplineSet
EndChar
StartChar: ydieresis
Encoding: 255 255 190
Width: 500
Flags: W
HStem: -218 82<92 138.5> 504 20<20 109 388 478>
Back
388 524 m 1
 478 524 l 1
 245 -110 l 1
 229 -152 214 -174 188 -193 c 0
 166 -209 137 -218 110 -218 c 0
 88 -218 71 -214 54 -205 c 1
 54 -130 l 1
 72 -134 86 -136 98 -136 c 0
 133 -136 152 -122 165 -85 c 1
 197 -2 l 1
 20 524 l 1
 109 524 l 1
 243 116 l 1
 388 524 l 1
217 715 m 1
 217 612 l 1
 113 612 l 1
 113 715 l 1
 217 715 l 1
379 715 m 1
 379 612 l 1
 275 612 l 1
 275 715 l 1
 379 715 l 1
EndSplineSet
Refer: 103 168 N 1 0 0 1 86 -13 2
Refer: 89 121 N 1 0 0 1 0 0 3
EndChar
StartChar: Amacron
Encoding: 256 256 191
Width: 667
Flags: HW
HStem: 0 21<17 116 549 653> 219 78<193 474> 709 20<277 397>
Back
474 219 m 1
 193 219 l 1
 116 0 l 1
 17 0 l 1
 277 729 l 1
 397 729 l 1
 653 0 l 1
 549 0 l 1
 474 219 l 1
448 297 m 1
 336 629 l 1
 216 297 l 1
 448 297 l 1
472 900 m 1
 472 830 l 1
 198 830 l 1
 198 900 l 1
 472 900 l 1
EndSplineSet
Refer: 2384 713 N 1 0 0 1 172 170 2
Refer: 33 65 N 1 0 0 1 0 0 3
EndChar
StartChar: amacron
Encoding: 257 257 192
Width: 556
Flags: HW
HStem: -23 73<161 281.5> 462 77<228 339.5>
VStem: 42 87<84.5 202> 389 83<88 442.5>
Back
535 49 m 1
 535 -14 l 1
 508 -21 495 -23 478 -23 c 0
 424 -23 398 1 392 54 c 1
 333 0 280 -23 214 -23 c 0
 108 -23 42 37 42 132 c 0
 42 200 73 247 134 272 c 0
 166 285 184 289 302 304 c 0
 368 312 389 327 389 362 c 2
 389 384 l 2
 389 434 347 462 272 462 c 0
 194 462 156 433 149 369 c 1
 65 369 l 1
 67 421 77 451 101 478 c 0
 136 517 199 539 275 539 c 0
 404 539 472 489 472 396 c 2
 472 88 l 2
 472 62 488 47 517 47 c 0
 522 47 526 47 535 49 c 1
389 165 m 2
 389 259 l 1
 361 246 343 242 255 230 c 0
 166 217 129 189 129 134 c 0
 129 81 167 50 232 50 c 0
 281 50 322 66 356 97 c 0
 381 120 389 137 389 165 c 2
411 701 m 1
 411 631 l 1
 137 631 l 1
 137 701 l 1
 411 701 l 1
EndSplineSet
Refer: 2384 713 N 1 0 0 1 110 -32 2
Refer: 65 97 N 1 0 0 1 0 0 3
EndChar
StartChar: Abreve
Encoding: 258 258 193
Width: 667
Flags: W
HStem: 0 21<17 116 549 653> 219 78<193 474> 709 20<277 397> 801 69<305.5 382.5> 916 20<187 246 429 488>
Back
474 219 m 1
 193 219 l 1
 116 0 l 1
 17 0 l 1
 277 729 l 1
 397 729 l 1
 653 0 l 1
 549 0 l 1
 474 219 l 1
448 297 m 1
 336 629 l 1
 216 297 l 1
 448 297 l 1
185 931 m 1
 244 931 l 1
 249 887 279 865 336 865 c 0
 390 865 423 889 427 931 c 1
 486 931 l 1
 479 842 427 796 334 796 c 0
 278 796 233 816 206 853 c 0
 191 873 186 892 185 931 c 1
EndSplineSet
Refer: 474 728 N 1 0 0 1 172 204 2
Refer: 33 65 N 1 0 0 1 0 0 3
EndChar
StartChar: abreve
Encoding: 259 259 194
Width: 556
Flags: W
HStem: -23 73<161 281.5> 462 77<228 339.5> 599 69<243.5 320.5> 714 20<125 184 367 426>
VStem: 42 87<84.5 202> 389 83<88 442.5>
Back
535 49 m 1
 535 -14 l 1
 508 -21 495 -23 478 -23 c 0
 424 -23 398 1 392 54 c 1
 333 0 280 -23 214 -23 c 0
 108 -23 42 37 42 132 c 0
 42 200 73 247 134 272 c 0
 166 285 184 289 302 304 c 0
 368 312 389 327 389 362 c 2
 389 384 l 2
 389 434 347 462 272 462 c 0
 194 462 156 433 149 369 c 1
 65 369 l 1
 67 421 77 451 101 478 c 0
 136 517 199 539 275 539 c 0
 404 539 472 489 472 396 c 2
 472 88 l 2
 472 62 488 47 517 47 c 0
 522 47 526 47 535 49 c 1
389 165 m 2
 389 259 l 1
 361 246 343 242 255 230 c 0
 166 217 129 189 129 134 c 0
 129 81 167 50 232 50 c 0
 281 50 322 66 356 97 c 0
 381 120 389 137 389 165 c 2
125 732 m 1
 184 732 l 1
 189 688 219 666 276 666 c 0
 330 666 363 690 367 732 c 1
 426 732 l 1
 419 643 367 597 274 597 c 0
 218 597 173 617 146 654 c 0
 132 674 126 693 125 732 c 1
EndSplineSet
Refer: 474 728 N 1 0 0 1 110 2 2
Refer: 65 97 N 1 0 0 1 0 0 3
EndChar
StartChar: Aogonek
Encoding: 260 260 195
Width: 667
Flags: HW
HStem: 0 21<17 116 549 653> 219 78<193 474> 709 20<277 397>
Back
474 219 m 1
 193 219 l 1
 116 0 l 1
 17 0 l 1
 277 729 l 1
 397 729 l 1
 653 0 l 1
 588 -31 557 -64 557 -105 c 0
 557 -141 582 -160 629 -160 c 0
 653 -160 674 -157 692 -150 c 1
 692 -195 l 1
 668 -200 635 -205 616 -205 c 0
 594 -205 569 -200 547 -192 c 0
 505 -176 484 -150 484 -111 c 0
 484 -63 514 -31 585 0 c 1
 549 0 l 1
 474 219 l 1
448 297 m 1
 336 629 l 1
 216 297 l 1
 448 297 l 1
EndSplineSet
Refer: 477 731 N 1 0 0 1 427 -0 2
Refer: 33 65 N 1 0 0 1 0 0 3
EndChar
StartChar: aogonek
Encoding: 261 261 196
Width: 556
Flags: W
HStem: -205 45<499 544.5> -23 73<162 281.5> 462 77<229 340.5>
VStem: 43 86<84.5 203> 388 72<-147.5 -85.5> 389 84<75 259>
Fore
67 369 m 1xf8
 72 511 182 539 276 539 c 0
 405 539 473 489 473 396 c 2
 473 88 l 2xf4
 473 62 489 47 518 47 c 0
 523 47 527 47 536 49 c 1
 536 -14 l 1
 488 -33 460 -66 460 -105 c 0
 460 -141 485 -160 532 -160 c 0
 557 -160 578 -157 596 -150 c 1
 596 -195 l 1
 571 -201 541 -205 525 -205 c 0
 473 -205 388 -183 388 -112 c 0
 388 -74 406 -50 456 -23 c 1
 418 -16 397 10 393 54 c 1
 337 1 281 -23 215 -23 c 0
 109 -23 43 37 43 132 c 0
 43 274 163 286 304 304 c 0
 369 312 390 326 390 362 c 2
 390 384 l 2
 390 435 349 462 273 462 c 0
 195 462 157 433 151 369 c 1
 67 369 l 1xf8
232 50 m 0
 331 50 389 115 389 165 c 2
 389 259 l 1
 304 220 129 249 129 134 c 0
 129 81 167 50 232 50 c 0
EndSplineSet
EndChar
StartChar: Cacute
Encoding: 262 262 197
Width: 722
Flags: HW
HStem: -23 82<245.5 466> 659 82<248 461>
VStem: 48 93<266 450.5>
Back
662 503 m 1
 567 503 l 1
 556 557 541 588 514 613 c 0
 484 641 429 659 370 659 c 0
 229 659 141 544 141 357 c 0
 141 175 233 59 378 59 c 0
 456 59 518 93 548 153 c 0
 563 182 573 216 581 266 c 1
 677 266 l 1
 655 73 555 -23 377 -23 c 0
 282 -23 210 4 154 62 c 0
 85 133 48 236 48 356 c 0
 48 474 84 578 150 650 c 0
 204 710 283 741 381 741 c 0
 541 741 633 663 662 503 c 1
406 939 m 1
 519 939 l 1
 370 791 l 1
 310 791 l 1
 406 939 l 1
EndSplineSet
Refer: 1869 714 N 1 0 0 1 217 200 2
Refer: 35 67 N 1 0 0 1 0 0 3
EndChar
StartChar: cacute
Encoding: 263 263 198
Width: 500
Flags: HW
HStem: -23 77<192 325.5> 462 77<193.5 324>
VStem: 31 87<168.5 340>
Back
471 348 m 1
 387 348 l 1
 377 421 333 462 263 462 c 0
 172 462 118 384 118 253 c 0
 118 129 173 54 265 54 c 0
 336 54 379 96 393 180 c 1
 477 180 l 1
 467 52 388 -23 263 -23 c 0
 121 -23 31 84 31 253 c 0
 31 427 123 539 264 539 c 0
 337 539 400 510 436 461 c 0
 456 432 467 399 471 348 c 1
298 740 m 1
 411 740 l 1
 262 592 l 1
 202 592 l 1
 298 740 l 1
EndSplineSet
Refer: 1869 714 S 1 0 0 1 110 0 2
Refer: 67 99 N 1 0 0 1 0 0 3
EndChar
StartChar: Ccaron
Encoding: 268 268 203
Width: 722
Flags: HW
HStem: -23 82<245.5 466> 659 82<248 461>
VStem: 48 93<266 450.5>
Back
662 503 m 1
 567 503 l 1
 556 557 541 588 514 613 c 0
 484 641 429 659 370 659 c 0
 229 659 141 544 141 357 c 0
 141 175 233 59 378 59 c 0
 456 59 518 93 548 153 c 0
 563 182 573 216 581 266 c 1
 677 266 l 1
 655 73 555 -23 377 -23 c 0
 282 -23 210 4 154 62 c 0
 85 133 48 236 48 356 c 0
 48 474 84 578 150 650 c 0
 204 710 283 741 381 741 c 0
 541 741 633 663 662 503 c 1
428 790 m 1
 333 790 l 1
 237 940 l 1
 300 940 l 1
 381 844 l 1
 460 940 l 1
 524 940 l 1
 428 790 l 1
EndSplineSet
Refer: 1868 711 N 1 0 0 1 218 199 2
Refer: 35 67 N 1 0 0 1 0 0 3
KernsSLIFO: 43 -10 0 0 40 -12 0 0 47 -8 0 0 33 -32 0 0
EndChar
StartChar: ccaron
Encoding: 269 269 204
Width: 500
Flags: HW
HStem: -23 77<192 325.5> 462 77<193.5 324>
VStem: 31 87<168.5 340>
Back
471 348 m 1
 387 348 l 1
 377 421 333 462 263 462 c 0
 172 462 118 384 118 253 c 0
 118 129 173 54 265 54 c 0
 336 54 379 96 393 180 c 1
 477 180 l 1
 467 52 388 -23 263 -23 c 0
 121 -23 31 84 31 253 c 0
 31 427 123 539 264 539 c 0
 337 539 400 510 436 461 c 0
 456 432 467 399 471 348 c 1
313 591 m 1
 218 591 l 1
 122 741 l 1
 185 741 l 1
 266 645 l 1
 345 741 l 1
 409 741 l 1
 313 591 l 1
EndSplineSet
Refer: 1868 711 S 1 0 0 1 102 0 2
Refer: 67 99 N 1 0 0 1 0 0 3
KernsSLIFO: 75 7 0 0 72 1 0 0
EndChar
StartChar: Dcaron
Encoding: 270 270 205
Width: 722
Flags: HW
HStem: 0 82<89 462> 647 82<89 462.5>
VStem: 89 93<0 729> 574 93<251.5 478>
Back
89 0 m 1
 89 729 l 1
 370 729 l 2
 555 729 667 591 667 365 c 0
 667 138 554 0 370 0 c 2
 89 0 l 1
182 82 m 1
 354 82 l 2
 498 82 574 180 574 364 c 0
 574 550 498 647 354 647 c 2
 182 647 l 1
 182 82 l 1
386 790 m 1
 291 790 l 1
 195 940 l 1
 258 940 l 1
 339 844 l 1
 418 940 l 1
 482 940 l 1
 386 790 l 1
EndSplineSet
Refer: 1868 711 N 1 0 0 1 176 199 2
Refer: 36 68 N 1 0 0 1 0 0 3
EndChar
StartChar: dcaron
Encoding: 271 271 206
Width: 722
Flags: W
HStem: -23 78<183.5 310> 461 78<183 310> 605 20<585 645> 709 20<412 495>
VStem: 26 87<174.5 346.5> 412 83<195.5 318.5 458 729> 421 74<0 69> 645 45<566 625>
Back
495 729 m 1
 495 0 l 1
 421 0 l 1
 421 69 l 1
 376 4 326 -23 254 -23 c 0
 113 -23 26 86 26 263 c 0
 26 430 115 539 251 539 c 0
 321 539 377 511 412 458 c 1
 412 729 l 1
 495 729 l 1
265 461 m 0
 174 461 113 380 113 258 c 128
 113 136 174 55 266 55 c 0
 354 55 412 135 412 256 c 0
 412 381 355 461 265 461 c 0
548 729 m 1
 648 729 l 1
 648 626 l 2
 648 556 610 505 556 505 c 2
 548 505 l 1
 548 543 l 1
 586 543 605 574 603 629 c 1
 548 629 l 1
 548 729 l 1
EndSplineSet
Refer: 12 44 N 1 0 0 1 498 625 2
Refer: 68 100 N 1 0 0 1 0 0 2
EndChar
StartChar: Dcroat
Encoding: 272 272 207
Width: 722
Flags: W
HStem: 0 82<89 463> 339 67<20 89 182 353> 647 82<89 463>
VStem: 89 93<0 339 406 729> 574 93<251.5 478>
Fore
89 339 m 1
 20 339 l 1
 20 406 l 1
 89 406 l 1
 89 729 l 1
 371 729 l 2
 555 729 667 591 667 365 c 0
 667 138 555 0 371 0 c 2
 89 0 l 1
 89 339 l 1
182 339 m 1
 182 82 l 1
 355 82 l 2
 498 82 574 179 574 365 c 0
 574 550 498 647 355 647 c 2
 182 647 l 1
 182 406 l 1
 353 406 l 1
 353 339 l 1
 182 339 l 1
EndSplineSet
EndChar
StartChar: dcroat
Encoding: 273 273 208
Width: 556
Flags: W
HStem: -23 82<184 309> 457 82<182.5 309.5> 600 53<261 411 494 557> 709 20G<411 494>
VStem: 26 87<177.5 347> 411 83<196.5 317.5 461 600 653 729> 420 74<0 59>
Fore
494 653 m 1xfc
 557 653 l 1
 557 600 l 1
 494 600 l 1xfc
 494 0 l 1
 420 0 l 1
 420 59 l 1xfa
 372 3 319 -23 252 -23 c 0
 116 -23 26 91 26 264 c 0
 26 430 115 539 250 539 c 0
 318 539 367 515 411 461 c 1
 411 600 l 1
 261 600 l 1
 261 653 l 1
 411 653 l 1
 411 729 l 1
 494 729 l 1
 494 653 l 1xfc
265 457 m 0
 174 457 113 377 113 258 c 0
 113 139 174 59 265 59 c 0
 353 59 411 137 411 256 c 0
 411 379 354 457 265 457 c 0
EndSplineSet
EndChar
StartChar: Emacron
Encoding: 274 274 209
Width: 667
Flags: W
HStem: 0 82<90 613> 332 82<183 580> 647 82<90 595> 801 70<206 480>
VStem: 90 93<0 729>
Back
183 332 m 1
 183 82 l 1
 613 82 l 1
 613 0 l 1
 90 0 l 1
 90 729 l 1
 595 729 l 1
 595 647 l 1
 183 647 l 1
 183 414 l 1
 580 414 l 1
 580 332 l 1
 183 332 l 1
482 900 m 1
 482 830 l 1
 208 830 l 1
 208 900 l 1
 482 900 l 1
EndSplineSet
Refer: 2384 713 N 1 0 0 1 178 170 2
Refer: 37 69 N 1 0 0 1 0 0 3
EndChar
StartChar: emacron
Encoding: 275 275 210
Width: 556
Flags: W
HStem: -23 77<204.5 338> 234 68<127 513> 462 77<207 329> 599 70<143 417>
VStem: 424 89<234 351>
Back
513 234 m 1
 127 234 l 1
 128 182 135 152 155 122 c 0
 183 78 228 54 281 54 c 0
 348 54 395 90 418 159 c 1
 502 159 l 1
 481 45 398 -23 278 -23 c 0
 131 -23 40 83 40 255 c 128
 40 427 134 539 280 539 c 0
 378 539 458 487 492 401 c 0
 507 362 513 314 513 234 c 1
129 302 m 1
 423 302 l 1
 424 304 424 306 424 308 c 0
 424 394 361 462 279 462 c 0
 195 462 136 399 129 302 c 1
422 701 m 1
 422 631 l 1
 148 631 l 1
 148 701 l 1
 422 701 l 1
EndSplineSet
Refer: 2384 713 N 1 0 0 1 115 -32 2
Refer: 69 101 N 1 0 0 1 0 0 3
EndChar
StartChar: Edotaccent
Encoding: 278 278 213
Width: 667
Flags: HW
HStem: 0 82<90 613> 332 82<183 580> 647 82<90 595>
VStem: 90 93<0 729>
Back
183 332 m 1
 183 82 l 1
 613 82 l 1
 613 0 l 1
 90 0 l 1
 90 729 l 1
 595 729 l 1
 595 647 l 1
 183 647 l 1
 183 414 l 1
 580 414 l 1
 580 332 l 1
 183 332 l 1
397 915 m 1
 397 811 l 1
 293 811 l 1
 293 915 l 1
 397 915 l 1
EndSplineSet
Refer: 475 729 N 1 0 0 1 176 189 2
Refer: 37 69 N 1 0 0 1 0 0 3
EndChar
StartChar: edotaccent
Encoding: 279 279 214
Width: 556
Flags: HW
HStem: -23 77<204.5 338> 234 68<127 513> 462 77<207 329>
VStem: 424 89<234 351>
Back
513 234 m 1
 127 234 l 1
 128 182 135 152 155 122 c 0
 183 78 228 54 281 54 c 0
 348 54 395 90 418 159 c 1
 502 159 l 1
 481 45 398 -23 278 -23 c 0
 131 -23 40 83 40 255 c 128
 40 427 134 539 280 539 c 0
 378 539 458 487 492 401 c 0
 507 362 513 314 513 234 c 1
129 302 m 1
 423 302 l 1
 424 304 424 306 424 308 c 0
 424 394 361 462 279 462 c 0
 195 462 136 399 129 302 c 1
337 716 m 1
 337 612 l 1
 233 612 l 1
 233 716 l 1
 337 716 l 1
EndSplineSet
Refer: 475 729 N 1 0 0 1 113 -13 2
Refer: 69 101 N 1 0 0 1 0 0 3
EndChar
StartChar: Eogonek
Encoding: 280 280 215
Width: 667
Flags: HW
HStem: 0 82<90 613> 332 82<183 580> 647 82<90 595>
VStem: 90 93<0 729>
Back
183 332 m 1
 183 82 l 1
 613 82 l 1
 613 0 l 1
 549 -30 517 -65 517 -106 c 0
 517 -141 542 -160 589 -160 c 0
 613 -160 634 -157 652 -150 c 1
 652 -195 l 1
 629 -200 595 -205 577 -205 c 0
 555 -205 530 -200 507 -192 c 0
 465 -176 444 -150 444 -111 c 0
 444 -63 474 -30 545 0 c 1
 90 0 l 1
 90 729 l 1
 595 729 l 1
 595 647 l 1
 183 647 l 1
 183 414 l 1
 580 414 l 1
 580 332 l 1
 183 332 l 1
EndSplineSet
Refer: 477 731 N 1 0 0 1 387 -0 2
Refer: 37 69 N 1 0 0 1 0 0 3
EndChar
StartChar: eogonek
Encoding: 281 281 216
Width: 556
Flags: W
HStem: -204 44<376 435.5> -23 77<204.5 314.5> 234 68<127 513> 462 77<207 329>
VStem: 40 473<167.5 340.5> 279 72<-142.5 -57>
Back
513 234 m 1
 127 234 l 1
 128 182 136 152 155 122 c 0
 184 78 229 54 281 54 c 0
 348 54 395 90 419 159 c 1
 503 159 l 1
 493 104 468 61 422 15 c 0
 368 -41 351 -71 351 -109 c 0
 351 -141 378 -160 423 -160 c 0
 448 -160 469 -157 487 -150 c 1
 487 -195 l 1
 460 -201 440 -204 418 -204 c 0
 334 -204 279 -169 279 -116 c 0
 279 -93 290 -67 307 -48 c 0
 314 -41 321 -35 347 -15 c 1
 317 -21 302 -23 279 -23 c 0
 130 -23 40 81 40 254 c 128
 40 427 134 539 280 539 c 0
 378 539 459 487 492 401 c 0
 507 363 514 314 513 234 c 1
424 302 m 1
 424 308 l 2
 424 394 361 462 279 462 c 0
 195 462 136 399 130 302 c 1
 424 302 l 1
EndSplineSet
Fore
503 159 m 1xf8
 476 11 351 -5 351 -109 c 0
 351 -141 378 -160 423 -160 c 0
 448 -160 469 -157 487 -150 c 1
 487 -195 l 1
 460 -201 440 -204 418 -204 c 0
 334 -204 279 -169 279 -116 c 0
 279 -59 330 -28 347 -15 c 1
 317 -21 302 -23 279 -23 c 0xf4
 130 -23 40 81 40 254 c 0
 40 427 134 539 280 539 c 0
 378 539 459 487 492 401 c 0
 506 365 513 320 513 249 c 0
 513 234 l 1
 127 234 l 1
 130 88 221 54 281 54 c 0
 348 54 395 90 419 159 c 1
 503 159 l 1xf8
424 302 m 1
 424 308 l 2
 424 394 361 462 279 462 c 0
 195 462 136 399 130 302 c 1
 424 302 l 1
EndSplineSet
EndChar
StartChar: Ecaron
Encoding: 282 282 217
Width: 667
Flags: HW
HStem: 0 82<90 613> 332 82<183 580> 647 82<90 595>
VStem: 90 93<0 729>
Back
183 332 m 1
 183 82 l 1
 613 82 l 1
 613 0 l 1
 90 0 l 1
 90 729 l 1
 595 729 l 1
 595 647 l 1
 183 647 l 1
 183 414 l 1
 580 414 l 1
 580 332 l 1
 183 332 l 1
392 790 m 1
 297 790 l 1
 201 940 l 1
 264 940 l 1
 345 844 l 1
 424 940 l 1
 488 940 l 1
 392 790 l 1
EndSplineSet
Refer: 1868 711 S 1 0 0 1 183 199 2
Refer: 37 69 N 1 0 0 1 0 0 3
EndChar
StartChar: ecaron
Encoding: 283 283 218
Width: 556
Flags: HW
HStem: -23 77<204.5 338> 234 68<127 513> 462 77<207 329>
VStem: 424 89<234 351>
Back
513 234 m 1
 127 234 l 1
 128 182 135 152 155 122 c 0
 183 78 228 54 281 54 c 0
 348 54 395 90 418 159 c 1
 502 159 l 1
 481 45 398 -23 278 -23 c 0
 131 -23 40 83 40 255 c 128
 40 427 134 539 280 539 c 0
 378 539 458 487 492 401 c 0
 507 362 513 314 513 234 c 1
129 302 m 1
 423 302 l 1
 424 304 424 306 424 308 c 0
 424 394 361 462 279 462 c 0
 195 462 136 399 129 302 c 1
334 591 m 1
 239 591 l 1
 143 741 l 1
 206 741 l 1
 287 645 l 1
 366 741 l 1
 430 741 l 1
 334 591 l 1
EndSplineSet
Refer: 1868 711 S 1 0 0 1 124 0 2
Refer: 69 101 N 1 0 0 1 0 0 3
EndChar
StartChar: Gbreve
Encoding: 286 286 221
Width: 778
Flags: HW
HStem: -23 82<279.5 464.5> 303 82<405 709> 659 82<254 477.5>
VStem: 44 93<245 451.5> 627 82<218 303 385 385>
Back
709 385 m 1
 709 -4 l 1
 650 -4 l 1
 627 93 l 1
 556 14 477 -23 378 -23 c 0
 181 -23 44 133 44 357 c 0
 44 488 92 601 176 671 c 0
 233 718 305 741 394 741 c 0
 561 741 673 656 699 508 c 1
 604 508 l 1
 584 602 504 659 393 659 c 0
 239 659 137 541 137 362 c 0
 137 272 166 185 214 133 c 0
 257 86 324 59 398 59 c 0
 531 59 627 153 627 283 c 2
 627 303 l 1
 405 303 l 1
 405 385 l 1
 709 385 l 1
249 931 m 1
 308 931 l 1
 313 887 343 865 400 865 c 0
 454 865 487 889 491 931 c 1
 550 931 l 1
 543 842 491 796 398 796 c 0
 342 796 297 816 270 853 c 0
 255 873 250 892 249 931 c 1
EndSplineSet
Refer: 474 728 N 1 0 0 1 228 204 2
Refer: 39 71 N 1 0 0 1 0 0 3
EndChar
StartChar: gbreve
Encoding: 287 287 222
Width: 556
Flags: HW
HStem: -218 70<193.5 354.5> -23 77<185.5 306> 462 77<185.5 306>
VStem: 29 87<167.5 338> 404 85<-16 86 -5 320.5> 412 77<448 524>
Back
412 524 m 1
 489 524 l 1
 489 86 l 2
 489 -37 474 -103 434 -151 c 0
 400 -193 333 -218 255 -218 c 0
 132 -218 55 -159 46 -60 c 1
 131 -60 l 1
 136 -91 144 -105 163 -120 c 0
 186 -138 220 -148 258 -148 c 0
 309 -148 352 -130 374 -99 c 0
 395 -70 404 -27 404 44 c 2
 404 71 l 1
 357 5 311 -23 245 -23 c 0
 190 -23 134 3 95 47 c 0
 52 97 29 167 29 253 c 0
 29 423 119 539 252 539 c 0
 319 539 370 510 412 448 c 1
 412 524 l 1
261 462 m 0
 172 462 116 384 116 258 c 0
 116 131 171 54 262 54 c 0
 350 54 404 130 404 255 c 0
 404 386 351 462 261 462 c 0
132 732 m 1
 191 732 l 1
 196 688 226 666 283 666 c 0
 337 666 370 690 374 732 c 1
 433 732 l 1
 426 643 374 597 281 597 c 0
 225 597 180 617 153 654 c 0
 139 674 133 693 132 732 c 1
EndSplineSet
Refer: 474 728 N 1 0 0 1 86 2 2
Refer: 71 103 N 1 0 0 1 0 0 3
EndChar
StartChar: Gcommaaccent
Encoding: 290 290 225
Width: 778
Flags: W
HStem: -207 20<325 385> -23 82<279.5 464.5> 303 82<405 709> 659 82<254 477.5>
VStem: 44 93<245 451.5> 385 45<-246 -187> 627 82<218 303 385 385>
Back
709 385 m 1
 709 -4 l 1
 650 -4 l 1
 627 93 l 1
 556 14 477 -23 378 -23 c 0
 181 -23 44 133 44 357 c 0
 44 488 92 601 176 671 c 0
 233 718 305 741 394 741 c 0
 561 741 673 656 699 508 c 1
 604 508 l 1
 584 602 504 659 393 659 c 0
 239 659 137 541 137 362 c 0
 137 272 166 185 214 133 c 0
 257 86 324 59 398 59 c 0
 531 59 627 153 627 283 c 2
 627 303 l 1
 405 303 l 1
 405 385 l 1
 709 385 l 1
337 -60 m 1
 437 -60 l 1
 437 -163 l 2
 437 -238 399 -285 337 -284 c 1
 337 -246 l 1
 375 -246 394 -215 392 -160 c 1
 337 -160 l 1
 337 -60 l 1
EndSplineSet
Refer: 12 44 N 1 0 0 1 238 -187 2
Refer: 39 71 N 1 0 0 1 0 0 3
EndChar
StartChar: gcommaaccent
Encoding: 291 291 226
Width: 697
Flags: HW
HStem: -218 70<193.5 354.5> -23 77<185.5 306> 462 77<185.5 306>
VStem: 29 87<167.5 338> 404 85<-16 86 -5 320.5> 412 77<448 524>
Back
412 524 m 1
 489 524 l 1
 489 86 l 2
 489 -37 474 -103 434 -151 c 0
 400 -193 333 -218 255 -218 c 0
 132 -218 55 -159 46 -60 c 1
 131 -60 l 1
 136 -91 144 -105 163 -120 c 0
 186 -138 220 -148 258 -148 c 0
 309 -148 352 -130 374 -99 c 0
 395 -70 404 -27 404 44 c 2
 404 71 l 1
 357 5 311 -23 245 -23 c 0
 190 -23 134 3 95 47 c 0
 52 97 29 167 29 253 c 0
 29 423 119 539 252 539 c 0
 319 539 370 510 412 448 c 1
 412 524 l 1
261 462 m 0
 172 462 116 384 116 258 c 0
 116 131 171 54 262 54 c 0
 350 54 404 130 404 255 c 0
 404 386 351 462 261 462 c 0
332 592 m 1
 232 592 l 1
 232 695 l 2
 232 770 270 817 332 816 c 1
 332 778 l 1
 330 777 l 2
 293 776 275 747 277 692 c 1
 332 692 l 1
 332 592 l 1
EndSplineSet
Refer: 493 786 N 1 0 0 1 421 0 2
Refer: 71 103 N 1 0 0 1 0 0 2
EndChar
StartChar: Hbar
Encoding: 294 294 229
Width: 722
Flags: W
HStem: 0 21G<83 177 551 644> 332 82<176 551> 504 72<176 551> 709 20G<83 176 551 644>
VStem: 83 94<0 332> 551 93<0 506 576 729>
Fore
176 504 m 5
 176 414 l 1
 551 414 l 1
 551 504 l 5
 176 504 l 5
83 576 m 5
 83 729 l 1
 176 729 l 1
 176 576 l 5
 551 576 l 5
 551 729 l 1
 644 729 l 1
 644 576 l 5
 688 576 l 5
 688 506 l 5
 644 506 l 5
 644 0 l 1
 551 0 l 1
 551 332 l 1
 177 332 l 1
 177 0 l 1
 83 0 l 1
 83 506 l 5
 39 506 l 5
 39 576 l 5
 83 576 l 5
EndSplineSet
EndChar
StartChar: hbar
Encoding: 295 295 230
Width: 556
Flags: W
HStem: 0 21G<70 153 403 486> 466 73<252 372> 600 53<7 70 153 303> 709 20G<70 153>
VStem: 70 83<0 600 653 729> 403 83<0 440>
Fore
403 363 m 2
 403 445 338 466 295 466 c 0
 209 466 153 396 153 289 c 2
 153 0 l 1
 70 0 l 1
 70 600 l 5
 7 600 l 5
 7 653 l 5
 70 653 l 5
 70 729 l 1
 153 729 l 1
 153 653 l 5
 303 653 l 5
 303 600 l 5
 153 600 l 5
 153 452 l 1
 202 516 247 539 321 539 c 0
 423 539 486 484 486 396 c 2
 486 0 l 1
 403 0 l 1
 403 363 l 2
EndSplineSet
EndChar
StartChar: Imacron
Encoding: 298 298 233
Width: 278
Flags: HW
HStem: 0 21<100 194> 709 20<100 194>
VStem: 100 94<0 729>
Back
194 729 m 1
 194 0 l 1
 100 0 l 1
 100 729 l 1
 194 729 l 1
274 900 m 1
 274 830 l 1
 20 830 l 1
 20 900 l 1
 274 900 l 1
EndSplineSet
Refer: 2384 713 N 1 0 0 1 -18 170 2
Refer: 41 73 N 1 0 0 1 0 0 3
EndChar
StartChar: imacron
Encoding: 299 299 234
Width: 278
Flags: HW
Back
149 524 m 1
 149 0 l 1
 66 0 l 1
 66 524 l 1
 149 524 l 1
231 701 m 1
 231 631 l 1
 -16 631 l 1
 -16 701 l 1
 231 701 l 1
EndSplineSet
Refer: 2384 713 N 1 0 0 1 -29 -32 2
Refer: 240 305 N 1 0 0 1 0 0 3
EndChar
StartChar: Iogonek
Encoding: 302 302 237
Width: 278
Flags: HW
HStem: 0 21<100 194> 709 20<100 194>
VStem: 100 94<0 729>
Back
194 729 m 1
 194 0 l 1
 158 -33 138 -71 138 -107 c 0
 138 -138 158 -159 189 -159 c 0
 203 -159 216 -156 234 -150 c 1
 234 -195 l 1
 216 -200 193 -204 175 -204 c 0
 110 -204 66 -169 66 -116 c 0
 66 -72 86 -41 143 0 c 1
 100 0 l 1
 100 729 l 1
 194 729 l 1
EndSplineSet
Refer: 477 731 N 1 0 0 1 -31 -0 2
Refer: 41 73 N 1 0 0 1 0 0 3
EndChar
StartChar: iogonek
Encoding: 303 303 238
Width: 222
Flags: HW
HStem: 709 20<66 150>
VStem: 66 84<624 729>
Back
150 524 m 1
 150 0 l 1
 120 -27 97 -71 97 -103 c 0
 97 -136 117 -159 147 -159 c 0
 160 -159 172 -156 190 -150 c 1
 190 -195 l 1
 173 -200 149 -204 132 -204 c 0
 69 -204 25 -168 25 -116 c 0
 25 -74 43 -45 99 0 c 1
 67 0 l 1
 67 524 l 1
 150 524 l 1
150 729 m 1
 150 624 l 1
 66 624 l 1
 66 729 l 1
 150 729 l 1
EndSplineSet
Refer: 477 731 S 1 0 0 1 -75 -0 2
Refer: 73 105 N 1 0 0 1 0 0 3
EndChar
StartChar: Idotaccent
Encoding: 304 304 239
Width: 278
Flags: HW
HStem: 0 21<100 194> 709 20<100 194>
VStem: 100 94<0 729>
Back
195 729 m 1
 195 0 l 1
 101 0 l 1
 101 729 l 1
 195 729 l 1
200 915 m 1
 200 811 l 1
 96 811 l 1
 96 915 l 1
 200 915 l 1
EndSplineSet
Refer: 475 729 N 1 0 0 1 -20 189 2
Refer: 41 73 N 1 0 0 1 0 0 3
EndChar
StartChar: dotlessi
Encoding: 305 305 240
Width: 278
Flags: W
HStem: 0 21G<94 177> 504 20G<94 177>
VStem: 94 83<0 524>
AnchorPoint: "above" 135 538 basechar 0
Fore
177 524 m 1
 177 0 l 1
 94 0 l 1
 94 524 l 1
 177 524 l 1
EndSplineSet
EndChar
StartChar: Kcommaaccent
Encoding: 310 310 245
Width: 667
Flags: W
HStem: -184 20<316 376> 0 21<79 172 548 658> 709 20<79 172 535 655>
VStem: 79 93<0 729> 376 45<-223 -164>
Back
172 255 m 1
 172 0 l 1
 79 0 l 1
 79 729 l 1
 172 729 l 1
 172 360 l 1
 535 729 l 1
 655 729 l 1
 358 432 l 1
 658 0 l 1
 548 0 l 1
 291 374 l 1
 172 255 l 1
299 -60 m 1
 399 -60 l 1
 399 -163 l 2
 399 -238 361 -285 299 -284 c 1
 299 -246 l 1
 337 -246 356 -215 354 -160 c 1
 299 -160 l 1
 299 -60 l 1
EndSplineSet
Refer: 12 44 N 1 0 0 1 229 -164 2
Refer: 43 75 N 1 0 0 1 0 0 3
EndChar
StartChar: kcommaaccent
Encoding: 311 311 246
Width: 500
Flags: W
HStem: -184 20<227 287> 0 21<58 141 399 502> 504 20<363 470> 709 20<58 141>
VStem: 58 83<0 729> 287 45<-223 -164>
Back
141 729 m 1
 141 302 l 1
 363 524 l 1
 470 524 l 1
 288 343 l 1
 502 0 l 1
 399 0 l 1
 222 284 l 1
 141 204 l 1
 141 0 l 1
 58 0 l 1
 58 729 l 1
 141 729 l 1
217 -60 m 1
 317 -60 l 1
 317 -163 l 2
 317 -238 279 -285 217 -284 c 1
 217 -246 l 1
 255 -246 274 -215 272 -160 c 1
 217 -160 l 1
 217 -60 l 1
EndSplineSet
Refer: 12 44 N 1 0 0 1 140 -164 2
Refer: 75 107 N 1 0 0 1 0 0 3
EndChar
StartChar: kgreenlandic
Encoding: 312 312 247
Width: 500
Flags: W
HStem: 0 21G<58 141 399 502> 504 20G<58 141 363 470>
VStem: 58 83<0 524>
Fore
141 524 m 1
 141 302 l 1
 363 524 l 1
 470 524 l 1
 198 264 l 1
 502 0 l 1
 399 0 l 1
 141 216 l 1
 141 0 l 1
 58 0 l 1
 58 524 l 1
 141 524 l 1
EndSplineSet
EndChar
StartChar: Lacute
Encoding: 313 313 248
Width: 556
Flags: HW
HStem: 0 82<80 533> 709 20<80 173>
VStem: 80 93<0 729>
Back
173 729 m 1
 173 82 l 1
 533 82 l 1
 533 0 l 1
 80 0 l 1
 80 729 l 1
 173 729 l 1
166 939 m 1
 279 939 l 1
 130 791 l 1
 70 791 l 1
 166 939 l 1
EndSplineSet
Refer: 1869 714 S 1 0 0 1 -22 199 2
Refer: 44 76 N 1 0 0 1 0 0 3
EndChar
StartChar: lacute
Encoding: 314 314 249
Width: 222
Flags: HW
HStem: 0 21<68 152> 709 20<68 152>
VStem: 68 84<0 729>
Back
152 729 m 1
 152 0 l 1
 68 0 l 1
 68 729 l 1
 152 729 l 1
159 939 m 1
 272 939 l 1
 123 791 l 1
 63 791 l 1
 159 939 l 1
EndSplineSet
Refer: 1869 714 S 1 0 0 1 -28 199 2
Refer: 76 108 N 1 0 0 1 0 0 3
EndChar
StartChar: Lcommaaccent
Encoding: 315 315 250
Width: 556
Flags: W
HStem: -184 20<254 314> 0 82<80 533> 709 20<80 173>
VStem: 80 93<0 729> 314 45<-223 -164>
Back
173 729 m 1
 173 82 l 1
 533 82 l 1
 533 0 l 1
 80 0 l 1
 80 729 l 1
 173 729 l 1
257 -60 m 1
 357 -60 l 1
 357 -163 l 2
 357 -238 319 -285 257 -284 c 1
 257 -246 l 1
 295 -246 314 -215 312 -160 c 1
 257 -160 l 1
 257 -60 l 1
EndSplineSet
Refer: 12 44 N 1 0 0 1 167 -164 2
Refer: 44 76 N 1 0 0 1 0 0 3
EndChar
StartChar: lcommaaccent
Encoding: 316 316 251
Width: 222
Flags: W
HStem: -184 20<57 117> 0 21<68 152> 709 20<68 152>
VStem: 68 84<0 729> 117 45<-223 -164>
Back
152 729 m 1
 152 0 l 1
 68 0 l 1
 68 729 l 1
 152 729 l 1
63 -60 m 1
 163 -60 l 1
 163 -163 l 2
 163 -238 125 -285 63 -284 c 1
 63 -246 l 1
 101 -246 120 -215 118 -160 c 1
 63 -160 l 1
 63 -60 l 1
EndSplineSet
Refer: 12 44 N 1 0 0 1 -30 -164 2
Refer: 76 108 N 1 0 0 1 0 0 3
EndChar
StartChar: Lcaron
Encoding: 317 317 252
Width: 556
Flags: W
HStem: 0 82<80 533> 617 20<273 333> 709 20<80 173>
VStem: 80 93<0 729> 333 45<578 637>
Back
173 729 m 1
 173 82 l 1
 533 82 l 1
 533 0 l 1
 80 0 l 1
 80 729 l 1
 173 729 l 1
273 729 m 1
 373 729 l 1
 373 626 l 2
 373 556 335 505 281 505 c 2
 273 505 l 1
 273 543 l 1
 311 543 330 574 328 629 c 1
 273 629 l 1
 273 729 l 1
EndSplineSet
Refer: 12 44 S 1 0 0 1 186 637 2
Refer: 44 76 N 1 0 0 1 0 0 2
EndChar
StartChar: lcaron
Encoding: 318 318 253
Width: 387
Flags: W
HStem: 0 21<68 152> 605 20<200 260> 709 20<68 152>
VStem: 68 84<0 729> 260 45<566 625>
Back
152 729 m 1
 152 0 l 1
 68 0 l 1
 68 729 l 1
 152 729 l 1
205 729 m 1
 305 729 l 1
 305 626 l 2
 305 556 267 505 213 505 c 2
 205 505 l 1
 205 543 l 1
 243 543 262 574 260 629 c 1
 205 629 l 1
 205 729 l 1
EndSplineSet
Refer: 12 44 N 1 0 0 1 113 625 2
Refer: 76 108 N 1 0 0 1 0 0 2
EndChar
StartChar: Lslash
Encoding: 321 321 256
Width: 556
Flags: W
HStem: 0 82<80 552> 709 20G<80 173>
VStem: 80 93<0 329 356 729>
Fore
173 406 m 5
 344 527 l 5
 344 451 l 5
 173 329 l 5
 173 82 l 1
 552 82 l 1
 552 0 l 1
 80 0 l 1
 80 280 l 5
 0 223 l 5
 0 300 l 5
 80 356 l 5
 80 729 l 1
 173 729 l 1
 173 406 l 5
EndSplineSet
EndChar
StartChar: lslash
Encoding: 322 322 257
Width: 222
Flags: W
HStem: 0 21G<63 146> 709 20G<63 146>
VStem: 63 83<0 357 377 729>
Fore
146 421 m 1
 212 472 l 1
 212 408 l 1
 146 357 l 1
 146 0 l 1
 63 0 l 1
 63 313 l 1
 0 263 l 1
 0 327 l 1
 63 377 l 1
 63 729 l 1
 146 729 l 1
 146 421 l 1
EndSplineSet
EndChar
StartChar: Ncommaaccent
Encoding: 325 325 260
Width: 722
Flags: W
HStem: -184 20<309 369> 0 21<76 164 541 646> 709 20<76 177 558 646>
VStem: 76 88<0 729> 369 45<-223 -164> 558 88<0 729>
Back
646 729 m 1
 646 0 l 1
 541 0 l 1
 164 591 l 1
 164 0 l 1
 76 0 l 1
 76 729 l 1
 177 729 l 1
 558 133 l 1
 558 729 l 1
 646 729 l 1
298 -60 m 1
 398 -60 l 1
 398 -163 l 2
 398 -238 360 -285 298 -284 c 1
 298 -246 l 1
 336 -246 355 -215 353 -160 c 1
 298 -160 l 1
 298 -60 l 1
EndSplineSet
Refer: 12 44 N 1 0 0 1 222 -164 2
Refer: 46 78 N 1 0 0 1 0 0 3
EndChar
StartChar: ncommaaccent
Encoding: 326 326 261
Width: 556
Flags: W
HStem: -184 20<226 286> 0 21<70 154 404 487> 466 73<253 371.5>
VStem: 70 77<436 524> 70 84<0 342.5> 286 45<-223 -164> 404 83<0 439.5>
Back
70 524 m 1
 147 524 l 1
 147 436 l 1
 193 509 243 539 321 539 c 0
 422 539 487 483 487 396 c 2
 487 0 l 1
 404 0 l 1
 404 363 l 2
 404 426 362 466 296 466 c 0
 210 466 154 396 154 289 c 2
 154 0 l 1
 70 0 l 1
 70 524 l 1
229 -60 m 1
 329 -60 l 1
 329 -163 l 2
 329 -238 291 -285 229 -284 c 1
 229 -246 l 1
 267 -246 286 -215 284 -160 c 1
 229 -160 l 1
 229 -60 l 1
EndSplineSet
Refer: 12 44 N 1 0 0 1 139 -164 2
Refer: 78 110 N 1 0 0 1 0 0 3
EndChar
StartChar: Eng
Encoding: 330 330 265
Width: 722
Flags: W
HStem: -218 73<488.5 545> 0 21G<76 164> 709 20G<76 177 558 646>
VStem: 76 88<0 729> 558 88<-144.5 729>
Fore
558 133 m 1
 558 729 l 1
 646 729 l 1
 646 -109 l 2
 646 -180 592 -218 498 -218 c 0
 485 -218 480 -217 470 -215 c 1
 470 -144 l 1
 487 -145 487 -145 490 -145 c 0
 541 -145 558 -128 558 -76 c 2
 558 -27 l 1
 164 591 l 1
 164 0 l 1
 76 0 l 1
 76 729 l 1
 177 729 l 1
 558 133 l 1
EndSplineSet
EndChar
StartChar: eng
Encoding: 331 331 266
Width: 556
Flags: W
HStem: -218 73<334.5 391> 0 21G<70 154> 466 73<253 371.5>
VStem: 70 77<436 524> 70 84<0 342.5> 404 83<-109 439.5>
Fore
487 396 m 2xf4
 487 -109 l 2
 487 -180 438 -218 344 -218 c 0
 331 -218 326 -217 316 -215 c 1
 316 -144 l 1
 333 -145 333 -145 336 -145 c 0
 387 -145 404 -128 404 -76 c 2
 404 363 l 2
 404 426 362 466 296 466 c 0
 210 466 154 396 154 289 c 2
 154 0 l 1
 70 0 l 1xec
 70 524 l 1
 147 524 l 1
 147 436 l 1
 193 509 243 539 321 539 c 0
 422 539 487 483 487 396 c 2xf4
EndSplineSet
EndChar
StartChar: Omacron
Encoding: 332 332 267
Width: 778
Flags: W
HStem: -23 82<285 499> 659 82<284.5 496> 801 70<252 526>
VStem: 38 93<245 473> 649 93<248 470.5>
Back
389 741 m 0
 603 741 742 588 742 353 c 0
 742 234 695 121 616 54 c 0
 557 4 478 -23 390 -23 c 0
 180 -23 38 131 38 359 c 128
 38 587 180 741 389 741 c 0
389 659 m 0
 235 659 131 539 131 359 c 128
 131 179 235 59 390 59 c 0
 544 59 649 179 649 355 c 0
 649 539 547 659 389 659 c 0
527 900 m 1
 527 830 l 1
 253 830 l 1
 253 900 l 1
 527 900 l 1
EndSplineSet
Refer: 2384 713 N 1 0 0 1 224 170 2
Refer: 47 79 N 1 0 0 1 0 0 3
EndChar
StartChar: omacron
Encoding: 333 333 268
Width: 556
Flags: W
HStem: -23 77<198.5 346.5> 462 77<198.5 347.5> 599 70<135 409>
VStem: 36 87<170 346> 423 87<168 344.5>
Back
272 539 m 0
 423 539 510 435 510 254 c 0
 510 82 420 -23 273 -23 c 0
 124 -23 36 82 36 258 c 128
 36 434 125 539 272 539 c 0
273 462 m 0
 180 462 123 384 123 258 c 0
 123 131 180 54 273 54 c 0
 365 54 423 132 423 255 c 0
 423 385 367 462 273 462 c 0
410 701 m 1
 410 631 l 1
 136 631 l 1
 136 701 l 1
 410 701 l 1
EndSplineSet
Refer: 2384 713 N 1 0 0 1 107 -32 2
Refer: 79 111 N 1 0 0 1 0 0 3
EndChar
StartChar: OE
Encoding: 338 338 273
Width: 1000
Flags: W
HStem: -20 82<279.5 383> 0 82<525 959> 327 82<618 946> 647 82<525 954> 659 82<281.5 384>
VStem: 43 93<205.5 510> 525 93<182 539>
AnchorPoint: "below" 571 0 basechar 0
AnchorPoint: "above" 571 729 basechar 0
Fore
43 356 m 0xa6
 43 664 221 741 342 741 c 0xae
 424 741 483 713 525 653 c 1
 525 729 l 1
 954 729 l 1
 954 647 l 1
 618 647 l 1
 618 409 l 1
 946 409 l 1
 946 327 l 1
 618 327 l 1
 618 82 l 1
 959 82 l 1
 959 0 l 1
 525 0 l 1x76
 525 74 l 1
 479 9 422 -20 341 -20 c 0
 218 -20 43 55 43 356 c 0xa6
136 360 m 0
 136 107 253 62 341 62 c 0
 425 62 485 101 525 182 c 1
 525 539 l 1
 485 620 426 659 342 659 c 0
 249 659 136 610 136 360 c 0
EndSplineSet
EndChar
StartChar: oe
Encoding: 339 339 274
Width: 944
Flags: W
HStem: -23 77<201.5 323 622.5 724.5> 234 68<513 899> 462 77<201.5 324 623 715>
VStem: 40 87<169 348.5> 809 90<234 349.5>
AnchorPoint: "below" 474 0 basechar 0
AnchorPoint: "above" 474 538 basechar 0
Fore
513 234 m 1
 516 88 605 54 667 54 c 0
 734 54 781 90 804 159 c 1
 888 159 l 1
 867 45 784 -23 665 -23 c 0
 580 -23 511 14 471 80 c 1
 429 11 365 -23 277 -23 c 0
 126 -23 40 79 40 259 c 0
 40 438 126 539 277 539 c 0
 366 539 433 503 473 433 c 1
 514 500 585 539 666 539 c 0
 764 539 844 487 878 401 c 0
 893 362 899 314 899 234 c 1
 513 234 l 1
277 462 m 0
 184 462 127 385 127 259 c 0
 127 131 184 54 277 54 c 0
 369 54 427 131 427 256 c 0
 427 385 371 462 277 462 c 0
515 302 m 1
 809 302 l 1
 809 397 750 462 665 462 c 0
 581 462 522 399 515 302 c 1
EndSplineSet
EndChar
StartChar: Rcommaaccent
Encoding: 342 342 277
Width: 722
Flags: HW
HStem: -184 20<333 393> 0 21<93 186 566 679> 314 82<186 467.5> 647 82<93 500.5>
VStem: 93 93<0 729> 393 45<-223 -164> 554 97<478 597>
Back
186 314 m 1
 186 0 l 1
 93 0 l 1
 93 729 l 1
 429 729 l 2
 572 729 651 660 651 534 c 0
 651 451 618 400 536 360 c 1
 615 326 634 290 635 170 c 0
 637 73 644 47 679 23 c 1
 679 0 l 1
 566 0 l 1
 553 30 545 74 545 119 c 1
 546 184 l 1
 546 274 509 314 426 314 c 2
 186 314 l 1
186 396 m 1
 411 396 l 2
 510 396 554 435 554 521 c 0
 554 565 541 598 516 619 c 0
 493 639 463 647 411 647 c 2
 186 647 l 1
 186 396 l 1
319 -60 m 1
 419 -60 l 1
 419 -163 l 2
 419 -238 381 -285 319 -284 c 1
 319 -246 l 1
 357 -246 376 -215 374 -160 c 1
 319 -160 l 1
 319 -60 l 1
EndSplineSet
Refer: 12 44 S 1 0 0 1 228 -164 2
Refer: 50 82 N 1 0 0 1 0 0 3
EndChar
StartChar: rcommaaccent
Encoding: 343 343 278
Width: 333
Flags: W
HStem: -184 20<59 119> 0 21<69 153> 451 88<262 321>
VStem: 69 77<429 524> 69 84<0 345.5> 119 45<-223 -164>
Back
69 524 m 1
 146 524 l 1
 146 429 l 1
 194 507 235 539 289 539 c 0
 300 539 307 538 321 536 c 1
 321 451 l 1
 263 450 238 444 212 425 c 0
 172 396 153 347 153 272 c 2
 153 0 l 1
 69 0 l 1
 69 524 l 1
65 -60 m 1
 165 -60 l 1
 165 -163 l 2
 165 -238 127 -285 65 -284 c 1
 65 -246 l 1
 103 -246 122 -215 120 -160 c 1
 65 -160 l 1
 65 -60 l 1
EndSplineSet
Refer: 12 44 N 1 0 0 1 -28 -164 2
Refer: 82 114 N 1 0 0 1 0 0 3
EndChar
StartChar: Scedilla
Encoding: 350 350 285
Width: 667
Flags: W
HStem: -214 41<278.5 342> -91 37<300.5 373> -24 83<259.5 421> 663 78<249 413>
VStem: 48 88<164.5 232> 70 93<482.5 593> 352 75<-149.5 -99.5> 528 93<152.5 245>
Fore
342 59 m 0xfb
 500 59 528 139 528 191 c 0
 528 248 486 285 394 309 c 2
 213 357 l 2
 117 382 70 438 70 527 c 0
 70 659 169 741 329 741 c 0
 497 741 595 658 596 515 c 1
 508 515 l 1
 507 610 442 663 326 663 c 0
 228 663 163 614 163 540 c 0xf7
 163 484 195 456 283 432 c 2
 466 383 l 2
 565 356 621 290 621 200 c 0
 621 105 571 -14 335 -24 c 1
 320 -56 l 1
 334 -54 340 -54 348 -54 c 0
 398 -54 427 -78 427 -121 c 0
 427 -178 380 -214 304 -214 c 0
 266 -214 241 -207 179 -180 c 1
 200 -140 l 1
 232 -154 259 -173 298 -173 c 0
 329 -173 352 -154 352 -128 c 0
 352 -105 335 -91 306 -91 c 0
 295 -91 287 -93 275 -98 c 1
 264 -92 l 1
 295 -23 l 1
 289 -21 285 -20 284 -20 c 2
 240 -13 l 1
 121 12 48 104 48 225 c 0
 48 227 48 230 48 232 c 1
 136 232 l 1
 136 230 136 229 136 227 c 0
 136 153 177 59 342 59 c 0xfb
EndSplineSet
EndChar
StartChar: scedilla
Encoding: 351 351 286
Width: 500
Flags: W
HStem: -214 41<188.5 252> -91 37<210 283> 462 77<187 308.5>
VStem: 47 87<338 427.5> 262 75<-149.5 -99.5> 372 87<111.5 182>
Fore
122 156 m 1
 129 105 148 54 250 54 c 0
 323 54 372 87 372 136 c 0
 372 174 349 195 291 209 c 2
 213 228 l 2
 89 258 47 297 47 379 c 0
 47 476 126 539 248 539 c 0
 369 539 437 481 438 378 c 1
 350 378 l 1
 348 433 312 462 245 462 c 0
 177 462 134 431 134 383 c 0
 134 346 163 324 231 308 c 2
 311 289 l 2
 415 264 459 221 459 143 c 0
 459 81 422 25 361 -2 c 0
 334 -14 304 -20 244 -24 c 1
 230 -56 l 1
 244 -54 250 -54 258 -54 c 0
 308 -54 337 -78 337 -121 c 0
 337 -178 290 -214 214 -214 c 0
 176 -214 151 -207 89 -180 c 1
 110 -140 l 1
 142 -154 169 -173 208 -173 c 0
 239 -173 262 -154 262 -128 c 0
 262 -105 245 -91 216 -91 c 0
 204 -91 197 -93 185 -98 c 1
 174 -92 l 1
 205 -21 l 1
 93 -10 36 48 34 156 c 1
 122 156 l 1
EndSplineSet
EndChar
StartChar: tcaron
Encoding: 357 357 292
Width: 443
Flags: W
HStem: -23 73<153.5 222> 456 68<14 85 168 254> 544 20<296 356>
VStem: 85 83<60 456 524 668> 356 45<505 564>
Back
254 524 m 1
 254 456 l 1
 168 456 l 1
 168 97 l 2
 168 60 178 50 214 50 c 0
 230 50 243 51 254 54 c 1
 254 -16 l 1
 226 -21 206 -23 186 -23 c 0
 121 -23 85 7 85 60 c 2
 85 456 l 1
 14 456 l 1
 14 524 l 1
 85 524 l 1
 85 668 l 1
 168 668 l 1
 168 524 l 1
 254 524 l 1
221 800 m 1
 321 800 l 1
 321 697 l 2
 321 627 283 576 229 576 c 2
 221 576 l 1
 221 614 l 1
 259 614 278 645 276 700 c 1
 221 700 l 1
 221 800 l 1
EndSplineSet
Refer: 12 44 S 1 0 0 1 209 564 2
Refer: 84 116 N 1 0 0 1 0 0 2
EndChar
StartChar: Tbar
Encoding: 358 358 293
Width: 611
Flags: W
HStem: 0 21G<261 354> 357 72<120 495> 647 82<21 593>
VStem: 261 93<0 647>
Fore
120 357 m 13
 120 429 l 21
 495 429 l 13
 495 357 l 21
 120 357 l 13
354 647 m 1
 354 0 l 1
 261 0 l 1
 261 647 l 1
 21 647 l 1
 21 729 l 1
 593 729 l 1
 593 647 l 1
 354 647 l 1
EndSplineSet
EndChar
StartChar: tbar
Encoding: 359 359 294
Width: 278
Flags: W
HStem: -23 73<153.5 222> 240 72<9 247> 456 68<14 85 168 254>
VStem: 85 83<60 456 524 668>
Fore
9 312 m 1
 247 312 l 1
 247 240 l 1
 9 240 l 1
 9 312 l 1
254 524 m 1
 254 456 l 1
 168 456 l 1
 168 97 l 2
 168 60 178 50 214 50 c 0
 230 50 243 51 254 54 c 1
 254 -16 l 1
 226 -21 206 -23 186 -23 c 0
 121 -23 85 7 85 60 c 2
 85 456 l 1
 14 456 l 1
 14 524 l 1
 85 524 l 1
 85 668 l 1
 168 668 l 1
 168 524 l 1
 254 524 l 1
EndSplineSet
EndChar
StartChar: Uogonek
Encoding: 370 370 305
Width: 722
Flags: W
HStem: -205 45<490 551> -23 82<279 422.5> 709 20G<85 178 552 645>
VStem: 85 93<142.5 729> 394 73<-140 -56.5> 552 93<123 729>
Fore
527 -205 m 0
 453 -205 394 -168 394 -112 c 0
 394 -71 415 -42 467 -10 c 1
 423 -20 402 -23 366 -23 c 0
 192 -23 85 68 85 217 c 2
 85 729 l 1
 178 729 l 1
 178 217 l 2
 178 107 257 59 364 59 c 0
 481 59 552 119 552 217 c 2
 552 729 l 1
 645 729 l 1
 645 217 l 2
 645 29 467 -7 467 -106 c 0
 467 -141 492 -160 539 -160 c 0
 563 -160 584 -157 602 -150 c 1
 602 -195 l 1
 578 -200 545 -205 527 -205 c 0
EndSplineSet
EndChar
StartChar: uogonek
Encoding: 371 371 306
Width: 556
Flags: W
HStem: -204 44<427.5 480> -23 73<181 299.5> 504 20G<65 148 399 482>
VStem: 65 83<76.5 524> 333 72<-139.5 -88.5> 399 83<173.5 524> 407 75<0 73>
Fore
482 524 m 1xf4
 482 0 l 1
 436 -26 405 -69 405 -108 c 0
 405 -140 431 -160 472 -160 c 0
 488 -160 500 -158 521 -150 c 1
 521 -195 l 1
 502 -198 483 -204 469 -204 c 0
 386 -204 333 -168 333 -111 c 0
 333 -68 363 -34 429 0 c 1
 407 0 l 1
 407 73 l 1xfa
 358 4 309 -23 232 -23 c 0
 130 -23 65 33 65 120 c 2
 65 524 l 1
 148 524 l 1
 148 153 l 2
 148 90 190 50 256 50 c 0
 343 50 399 120 399 227 c 2
 399 524 l 1
 482 524 l 1xf4
EndSplineSet
EndChar
StartChar: longs
Encoding: 383 383 318
Width: 278
Flags: W
HStem: 0 21G<88 171> 456 68<18 88> 659 73<172.5 232.5>
VStem: 88 83<0 623.5>
Fore
171 0 m 1
 88 0 l 1
 88 456 l 1
 18 456 l 1
 18 524 l 1
 88 524 l 1
 88 613 l 2
 88 688 134 732 211 732 c 0
 228 732 239 731 258 727 c 1
 258 658 l 1
 239 659 236 659 229 659 c 0
 191 659 171 641 171 606 c 2
 171 0 l 1
EndSplineSet
EndChar
StartChar: uni0183
Encoding: 387 387 321
Width: 556
Flags: W
HStem: -23 78<239 364> 461 78<239 368> 656 73<54 445>
VStem: 54 75<0 67> 54 83<196.5 319.5 453 729> 436 87<177 349>
Fore
283 461 m 0xec
 195 461 137 381 137 258 c 0
 137 135 195 55 283 55 c 0
 374 55 436 136 436 255 c 0
 436 380 376 461 283 461 c 0xec
54 0 m 1xf4
 54 729 l 1
 445 729 l 1
 445 656 l 1
 137 656 l 1
 137 453 l 1xec
 176 512 227 539 299 539 c 0
 437 539 523 434 523 264 c 0
 523 90 433 -23 295 -23 c 0
 222 -23 169 6 129 67 c 1
 129 0 l 1
 54 0 l 1xf4
EndSplineSet
EndChar
StartChar: uni0184
Encoding: 388 388 322
Width: 667
Flags: W
HStem: 0 82<79 393> 369 82<172 442.5> 709 20G<79 172>
VStem: 79 93<0 477 554 729> 530 93<159.5 267.5>
Fore
172 82 m 1
 384 82 l 2
 470 82 530 144 530 225 c 0
 530 310 471 369 384 369 c 2
 172 369 l 1
 172 82 l 1
172 539 m 1
 172 451 l 1
 337 451 l 2
 548 451 623 355 623 229 c 0
 623 226 l 0
 623 93 525 0 393 0 c 2
 79 0 l 1
 79 477 l 1
 0 425 l 1
 0 502 l 1
 79 554 l 1
 79 729 l 1
 172 729 l 1
 172 616 l 1
 344 729 l 1
 344 653 l 1
 172 539 l 1
EndSplineSet
EndChar
StartChar: uni0185
Encoding: 389 389 323
Width: 556
Flags: W
HStem: -23 78<239 364> 461 78<239 368> 709 20G<54 137>
VStem: 54 75<0 67> 54 83<196.5 319.5 453 543 607 729> 436 87<177 349>
Fore
283 461 m 0xec
 195 461 137 381 137 258 c 0
 137 135 195 55 283 55 c 0
 374 55 436 136 436 255 c 0
 436 380 376 461 283 461 c 0xec
137 587 m 1
 137 453 l 1xec
 176 512 227 539 299 539 c 0
 437 539 523 434 523 264 c 0
 523 90 433 -23 295 -23 c 0
 222 -23 169 6 129 67 c 1
 129 0 l 1
 54 0 l 1xf4
 54 543 l 1
 -9 493 l 1
 -9 557 l 1
 54 607 l 1
 54 729 l 1
 137 729 l 1
 137 651 l 1
 203 702 l 1
 203 638 l 1
 137 587 l 1
EndSplineSet
EndChar
StartChar: florin
Encoding: 402 402 324
Width: 556
Flags: W
HStem: -212 78<54 146> 392 70<140 265 341 467> 658 80<436.5 476>
Fore
467 462 m 1
 467 392 l 1
 341 392 l 1
 266 -5 l 2
 258 -51 226 -212 66 -212 c 0
 42 -212 24 -209 11 -202 c 1
 28 -118 l 1
 45 -129 59 -134 79 -134 c 0
 130 -134 160 -98 175 -21 c 0
 253 392 l 1
 140 392 l 1
 140 462 l 1
 265 462 l 1
 287 566 l 2
 318 724 433 738 463 738 c 0
 489 738 512 732 542 719 c 1
 512 640 l 1
 487 654 475 658 460 658 c 0
 413 658 381 614 366 532 c 1
 354 462 l 1
 467 462 l 1
EndSplineSet
EndChar
StartChar: uni0193
Encoding: 403 403 325
Width: 778
Flags: W
HStem: -23 82<279.5 464.5> 303 82<405 709> 643 83<711 760.5> 659 82<254 448.5>
VStem: 44 93<245 451.5> 627 82<218 303 385 385>
Fore
137 362 m 0xdc
 137 245 189 59 398 59 c 0
 531 59 627 153 627 283 c 2
 627 303 l 1
 405 303 l 1
 405 385 l 1
 709 385 l 1
 709 -4 l 1
 650 -4 l 1
 627 93 l 1
 556 14 477 -23 378 -23 c 0
 181 -23 44 133 44 357 c 0
 44 503 114 741 394 741 c 0
 491 741 570 712 624 659 c 1xdc
 642 702 683 726 739 726 c 0
 756 726 767 725 786 721 c 1
 786 642 l 1
 767 643 764 643 757 643 c 0xec
 719 643 699 630 699 590 c 2
 699 508 l 1
 604 508 l 1
 584 602 504 659 393 659 c 0
 239 659 137 541 137 362 c 0xdc
EndSplineSet
EndChar
StartChar: uni0199
Encoding: 409 409 326
Width: 500
Flags: W
HStem: 0 21G<58 141 399 502> 504 20G<363 470> 659 73<142.5 202.5>
VStem: 58 83<0 623.5>
Fore
58 0 m 1
 58 613 l 2
 58 688 104 732 181 732 c 0
 198 732 209 731 228 727 c 1
 228 658 l 1
 209 659 206 659 199 659 c 0
 161 659 141 641 141 606 c 2
 141 302 l 1
 363 524 l 1
 470 524 l 1
 288 343 l 1
 502 0 l 1
 399 0 l 1
 222 284 l 1
 141 204 l 1
 141 0 l 1
 58 0 l 1
EndSplineSet
EndChar
StartChar: uni019F
Encoding: 415 415 327
Width: 778
Flags: W
HStem: -23 82<285 499> 315 70<132 648> 659 82<284.5 496>
Fore
742 353 m 0
 742 143 608 -23 390 -23 c 0
 180 -23 38 131 38 359 c 0
 38 587 180 741 389 741 c 0
 603 741 742 588 742 353 c 0
648 385 m 1
 638 552 538 659 389 659 c 0
 243 659 141 550 132 385 c 1
 648 385 l 1
647 315 m 1
 133 315 l 1
 149 160 248 59 390 59 c 0
 532 59 632 161 647 315 c 1
EndSplineSet
EndChar
StartChar: uni01A5
Encoding: 421 421 328
Width: 556
Flags: W
HStem: -23 78<240 366.5> 461 78<240 367.5> 659 73<134.5 192.5>
VStem: 54 77<445 650.5> 54 84<-218 55 196.5 319.5> 436 87<169.5 341>
AnchorPoint: "below" 272 -200 basechar 0
AnchorPoint: "above" 272 538 basechar 0
Fore
284 461 m 0xec
 196 461 138 381 138 258 c 0
 138 135 196 55 284 55 c 0
 375 55 436 136 436 255 c 0
 436 380 376 461 284 461 c 0xec
131 606 m 2xf4
 131 445 l 1xf4
 170 507 227 539 298 539 c 0
 437 539 523 429 523 253 c 0
 523 86 434 -23 299 -23 c 0
 231 -23 182 1 138 55 c 1
 138 -218 l 1
 54 -218 l 1xec
 54 613 l 2
 54 688 96 732 173 732 c 0
 190 732 199 731 218 727 c 1
 218 658 l 1
 199 659 196 659 189 659 c 0
 151 659 131 641 131 606 c 2xf4
EndSplineSet
EndChar
StartChar: uni01A9
Encoding: 425 425 330
Width: 611
Flags: W
HStem: 0 82<28 583> 647 82<30 555>
Fore
247 365 m 1
 30 645 l 1
 30 729 l 1
 555 729 l 1
 555 647 l 1
 145 647 l 1
 364 365 l 25
 145 82 l 1
 583 82 l 1
 583 0 l 1
 28 0 l 1
 28 82 l 1
 247 365 l 1
EndSplineSet
EndChar
StartChar: uni01AD
Encoding: 429 429 331
Width: 278
Flags: W
HStem: -23 73<153.5 222> 456 68<14 85 168 254> 659 73<169.5 229.5>
VStem: 85 83<60 456 524 650.5>
Fore
168 606 m 2
 168 524 l 1
 254 524 l 1
 254 456 l 1
 168 456 l 1
 168 97 l 2
 168 60 178 50 214 50 c 0
 230 50 243 51 254 54 c 1
 254 -16 l 1
 226 -21 206 -23 186 -23 c 0
 121 -23 85 7 85 60 c 2
 85 456 l 1
 14 456 l 1
 14 524 l 1
 85 524 l 1
 85 613 l 2
 85 688 131 732 208 732 c 0
 225 732 236 731 255 727 c 1
 255 658 l 1
 236 659 233 659 226 659 c 0
 188 659 168 641 168 606 c 2
EndSplineSet
EndChar
StartChar: uni01AE
Encoding: 430 430 332
Width: 611
Flags: W
HStem: -218 83<367 423.5> 647 82<21 593>
VStem: 261 93<-144.5 647>
Fore
261 -109 m 2
 261 647 l 1
 21 647 l 1
 21 729 l 1
 593 729 l 1
 593 647 l 1
 354 647 l 1
 354 -76 l 2
 354 -120 381 -135 422 -135 c 0
 425 -135 425 -135 442 -134 c 1
 442 -215 l 1
 432 -217 427 -218 414 -218 c 0
 320 -218 261 -180 261 -109 c 2
EndSplineSet
EndChar
StartChar: Scommaaccent
Encoding: 536 536 410
Width: 667
Flags: W
HStem: -284 38<291 323.5> -160 100<291 391> -23 82<259.5 450> 663 78<249 413>
VStem: 48 88<190 232> 70 93<482.5 593> 291 100<-284 -246 -160 -60> 346 45<-200 -160> 528 93<155.5 245>
Fore
342 59 m 0xf880
 500 59 528 139 528 191 c 0
 528 248 486 285 394 309 c 2
 213 357 l 2
 117 382 70 438 70 527 c 0
 70 659 169 741 329 741 c 0
 497 741 595 658 596 515 c 1
 508 515 l 1
 507 610 442 663 326 663 c 0
 228 663 163 614 163 540 c 0xf480
 163 484 195 456 283 432 c 2
 466 383 l 2
 565 356 621 290 621 200 c 0
 621 111 564 -23 336 -23 c 0
 210 -23 51 25 48 232 c 1
 136 232 l 1
 136 230 136 229 136 227 c 0
 136 153 177 59 342 59 c 0xf880
291 -60 m 1xf280
 391 -60 l 1xf280
 391 -163 l 2xf180
 391 -237 354 -284 293 -284 c 0
 292 -284 292 -284 291 -284 c 1
 291 -246 l 1xf280
 327 -246 346 -218 346 -168 c 0
 346 -165 346 -163 346 -160 c 1xf180
 291 -160 l 1
 291 -60 l 1xf280
EndSplineSet
EndChar
StartChar: scommaaccent
Encoding: 537 537 411
Width: 500
Flags: W
HStem: -284 38<197 229.5> -160 100<197 297> -23 77<174.5 309> 462 77<187 308.5>
VStem: 47 87<338 427.5> 197 100<-284 -246 -160 -60> 252 45<-200 -160> 372 87<92.5 182>
Fore
122 156 m 1xf9
 129 105 148 54 250 54 c 0
 323 54 372 87 372 136 c 0
 372 174 349 195 291 209 c 2
 213 228 l 2
 89 258 47 297 47 379 c 0
 47 476 126 539 248 539 c 0
 369 539 437 481 438 378 c 1
 350 378 l 1
 348 433 312 462 245 462 c 0
 177 462 134 431 134 383 c 0
 134 346 163 324 231 308 c 2
 311 289 l 2
 415 264 459 221 459 143 c 0
 459 42 375 -23 243 -23 c 0
 106 -23 38 35 34 156 c 1
 122 156 l 1xf9
197 -60 m 1xfd
 297 -60 l 1xfd
 297 -163 l 2xfb
 297 -237 260 -284 199 -284 c 0
 198 -284 198 -284 197 -284 c 1
 197 -246 l 1xfd
 233 -246 252 -218 252 -168 c 0
 252 -165 252 -163 252 -160 c 1xfb
 197 -160 l 1
 197 -60 l 1xfd
EndSplineSet
EndChar
StartChar: Tcommaaccent
Encoding: 538 538 412
Width: 611
Flags: W
HStem: -284 38<260 292.5> -160 100<260 360> 0 21G<261 354> 647 82<21 593>
VStem: 260 100<-284 -246 -160 -60> 315 45<-200 -160>
Fore
354 647 m 1xf0
 354 0 l 1
 261 0 l 1
 261 647 l 1
 21 647 l 1
 21 729 l 1
 593 729 l 1
 593 647 l 1
 354 647 l 1xf0
260 -60 m 1xf8
 360 -60 l 1xf8
 360 -163 l 2xf4
 360 -237 323 -284 262 -284 c 0
 261 -284 261 -284 260 -284 c 1
 260 -246 l 1xf8
 296 -246 315 -218 315 -168 c 0
 315 -165 315 -163 315 -160 c 1xf4
 260 -160 l 1
 260 -60 l 1xf8
EndSplineSet
EndChar
StartChar: tcommaaccent
Encoding: 539 539 413
Width: 278
Flags: W
HStem: -284 38<111 143.5> -160 100<111 211> -23 73<153.5 222> 456 68<14 85 168 254>
VStem: 85 83<60 456 524 668> 111 100<-284 -246 -160 -60> 166 45<-200 -160>
Fore
254 524 m 1xf8
 254 456 l 1
 168 456 l 1
 168 97 l 2
 168 60 178 50 214 50 c 0
 230 50 243 51 254 54 c 1
 254 -16 l 1
 226 -21 206 -23 186 -23 c 0
 121 -23 85 7 85 60 c 2
 85 456 l 1
 14 456 l 1
 14 524 l 1
 85 524 l 1
 85 668 l 1
 168 668 l 1
 168 524 l 1
 254 524 l 1xf8
111 -60 m 1xf4
 211 -60 l 1xf4
 211 -163 l 2xf2
 211 -237 174 -284 113 -284 c 0
 112 -284 112 -284 111 -284 c 1
 111 -246 l 1xf4
 147 -246 166 -218 166 -168 c 0
 166 -165 166 -163 166 -160 c 1xf2
 111 -160 l 1
 111 -60 l 1xf4
EndSplineSet
EndChar
StartChar: uni0251
Encoding: 593 593 431
Width: 556
Flags: W
HStem: -23 70<465 532.5> -14 74<187.5 310.5> 471 67<171 296.5>
VStem: 26 87<174.5 335> 397 88<75 317.5>
AnchorPoint: "below" 274 0 basechar 0
AnchorPoint: "above" 274 538 basechar 0
Fore
397 263 m 0x78
 397 372 345 471 248 471 c 0
 159 471 113 363 113 261 c 0
 113 158 173 60 265 60 c 0
 356 60 397 160 397 263 c 0x78
233 -14 m 0
 142 -14 26 91 26 258 c 0
 26 412 96 538 246 538 c 0
 306 538 358 511 402 458 c 1
 402 524 l 1
 485 524 l 1
 485 88 l 2
 485 62 501 47 530 47 c 0xb8
 535 47 539 47 548 49 c 1
 548 -14 l 1x78
 521 -21 508 -23 491 -23 c 0xb8
 439 -23 410 -2 403 57 c 1
 356 12 314 -12 233 -14 c 0
EndSplineSet
EndChar
StartChar: uni0253
Encoding: 595 595 433
Width: 556
Flags: W
HStem: -23 78<239 364> 461 78<239 368> 659 73<138.5 198.5>
VStem: 54 75<0 67> 54 83<196.5 319.5 453 650.5> 436 87<177 349>
AnchorPoint: "below" 274 0 basechar 0
Fore
283 461 m 0xec
 195 461 137 381 137 258 c 0
 137 135 195 55 283 55 c 0
 374 55 436 136 436 255 c 0
 436 380 376 461 283 461 c 0xec
54 0 m 1xf4
 54 613 l 2
 54 688 100 732 177 732 c 0
 194 732 205 731 224 727 c 1
 224 658 l 1
 205 659 202 659 195 659 c 0
 157 659 137 641 137 606 c 2
 137 453 l 1xec
 176 512 227 539 299 539 c 0
 437 539 523 434 523 264 c 0
 523 90 433 -23 295 -23 c 0
 222 -23 169 6 129 67 c 1
 129 0 l 1
 54 0 l 1xf4
EndSplineSet
EndChar
StartChar: uni0256
Encoding: 598 598 435
Width: 556
Flags: W
HStem: -218 73<513 569.5> -23 78<183.5 310> 461 78<183 310> 709 20G<412 495>
VStem: 26 87<174.5 346.5> 412 83<195.5 318.5 458 729> 421 74<-109 69>
AnchorPoint: "below" 274 -200 basechar 0
Fore
265 461 m 0xfc
 174 461 113 380 113 258 c 0
 113 136 174 55 266 55 c 0
 354 55 412 135 412 256 c 0
 412 381 355 461 265 461 c 0xfc
421 69 m 1xfa
 376 4 326 -23 254 -23 c 0
 113 -23 26 86 26 263 c 0
 26 430 115 539 251 539 c 0
 321 539 377 511 412 458 c 1
 412 729 l 1
 495 729 l 1xfc
 495 -76 l 2
 495 -128 517 -145 568 -145 c 0
 571 -145 571 -145 588 -144 c 1
 588 -215 l 1
 578 -217 573 -218 560 -218 c 0
 466 -218 421 -180 421 -109 c 2
 421 69 l 1xfa
EndSplineSet
EndChar
StartChar: uni0257
Encoding: 599 599 436
Width: 556
Flags: W
HStem: -23 78<183.5 310> 461 78<183 310> 659 73<496.5 556.5>
VStem: 26 87<174.5 346.5> 412 83<195.5 318.5 458 650.5> 421 74<0 69>
AnchorPoint: "below" 274 0 basechar 0
Fore
265 461 m 0xf8
 174 461 113 380 113 258 c 0
 113 136 174 55 266 55 c 0
 354 55 412 135 412 256 c 0
 412 381 355 461 265 461 c 0xf8
495 606 m 2
 495 0 l 1
 421 0 l 1
 421 69 l 1xf4
 376 4 326 -23 254 -23 c 0
 113 -23 26 86 26 263 c 0
 26 430 115 539 251 539 c 0
 321 539 377 511 412 458 c 1
 412 613 l 2
 412 688 458 732 535 732 c 0
 552 732 563 731 582 727 c 1
 582 658 l 1
 563 659 560 659 553 659 c 0
 515 659 495 641 495 606 c 2
EndSplineSet
EndChar
StartChar: uni0260
Encoding: 608 608 441
Width: 556
Flags: W
HStem: -218 70<193.5 354.5> -23 77<185.5 306> 462 77<185.5 306> 577 73<490.5 550.5>
VStem: 29 87<167.5 338> 404 85<-16.5 86 -5 320.5> 412 77<448 544>
AnchorPoint: "below" 250 -200 basechar 0
AnchorPoint: "above" 250 538 basechar 0
Fore
261 462 m 0xfc
 172 462 116 384 116 258 c 0
 116 131 171 54 262 54 c 0
 350 54 404 130 404 255 c 0
 404 386 351 462 261 462 c 0xfc
258 -148 m 0
 376 -148 404 -77 404 44 c 2
 404 71 l 1xfc
 357 5 311 -23 245 -23 c 0
 126 -23 29 82 29 253 c 0
 29 423 119 539 252 539 c 0
 319 539 370 510 412 448 c 1
 412 531 l 2
 412 606 452 650 529 650 c 0
 546 650 557 649 576 645 c 1
 576 576 l 1
 557 577 554 577 547 577 c 0
 509 577 489 564 489 524 c 2xfa
 489 86 l 2
 489 -96 454 -218 255 -218 c 0
 132 -218 55 -159 46 -60 c 1
 131 -60 l 1
 145 -145 232 -148 258 -148 c 0
EndSplineSet
EndChar
StartChar: uni0266
Encoding: 614 614 444
Width: 556
Flags: W
HStem: 0 21G<70 153 403 486> 466 73<252 372> 659 73<154.5 214.5>
VStem: 70 83<0 650.5> 403 83<0 440>
Fore
403 363 m 6
 403 445 338 466 295 466 c 4
 209 466 153 396 153 289 c 6
 153 0 l 5
 70 0 l 5
 70 613 l 6
 70 688 116 732 193 732 c 4
 210 732 221 731 240 727 c 5
 240 658 l 5
 221 659 218 659 211 659 c 4
 173 659 153 641 153 606 c 6
 153 452 l 5
 202 516 247 539 321 539 c 4
 423 539 486 484 486 396 c 6
 486 0 l 5
 403 0 l 5
 403 363 l 6
EndSplineSet
EndChar
StartChar: uni0267
Encoding: 615 615 445
Width: 556
Flags: W
HStem: -218 73<333.5 390> 0 21G<70 153> 466 73<252 372> 659 73<154.5 214.5>
VStem: 70 83<0 650.5> 403 83<-109 440>
Fore
403 363 m 2
 403 445 338 466 295 466 c 0
 209 466 153 396 153 289 c 2
 153 0 l 1
 70 0 l 1
 70 613 l 2
 70 688 116 732 193 732 c 0
 210 732 221 731 240 727 c 1
 240 658 l 1
 221 659 218 659 211 659 c 0
 173 659 153 641 153 606 c 2
 153 452 l 1
 202 516 247 539 321 539 c 0
 423 539 486 484 486 396 c 2
 486 -109 l 2
 486 -180 437 -218 343 -218 c 0
 330 -218 325 -217 315 -215 c 1
 315 -144 l 1
 332 -145 332 -145 335 -145 c 0
 386 -145 403 -128 403 -76 c 2
 403 363 l 2
EndSplineSet
EndChar
StartChar: uni0268
Encoding: 616 616 446
Width: 222
Flags: W
HStem: 0 21G<67 150> 240 72<-8 67 150 230> 504 20G<67 150> 709 20G<66 150>
VStem: 66 84<624 729>
Fore
150 729 m 1
 150 624 l 1
 66 624 l 1
 66 729 l 1
 150 729 l 1
67 312 m 5
 67 524 l 1
 150 524 l 1
 150 312 l 5
 230 312 l 5
 230 240 l 5
 150 240 l 5
 150 0 l 1
 67 0 l 1
 67 240 l 5
 -8 240 l 5
 -8 312 l 5
 67 312 l 5
EndSplineSet
EndChar
StartChar: uni0269
Encoding: 617 617 447
Width: 222
Flags: W
HStem: -23 73<134.5 203> 504 20G<66 149>
VStem: 66 83<33.5 524>
Fore
149 524 m 5
 149 97 l 6
 149 60 159 50 195 50 c 0
 211 50 224 51 235 54 c 1
 235 -16 l 1
 207 -21 187 -23 167 -23 c 0
 102 -23 66 7 66 60 c 2
 66 524 l 1
 149 524 l 5
EndSplineSet
EndChar
StartChar: uni026A
Encoding: 618 618 448
Width: 278
Flags: W
HStem: 0 72<12 250> 452 72<12 250>
VStem: 94 83<72 452>
AnchorPoint: "below" 134 0 basechar 0
AnchorPoint: "above" 135 538 basechar 0
Fore
12 524 m 1
 250 524 l 1
 250 452 l 1
 177 452 l 1
 177 72 l 1
 250 72 l 1
 250 0 l 1
 12 0 l 1
 12 72 l 1
 94 72 l 1
 94 452 l 1
 12 452 l 1
 12 524 l 1
EndSplineSet
EndChar
StartChar: uni026D
Encoding: 621 621 449
Width: 222
Flags: W
HStem: -218 73<165 221.5> 709 20G<68 152>
VStem: 68 84<-144.5 729>
Fore
68 -109 m 2
 68 729 l 1
 152 729 l 1
 152 -76 l 2
 152 -128 169 -145 220 -145 c 0
 223 -145 223 -145 240 -144 c 1
 240 -215 l 1
 230 -217 225 -218 212 -218 c 0
 118 -218 68 -180 68 -109 c 2
EndSplineSet
EndChar
StartChar: uni0270
Encoding: 624 624 451
Width: 833
Flags: W
HStem: -15 73<173 285 490 589> 504 20G<70 154 374 458 678 762>
VStem: 70 84<84 524> 374 84<129.5 524> 678 84<157 524> 685 77<-200 74>
Fore
762 -200 m 1xf4
 685 -200 l 1
 685 74 l 1xf4
 640 11 594 -15 524 -15 c 0
 456 -15 414 9 383 65 c 1
 334 6 292 -15 222 -15 c 0
 124 -15 70 37 70 131 c 2
 70 524 l 1
 154 524 l 1
 154 163 l 2
 154 97 190 58 251 58 c 0
 319 58 374 119 374 195 c 2
 374 524 l 1
 458 524 l 1
 458 163 l 2
 458 96 493 58 555 58 c 0
 623 58 678 119 678 195 c 2
 678 524 l 1
 762 524 l 1xf8
 762 -200 l 1xf4
EndSplineSet
EndChar
StartChar: uni0271
Encoding: 625 625 452
Width: 833
Flags: W
HStem: -218 73<608.5 665> 0 21G<70 154 374 458> 466 73<243 342 547 659>
VStem: 70 84<0 367> 70 77<450 524> 374 84<0 394.5> 678 84<-109 440>
AnchorPoint: "above" 416.5 538 basechar 0
AnchorPoint: "below" 412 -200 basechar 0
Fore
70 524 m 1xee
 147 524 l 1
 147 450 l 1xee
 192 513 238 539 308 539 c 0
 376 539 418 515 449 459 c 1
 498 518 540 539 610 539 c 0
 708 539 762 487 762 393 c 2
 762 -109 l 2
 762 -180 712 -218 618 -218 c 0
 605 -218 600 -217 590 -215 c 1
 590 -144 l 1
 607 -145 607 -145 610 -145 c 0
 661 -145 678 -128 678 -76 c 2
 678 361 l 2
 678 427 642 466 581 466 c 0
 513 466 458 405 458 329 c 2
 458 0 l 1
 374 0 l 1
 374 361 l 2
 374 428 339 466 277 466 c 0
 209 466 154 405 154 329 c 2
 154 0 l 1
 70 0 l 1xf6
 70 524 l 1xee
EndSplineSet
EndChar
StartChar: uni0272
Encoding: 626 626 453
Width: 556
Flags: W
HStem: -218 73<0.5 57> 0 21G<404 487> 466 73<253 371.5>
VStem: 70 84<-109 342.5> 70 77<436 524> 404 83<0 439.5>
AnchorPoint: "above" 278 538 basechar 0
AnchorPoint: "below" 272 -200 basechar 0
Fore
70 524 m 1xec
 147 524 l 1
 147 436 l 1xec
 193 509 243 539 321 539 c 0
 422 539 487 483 487 396 c 2
 487 0 l 1
 404 0 l 1
 404 363 l 2
 404 426 362 466 296 466 c 0
 210 466 154 396 154 289 c 2
 154 -109 l 2
 154 -180 104 -218 10 -218 c 0
 -3 -218 -8 -217 -18 -215 c 1
 -18 -144 l 1
 -1 -145 -1 -145 2 -145 c 0
 53 -145 70 -128 70 -76 c 2xf4
 70 524 l 1xec
EndSplineSet
EndChar
StartChar: uni0273
Encoding: 627 627 454
Width: 556
Flags: W
HStem: -218 73<501 557.5> 0 21G<70 154> 466 73<253 371.5>
VStem: 70 84<0 342.5> 70 77<436 524> 404 84<-144.5 -109 -76 224>
AnchorPoint: "above" 278 538 basechar 0
AnchorPoint: "below" 272 -200 basechar 0
Fore
70 524 m 1xec
 147 524 l 1
 147 436 l 1xec
 193 509 243 539 321 539 c 0
 422 539 487 483 487 396 c 2
 487 224 l 1
 488 224 l 1
 488 -76 l 2
 488 -128 505 -145 556 -145 c 0
 559 -145 559 -145 576 -144 c 1
 576 -215 l 1
 566 -217 561 -218 548 -218 c 0
 454 -218 404 -180 404 -109 c 2
 404 363 l 2
 404 426 362 466 296 466 c 0
 210 466 154 396 154 289 c 2
 154 0 l 1
 70 0 l 1xf4
 70 524 l 1xec
EndSplineSet
EndChar
StartChar: uni0275
Encoding: 629 629 455
Width: 556
Flags: W
HStem: -23 77<198.5 346.5> 220 70<124 422> 462 77<198.5 347.5>
AnchorPoint: "above" 272 538 basechar 0
AnchorPoint: "below" 273 0 basechar 0
Fore
272 539 m 0
 423 539 510 435 510 254 c 0
 510 82 420 -23 273 -23 c 0
 124 -23 36 82 36 258 c 0
 36 434 125 539 272 539 c 0
422 290 m 1
 412 399 358 462 273 462 c 0
 188 462 133 397 124 290 c 1
 422 290 l 1
421 220 m 1
 125 220 l 1
 135 116 190 54 273 54 c 0
 356 54 411 117 421 220 c 1
EndSplineSet
EndChar
StartChar: uni027A
Encoding: 634 634 457
Width: 333
Flags: W
HStem: -15 88<69 128> 709 20G<237 321>
VStem: 237 84<178.5 729> 244 77<0 95>
Fore
69 73 m 1xd0
 170 75 237 105 237 252 c 2
 237 729 l 1
 321 729 l 1xe0
 321 0 l 1
 244 0 l 1
 244 95 l 1
 196 17 155 -15 101 -15 c 0
 90 -15 83 -14 69 -12 c 1
 69 73 l 1xd0
EndSplineSet
EndChar
StartChar: uni027B
Encoding: 635 635 458
Width: 333
Flags: W
HStem: -218 73<334 390.5> -15 88<69 128> 504 20G<237 321>
VStem: 237 84<178.5 524> 244 77<-144.5 95>
Fore
69 73 m 1xe8
 170 75 237 105 237 252 c 2
 237 524 l 1
 321 524 l 1xf0
 321 -76 l 2
 321 -128 338 -145 389 -145 c 0
 392 -145 392 -145 409 -144 c 1
 409 -215 l 1
 399 -217 394 -218 381 -218 c 0
 287 -218 244 -180 244 -109 c 2
 244 95 l 1
 196 17 155 -15 101 -15 c 0
 90 -15 83 -14 69 -12 c 1
 69 73 l 1xe8
EndSplineSet
EndChar
StartChar: uni027C
Encoding: 636 636 459
Width: 333
Flags: W
HStem: 451 88<262 321>
VStem: 69 77<429 524> 69 84<-200 345.5>
Fore
321 451 m 1xc0
 220 449 153 419 153 272 c 2
 153 -200 l 1
 69 -200 l 1xa0
 69 524 l 1
 146 524 l 1
 146 429 l 1
 194 507 235 539 289 539 c 0
 300 539 307 538 321 536 c 1
 321 451 l 1xc0
EndSplineSet
EndChar
StartChar: uni027D
Encoding: 637 637 460
Width: 333
Flags: W
HStem: -218 73<166 222.5> 451 88<262 321>
VStem: 69 77<429 524> 69 84<-144.5 -109 -76 345.5>
Fore
321 451 m 1xe0
 220 449 153 419 153 272 c 2
 153 -76 l 2
 153 -128 170 -145 221 -145 c 0
 224 -145 224 -145 241 -144 c 1
 241 -215 l 1
 231 -217 226 -218 213 -218 c 0
 119 -218 69 -180 69 -109 c 2xd0
 69 524 l 1
 146 524 l 1
 146 429 l 1
 194 507 235 539 289 539 c 0
 300 539 307 538 321 536 c 1
 321 451 l 1xe0
EndSplineSet
EndChar
StartChar: uni027E
Encoding: 638 638 461
Width: 384
Flags: W
HStem: 0 21G<84 168> 466 73<181 275>
VStem: 84 84<0 465.5> 288 84<397 465.5>
Fore
168 0 m 1
 84 0 l 1
 84 430 l 2
 84 501 134 539 228 539 c 0
 322 539 372 501 372 430 c 2
 372 397 l 1
 288 397 l 1
 288 446 273 464 228 466 c 0
 183 464 168 446 168 397 c 2
 168 0 l 1
EndSplineSet
EndChar
StartChar: uni0282
Encoding: 642 642 463
Width: 500
Flags: W
HStem: -216 73<-35.5 21> -23 77<199 309> 462 77<187 308.5>
VStem: 34 84<-107 2> 47 87<338 427.5> 372 87<92.5 182>
Fore
122 156 m 1xf4
 129 105 148 54 250 54 c 0
 323 54 372 87 372 136 c 0
 372 174 349 195 291 209 c 2
 213 228 l 2
 89 258 47 297 47 379 c 0
 47 476 126 539 248 539 c 0
 369 539 437 481 438 378 c 1
 350 378 l 1
 348 433 312 462 245 462 c 0
 177 462 134 431 134 383 c 0xec
 134 346 163 324 231 308 c 2
 311 289 l 2
 415 264 459 221 459 143 c 0
 459 42 375 -23 243 -23 c 0
 192 -23 150 -15 118 2 c 1
 118 -107 l 2
 118 -178 68 -216 -26 -216 c 0
 -39 -216 -44 -215 -54 -213 c 1
 -54 -142 l 1
 -37 -143 -37 -143 -34 -143 c 0
 17 -143 34 -126 34 -74 c 2
 34 156 l 1
 122 156 l 1xf4
EndSplineSet
EndChar
StartChar: uni0288
Encoding: 648 648 465
Width: 278
Flags: W
HStem: -218 73<153.5 222> 456 68<14 85 168 254>
VStem: 85 83<-135 456 524 668>
Fore
254 524 m 1
 254 456 l 1
 168 456 l 1
 168 -98 l 2
 168 -135 178 -145 214 -145 c 0
 230 -145 243 -144 254 -141 c 1
 254 -211 l 1
 226 -216 206 -218 186 -218 c 0
 121 -218 85 -188 85 -135 c 2
 85 456 l 1
 14 456 l 1
 14 524 l 1
 85 524 l 1
 85 668 l 1
 168 668 l 1
 168 524 l 1
 254 524 l 1
EndSplineSet
EndChar
StartChar: uni0289
Encoding: 649 649 466
Width: 556
Flags: W
HStem: -23 73<181 299.5> 240 72<-8 65 148 399 482 560> 504 20G<65 148 399 482>
VStem: 65 83<76.5 240 312 524> 399 83<227 240 312 524> 407 75<0 73>
Fore
482 0 m 1xf4
 407 0 l 1
 407 73 l 1xf4
 358 4 309 -23 232 -23 c 0
 130 -23 65 33 65 120 c 2
 65 240 l 1
 -8 240 l 1
 -8 312 l 1
 65 312 l 1
 65 524 l 1
 148 524 l 1
 148 312 l 1
 399 312 l 1
 399 524 l 1
 482 524 l 1
 482 312 l 1
 560 312 l 1
 560 240 l 1
 482 240 l 1xf8
 482 0 l 1xf4
148 240 m 1
 148 153 l 2
 148 90 190 50 256 50 c 0
 343 50 399 120 399 227 c 2
 399 240 l 1xf8
 148 240 l 1
EndSplineSet
EndChar
StartChar: uni0290
Encoding: 656 656 470
Width: 500
Flags: W
HStem: -216 73<470 526.5> 0 73<31 457> 451 73<52 443>
VStem: 373 84<-107 73>
Fore
373 0 m 1
 31 0 l 1
 31 75 l 1
 344 451 l 1
 52 451 l 1
 52 524 l 1
 443 524 l 1
 443 450 l 1
 132 73 l 1
 457 73 l 1
 457 -74 l 2
 457 -126 474 -143 525 -143 c 0
 528 -143 528 -143 545 -142 c 1
 545 -213 l 1
 535 -215 530 -216 517 -216 c 0
 423 -216 373 -178 373 -107 c 2
 373 0 l 1
EndSplineSet
EndChar
StartChar: uni02A0
Encoding: 672 672 473
Width: 556
Flags: W
HStem: -23 78<181 310> 461 78<185 310.5> 577 73<496.5 556.5>
VStem: 26 87<167 339> 412 83<-218 60 195 318>
Fore
266 461 m 0
 174 461 113 379 113 258 c 0
 113 136 174 55 266 55 c 0
 354 55 412 135 412 255 c 0
 412 381 355 461 266 461 c 0
418 458 m 1
 418 531 l 2
 418 606 458 650 535 650 c 0
 552 650 563 649 582 645 c 1
 582 576 l 1
 563 577 560 577 553 577 c 0
 515 577 495 564 495 524 c 2
 495 -218 l 1
 412 -218 l 1
 412 60 l 1
 373 3 323 -23 250 -23 c 0
 112 -23 26 82 26 252 c 0
 26 426 116 539 254 539 c 0
 321 539 379 510 418 458 c 1
EndSplineSet
EndChar
StartChar: breve
Encoding: 728 728 474
Width: 333
Flags: W
HStem: 597 69<133.5 210.5> 712 20G<15 74 257 316>
Fore
15 732 m 1
 74 732 l 1
 79 688 109 666 166 666 c 0
 220 666 253 690 257 732 c 1
 316 732 l 1
 309 643 257 597 164 597 c 0
 103 597 18 621 15 732 c 1
EndSplineSet
EndChar
StartChar: dotaccent
Encoding: 729 729 475
Width: 333
Flags: W
Fore
219 716 m 1
 219 612 l 1
 115 612 l 1
 115 716 l 1
 219 716 l 1
EndSplineSet
EndChar
StartChar: ring
Encoding: 730 730 476
Width: 333
Flags: W
HStem: 579 44<143 191> 710 44<143 191.5>
VStem: 79 44<643 690.5> 211 44<642 690.5>
Fore
167 754 m 0
 216 754 255 715 255 666 c 0
 255 618 215 579 167 579 c 0
 119 579 79 619 79 667 c 0
 79 714 119 754 167 754 c 0
167 710 m 0
 143 710 123 690 123 667 c 0
 123 643 143 623 167 623 c 0
 191 623 211 643 211 666 c 0
 211 691 192 710 167 710 c 0
EndSplineSet
EndChar
StartChar: ogonek
Encoding: 731 731 477
Width: 333
Flags: W
HStem: -205 45<152.5 214> -20 20G<154 224>
VStem: 57 73<-140 -85>
Fore
189 -205 m 0
 116 -205 57 -169 57 -111 c 0
 57 -63 93 -22 154 0 c 1
 224 0 l 1
 151 -41 130 -64 130 -106 c 0
 130 -141 155 -160 202 -160 c 0
 226 -160 247 -157 265 -150 c 1
 265 -195 l 1
 241 -200 208 -205 189 -205 c 0
EndSplineSet
EndChar
StartChar: tilde
Encoding: 732 732 478
Width: 333
Flags: W
HStem: 613 67<203.5 254.5> 651 66<69 115.5>
Fore
91 717 m 0x40
 140 717 183 680 224 680 c 0x80
 242 680 253 692 261 717 c 1
 319 717 l 1x40
 309 648 279 613 230 613 c 0x80
 193 613 125 651 96 651 c 0
 81 651 69 637 63 614 c 1
 5 614 l 1
 16 680 47 717 91 717 c 0x40
EndSplineSet
EndChar
StartChar: hungarumlaut
Encoding: 733 733 479
Width: 333
Flags: W
HStem: 720 20G<61 174 235 348>
Fore
61 740 m 1
 174 740 l 1
 25 590 l 1
 -35 590 l 1
 61 740 l 1
235 740 m 1
 348 740 l 1
 199 590 l 1
 139 590 l 1
 235 740 l 1
EndSplineSet
EndChar
StartChar: uni030F
Encoding: 783 783 491
Width: 0
Flags: W
HStem: 720 20G<-368 -255 -194 -81>
AnchorPoint: "abovemk" -171 538 mark 0
AnchorPoint: "abovemk" -171 740 basemark 0
AnchorPoint: "above" -171 538 mark 0
Fore
-81 740 m 1
 15 590 l 1
 -45 590 l 1
 -194 740 l 1
 -81 740 l 1
-255 740 m 1
 -159 590 l 1
 -219 590 l 1
 -368 740 l 1
 -255 740 l 1
EndSplineSet
EndChar
StartChar: uni0313
Encoding: 787 787 494
Width: 0
Flags: W
HStem: 583 42<-202 -174> 670 70<-202 -121>
VStem: -202 81<625 671 642.5 740>
AnchorPoint: "abovemk" -171 538 mark 0
AnchorPoint: "abovemk" -171 742 basemark 0
AnchorPoint: "above" -171 538 mark 0
Fore
-202 740 m 1
 -121 740 l 1
 -121 671 l 2
 -121 614 -146 583 -202 583 c 1
 -202 625 l 1
 -199 625 l 0
 -180 625 -161 626 -161 670 c 1
 -202 670 l 1
 -202 740 l 1
EndSplineSet
EndChar
StartChar: uni0374
Encoding: 884 884 496
Width: 199
Flags: W
Fore
156 716 m 5
 50 580 l 5
 39 644 l 5
 105 780 l 5
 156 716 l 5
EndSplineSet
EndChar
StartChar: uni0375
Encoding: 885 885 497
Width: 199
Flags: W
Fore
22 -130 m 1
 128 6 l 1
 139 -58 l 1
 73 -194 l 1
 22 -130 l 1
EndSplineSet
EndChar
StartChar: uni037A
Encoding: 890 890 498
Width: 332
Flags: W
HStem: -253 178<129 232>
VStem: 129 76<-199.5 -75>
Fore
231 -216 m 0
 260 -216 253 -211 260 -192 c 1
 285 -192 l 1
 285 -252 261 -253 203 -253 c 0
 150 -253 129 -225 129 -174 c 2
 129 -75 l 1
 205 -75 l 1
 205 -81 205 -88 205 -94 c 0
 205 -113 205 -129 205 -144 c 0
 205 -192 208 -216 231 -216 c 0
EndSplineSet
EndChar
StartChar: Alpha
Encoding: 913 913 506
Width: 667
Flags: W
HStem: 0 21<17 116 549 653> 219 78<193 474> 709 20<277 397>
Back
678 0 m 1
 572 0 l 1
 488 218 l 1
 188 218 l 1
 110 0 l 1
 8 0 l 1
 284 716 l 1
 386 716 l 1
 678 0 l 1
458 294 m 1
 428 380 367 524 332 642 c 1
 309 515 255 410 216 294 c 1
 458 294 l 1
EndSplineSet
Refer: 33 65 N 1 0 0 1 0 0 2
EndChar
StartChar: Beta
Encoding: 914 914 507
Width: 667
Flags: W
HStem: 0 82<79 472.5> 333 82<172 399> 647 82<79 461.5>
VStem: 79 93<0 729> 498 93<487.5 581> 530 93<145.5 252>
Back
480 382 m 1xf8
 584 348 615 279 615 212 c 0xf4
 615 122 575 0 346 0 c 2
 74 0 l 1
 74 716 l 1
 342 716 l 2
 532 716 580 612 580 534 c 0
 580 459 536 408 480 382 c 1xf8
324 416 m 2
 424 416 486 432 486 522 c 0xf8
 486 607 438 632 312 632 c 2
 168 632 l 1
 168 416 l 1
 324 416 l 2
516 208 m 0xf4
 516 305 441 330 334 330 c 2
 168 330 l 1
 168 84 l 1
 346 84 l 2
 455 84 516 120 516 208 c 0xf4
EndSplineSet
Refer: 34 66 N 1 0 0 1 0 0 2
EndChar
StartChar: Gamma
Encoding: 915 915 508
Width: 582
Flags: W
HStem: 0 21G<82 178> 645 84<82 566>
VStem: 82 96<0 729>
Fore
566 645 m 1
 178 645 l 1
 178 0 l 1
 82 0 l 1
 82 729 l 1
 566 729 l 1
 566 645 l 1
EndSplineSet
EndChar
StartChar: uni0394
Encoding: 916 916 509
Width: 778
Flags: W
HStem: 0 84<53 723> 709 20G<317 433>
Fore
723 0 m 1
 53 0 l 1
 317 729 l 1
 433 729 l 1
 723 0 l 1
187 84 m 1
 585 84 l 0
 585 87 377 655 377 655 c 1
 187 84 l 1
EndSplineSet
EndChar
StartChar: Epsilon
Encoding: 917 917 510
Width: 667
Flags: W
HStem: 0 82<90 613> 332 82<183 580> 647 82<90 595>
VStem: 90 93<0 729>
Back
614 0 m 5
 80 0 l 5
 80 716 l 5
 598 716 l 5
 598 632 l 5
 174 632 l 5
 174 412 l 5
 570 412 l 5
 570 328 l 5
 174 328 l 5
 174 84 l 5
 614 84 l 5
 614 0 l 5
EndSplineSet
Refer: 37 69 N 1 0 0 1 0 0 2
EndChar
StartChar: Zeta
Encoding: 918 918 511
Width: 628
Flags: W
HStem: 0 82<28 583> 647 82<56 581>
Back
601 0 m 1
 35 0 l 1
 35 88 l 1
 403 546 l 2
 428 578 452 607 477 632 c 1
 77 632 l 1
 77 716 l 1
 589 716 l 1
 589 632 l 1
 145 84 l 1
 601 84 l 1
 601 0 l 1
EndSplineSet
Refer: 58 90 N 1 0 0 1 0 0 2
EndChar
StartChar: Eta
Encoding: 919 919 512
Width: 722
Flags: W
HStem: 0 21<83 177 551 644> 332 82<176 551> 709 20<83 176 551 644>
VStem: 83 93<414 729> 551 93<0 729>
Back
625 0 m 1
 531 0 l 1
 531 338 l 1
 159 338 l 1
 159 0 l 1
 65 0 l 1
 65 716 l 1
 159 716 l 1
 159 422 l 1
 531 422 l 1
 531 716 l 1
 625 716 l 1
 625 0 l 1
EndSplineSet
Refer: 40 72 N 1 0 0 1 0 0 2
EndChar
StartChar: Theta
Encoding: 920 920 513
Width: 778
Flags: W
HStem: -23 82<285 499> 320 82<217 553> 659 82<284.5 496>
VStem: 38 93<245 473> 649 93<248 470.5>
Back
387 713 m 0
 589 713 729 574 729 349 c 0
 729 138 592 -12 387 -12 c 0
 250 -12 45 58 45 342 c 0
 45 553 164 713 387 713 c 0
385 68 m 0
 483 68 631 124 631 349 c 0
 631 509 546 633 387 633 c 0
 219 633 141 511 141 340 c 0
 141 186 229 68 385 68 c 0
553 320 m 1
 217 320 l 1
 217 402 l 1
 553 402 l 1
 553 320 l 1
EndSplineSet
Fore
553 320 m 1
 217 320 l 1
 217 402 l 1
 553 402 l 1
 553 320 l 1
742 353 m 0
 742 143 608 -23 390 -23 c 0
 180 -23 38 131 38 359 c 0
 38 587 180 741 389 741 c 0
 603 741 742 588 742 353 c 0
389 659 m 0
 235 659 131 539 131 359 c 0
 131 179 235 59 390 59 c 0
 544 59 649 179 649 355 c 0
 649 539 547 659 389 659 c 0
EndSplineSet
EndChar
StartChar: Iota
Encoding: 921 921 514
Width: 278
Flags: W
HStem: 0 21<100 194> 709 20<100 194>
VStem: 100 94<0 729>
Back
163 0 m 1
 69 0 l 1
 69 716 l 1
 163 716 l 1
 163 0 l 1
EndSplineSet
Refer: 41 73 N 1 0 0 1 0 0 2
EndChar
StartChar: Kappa
Encoding: 922 922 515
Width: 667
Flags: W
HStem: 0 21<79 172 548 658> 709 20<79 172 535 655>
VStem: 79 93<0 729>
Back
666 0 m 1
 540 0 l 1
 282 362 l 1
 168 248 l 1
 168 0 l 1
 74 0 l 1
 74 716 l 1
 168 716 l 1
 168 362 l 1
 522 716 l 1
 642 716 l 1
 352 426 l 1
 666 0 l 1
EndSplineSet
Refer: 43 75 N 1 0 0 1 0 0 2
EndChar
StartChar: Lambda
Encoding: 923 923 516
Width: 667
Flags: W
HStem: 0 21G<17 116 549 653> 709 20G<277 397>
AnchorPoint: "above" 335 729 basechar 0
Back
678 -0 m 1
 572 -0 l 1
 332 627 l 1
 335 634 l 0
 335 631 309 553 110 -0 c 1
 8 -0 l 1
 284 700 l 1
 386 700 l 1
 678 -0 l 1
EndSplineSet
Fore
116 0 m 5
 17 0 l 1
 277 729 l 1
 397 729 l 1
 653 0 l 1
 549 0 l 1
 336 629 l 1
 116 0 l 5
EndSplineSet
EndChar
StartChar: Mu
Encoding: 924 924 517
Width: 833
Flags: W
HStem: 0 21<75 163 370 468 673 761> 709 20<75 204 632 761>
VStem: 75 88<0 729> 673 88<0 729>
Back
748 0 m 1
 656 0 l 1
 656 600 l 1
 448 0 l 1
 362 0 l 1
 156 610 l 1
 156 0 l 1
 64 0 l 1
 64 716 l 1
 208 716 l 1
 376 210 l 1
 386 184 404 134 410 104 c 1
 620 716 l 1
 748 716 l 1
 748 0 l 1
EndSplineSet
Refer: 45 77 N 1 0 0 1 0 0 2
EndChar
StartChar: Nu
Encoding: 925 925 518
Width: 722
Flags: W
HStem: 0 21<76 164 541 646> 709 20<76 177 558 646>
VStem: 76 88<0 729> 558 88<0 729>
Back
620 0 m 1
 524 0 l 1
 148 562 l 1
 148 0 l 1
 56 0 l 1
 56 716 l 1
 154 716 l 1
 530 154 l 1
 530 716 l 1
 620 716 l 1
 620 0 l 1
EndSplineSet
Refer: 46 78 N 1 0 0 1 0 0 2
EndChar
StartChar: Xi
Encoding: 926 926 519
Width: 630
Flags: W
HStem: -0 82<65 611> 333 82<129 538> 647 82<65 595>
Fore
595 647 m 1
 65 647 l 1
 65 729 l 1
 595 729 l 1
 595 647 l 1
538 333 m 5
 129 333 l 5
 129 415 l 5
 538 415 l 5
 538 333 l 5
611 -0 m 1
 65 -0 l 1
 65 82 l 1
 611 82 l 1
 611 -0 l 1
EndSplineSet
EndChar
StartChar: Omicron
Encoding: 927 927 520
Width: 778
Flags: W
HStem: -23 82<285 499> 659 82<284.5 496>
VStem: 38 93<245 473> 649 93<248 470.5>
Back
392 701 m 0
 525 701 734 630 734 346 c 0
 734 139 597 -7 392 -7 c 0
 171 -7 50 144 50 338 c 0
 50 552 178 701 392 701 c 0
636 346 m 0
 636 458 587 623 392 623 c 0
 221 623 146 498 146 336 c 0
 146 187 234 71 390 71 c 0
 488 71 636 126 636 346 c 0
EndSplineSet
Refer: 47 79 N 1 0 0 1 0 0 2
EndChar
StartChar: Pi
Encoding: 928 928 521
Width: 722
Flags: W
HStem: -0 21G<80 174 546 640> 647 82<80 640>
VStem: 80 94<-0 729> 546 94<-0 729>
Fore
640 -0 m 1
 546 -0 l 1
 546 647 l 1
 174 647 l 1
 174 -0 l 1
 80 -0 l 1
 80 729 l 1
 640 729 l 1
 640 -0 l 1
EndSplineSet
EndChar
StartChar: Rho
Encoding: 929 929 522
Width: 667
Flags: W
HStem: 0 21<91 184> 309 82<184 473> 647 82<91 464>
VStem: 91 93<0 729> 520 97<452.5 583.5>
Back
624 498 m 0
 624 347 519 285 356 285 c 2
 172 285 l 1
 172 -0 l 1
 78 -0 l 1
 78 700 l 1
 348 700 l 2
 446 700 509 693 557 652 c 0
 597 618 624 567 624 498 c 0
526 494 m 0
 526 555 499 595 444 612 c 0
 427 617 398 618 356 618 c 2
 172 618 l 1
 172 367 l 1
 358 367 l 2
 462 367 526 399 526 494 c 0
EndSplineSet
Refer: 48 80 N 1 0 0 1 0 0 2
EndChar
StartChar: Sigma
Encoding: 931 931 523
Width: 628
Flags: W
HStem: -1 82<40 606> 647 82<74 586>
Fore
606 -1 m 1
 40 -1 l 1
 40 85 l 1
 276 376 l 1
 74 647 l 1
 74 729 l 1
 586 729 l 1
 586 647 l 1
 190 647 l 1
 190 646 326 452 392 376 c 1
 150 81 l 1
 606 81 l 1
 606 -1 l 1
EndSplineSet
EndChar
StartChar: Tau
Encoding: 932 932 524
Width: 611
Flags: W
HStem: 0 21<261 354> 647 82<21 593>
VStem: 261 93<0 647>
Back
607 617 m 1
 369 617 l 1
 369 -1 l 1
 275 -1 l 1
 275 617 l 1
 39 617 l 1
 39 699 l 1
 607 699 l 1
 607 617 l 1
EndSplineSet
Refer: 52 84 N 1 0 0 1 0 0 2
EndChar
StartChar: Upsilon
Encoding: 933 933 525
Width: 667
Flags: W
HStem: 0 21<294 387> 709 20<13 128 550 661>
VStem: 294 93<0 286>
Back
663 698 m 1
 383 296 l 1
 383 -2 l 1
 291 -2 l 1
 291 296 l 1
 21 698 l 1
 133 698 l 1
 201 590 281 481 342 370 c 1
 410 482 483 590 555 698 c 1
 663 698 l 1
EndSplineSet
Refer: 57 89 N 1 0 0 1 0 0 2
EndChar
StartChar: Phi
Encoding: 934 934 526
Width: 717
Flags: W
HStem: -1 21G<317 400> 709 20G<318 399>
VStem: 29 91<283.5 450> 317 83<-1 95 163 576> 597 91<284.5 448.5>
CounterMasks: 1 00
Back
317 70 m 1
 158 70 29 173 29 344 c 0
 29 506 154 623 318 623 c 1
 318 703 l 1
 399 703 l 1
 399 623 l 1
 566 623 688 503 688 344 c 0
 688 175 559 70 400 70 c 1
 400 -1 l 1
 317 -1 l 1
 317 70 l 1
597 349 m 0
 597 467 510 540 400 551 c 1
 400 138 l 1
 514 150 597 229 597 349 c 0
317 138 m 1
 317 551 l 1
 206 540 120 466 120 349 c 0
 120 227 204 150 317 138 c 1
EndSplineSet
Fore
317 95 m 1
 158 95 29 198 29 369 c 0
 29 531 154 648 318 648 c 1
 318 729 l 1
 399 729 l 1
 399 648 l 1
 566 648 688 528 688 369 c 0
 688 200 559 95 400 95 c 1
 400 -1 l 1
 317 -1 l 1
 317 95 l 1
597 374 m 0
 597 492 510 565 400 576 c 1
 400 163 l 1
 514 175 597 254 597 374 c 0
317 163 m 1
 317 576 l 1
 206 565 120 491 120 374 c 0
 120 252 204 175 317 163 c 1
EndSplineSet
EndChar
StartChar: Chi
Encoding: 935 935 527
Width: 667
Flags: W
HStem: 0 21<22 135 534 649> 709 20<38 151 526 637>
Back
363 426 m 1
 394 483 514 626 558 687 c 1
 660 687 l 1
 414 363 l 1
 680 0 l 1
 564 0 l 1
 357 292 l 1
 357 291 338 263 338 261 c 1
 148 0 l 1
 36 0 l 1
 308 359 l 1
 70 687 l 1
 179 687 l 1
 206 645 332 484 363 426 c 1
EndSplineSet
Refer: 56 88 N 1 0 0 1 0 0 2
EndChar
StartChar: Psi
Encoding: 936 936 528
Width: 745
Flags: W
HStem: -3 21G<326 420> 171 81<302 330 416 498.5>
VStem: 52 90<343.5 726> 326 94<-3 171> 604 90<303.5 726>
CounterMasks: 1 00
Fore
694 386 m 2
 694 221 580 187 550 180 c 0
 529 174 494 171 444 171 c 2
 420 171 l 1
 420 -3 l 1
 326 -3 l 1
 326 171 l 1
 302 171 l 2
 213 171 168 180 122 216 c 0
 78 251 52 308 52 386 c 2
 52 728 l 1
 142 726 l 1
 142 398 l 2
 142 289 190 252 304 252 c 2
 330 252 l 1
 330 726 l 1
 416 726 l 1
 416 252 l 1
 442 252 l 2
 555 252 604 288 604 398 c 2
 604 726 l 1
 694 728 l 1
 694 386 l 2
EndSplineSet
EndChar
StartChar: uni03A9
Encoding: 937 937 529
Width: 778
Flags: W
HStem: -1 73<57 321 443 717> 660 73<284 485.5>
VStem: 52 87<323.5 480.5> 638 91<299.5 489>
Back
428 76 m 1
 477 96 613 166 613 353 c 0
 613 501 521 620 368 620 c 0
 217 620 134 490 134 350 c 0
 134 217 204 122 306 76 c 1
 306 -1 l 1
 42 -1 l 1
 42 72 l 1
 216 72 l 1
 111 134 47 216 47 351 c 0
 47 530 172 693 366 693 c 0
 575 693 704 543 704 355 c 0
 704 212 635 129 526 72 c 1
 702 72 l 1
 702 -1 l 1
 428 -1 l 1
 428 76 l 1
EndSplineSet
Fore
443 76 m 1
 492 96 638 206 638 393 c 0
 638 541 536 660 383 660 c 0
 232 660 139 530 139 390 c 0
 139 257 219 122 321 76 c 1
 321 -1 l 1
 57 -1 l 1
 57 72 l 1
 221 72 l 1
 116 134 52 256 52 391 c 0
 52 570 187 733 381 733 c 0
 590 733 729 583 729 395 c 0
 729 252 650 129 541 72 c 1
 717 72 l 1
 717 -1 l 1
 443 -1 l 1
 443 76 l 1
EndSplineSet
EndChar
StartChar: alpha
Encoding: 945 945 537
Width: 596
Flags: W
HStem: -13 81<482.5 542.5> 454 76<185 321.5>
VStem: 48 84<170.5 315> 424 94<90 316> 446 72<442 524>
Fore
48 262 m 0xf0
 48 362 94 530 276 530 c 0
 350 529 404 505 438 458 c 1
 446 442 l 1
 446 524 l 1
 518 524 l 1xe8
 518 99 l 2
 518 81 525 68 539 68 c 0
 546 68 554 71 562 77 c 1
 583 8 l 1
 554 -6 528 -13 503 -13 c 0
 462 -13 438 11 438 46 c 2
 438 55 l 2
 437 60 437 63 437 65 c 1
 437 42 373 -12 276 -12 c 0
 127 -12 48 79 48 262 c 0xf0
424 266 m 0xf0
 424 366 367 454 276 454 c 0
 172 454 132 372 132 258 c 0
 132 148 170 66 274 66 c 0
 370 66 424 135 424 266 c 0xf0
EndSplineSet
EndChar
StartChar: beta
Encoding: 946 946 538
Width: 516
Flags: HW
HStem: -14 74<240 362> 338 74<202 317> 660 72<169 314>
VStem: 50 86<-198 558> 378 72<504 602.5> 414 90<137.5 256>
Fore
50 490 m 2xf4
 50 626 88 732 250 732 c 0
 378 732 450 661 450 544 c 0xf8
 450 464 411 411 346 388 c 1
 442 370 504 312 504 200 c 0
 504 75 426 -14 298 -14 c 0
 218 -14 179 5 136 52 c 1
 136 -198 l 1
 50 -198 l 1
 50 490 l 2xf4
378 546 m 0
 378 614 332 660 263 660 c 0
 224 660 190 646 163 619 c 0
 145 601 136 557 136 486 c 2
 136 144 l 1
 156 89 200 60 280 60 c 0
 367 60 414 112 414 202 c 0xf4
 414 272 382 338 252 338 c 2
 202 338 l 1
 202 412 l 1
 244 412 l 2
 330 412 378 466 378 546 c 0
EndSplineSet
EndChar
StartChar: gamma
Encoding: 947 947 539
Width: 531
Flags: W
HStem: 460 76<52.5 98.5>
VStem: 249 86<-198 38>
Fore
523 524 m 1
 335 38 l 1
 335 -198 l 1
 249 -198 l 1
 249 38 l 1
 82 446 l 2
 77.9023 456.011 68 460 57 460 c 0
 48 460 40 458 31 454 c 1
 25 524 l 1
 25 529 61 536 67 536 c 0
 130 536 146 517 173 446 c 2
 291 142 l 1
 435 524 l 1
 523 524 l 1
EndSplineSet
EndChar
StartChar: delta
Encoding: 948 948 540
Width: 556
Flags: W
HStem: -16 82<226 364.5> 432 67<186.5 334.5> 657 72<73 471>
VStem: 37 90<139 319> 441 88<159.5 335.5>
Fore
37 242 m 0
 37 396 123 499 250 499 c 0
 266 499 272 497 284 495 c 1
 73 657 l 1
 73 729 l 1
 471 729 l 1
 471 657 l 1
 202 657 l 1
 377 519 l 2
 427 482 529 421 529 250 c 0
 529 69 454 -16 275 -16 c 0
 177 -16 37 36 37 242 c 0
281 432 m 0
 185 432 130 351 127 250 c 0
 127 125 187 66 275 66 c 2
 303 66 l 2
 331 66 353 68 372 82 c 0
 415 114 441 182 441 252 c 0
 441 357 388 432 281 432 c 0
EndSplineSet
EndChar
StartChar: epsilon
Encoding: 949 949 541
Width: 510
Flags: W
HStem: -10 70<192 318.5> 231 59<208.5 295> 462 70<215.5 284.5>
VStem: 39 82<80 177 344.5 444.5>
Fore
476 136 m 1
 461 26 384 -10 253 -10 c 0
 131 -10 39 24 39 136 c 0
 39 209 83 244 141 261 c 1
 82 278 39 312 39 386 c 0
 39 503 132 530 253 532 c 2
 262 532 l 2
 390 532 461 494 476 386 c 1
 400 386 l 1
 393 442 319 462 250 462 c 0
 181 462 121 443 121 377 c 0
 121 312 168 290 249 290 c 2
 295 290 l 1
 295 231 l 1
 249 231 l 2
 169 231 121 210 121 144 c 0
 121 81 182 60 250 60 c 0
 317 60 393 80 400 136 c 1
 476 136 l 1
EndSplineSet
EndChar
StartChar: zeta
Encoding: 950 950 542
Width: 462
Flags: W
HStem: -24 20G<266 318.5> 646 72<54 410>
VStem: 38 92<125 331.5> 360 80<-74.5 5.5>
Fore
294 -4 m 0
 238 -4 38 30 38 220 c 0
 38 415 152 566 278 646 c 1
 54 646 l 1
 54 718 l 1
 410 718 l 1
 410 658 l 1
 278 583 130 427 130 236 c 0
 130 139 190 87 303 74 c 0
 381 68 440 53 440 -42 c 0
 440 -79 427 -130 402 -194 c 1
 326 -166 l 1
 349 -119 360 -85 360 -64 c 0
 360 -17 343 -4 294 -4 c 0
EndSplineSet
EndChar
StartChar: eta
Encoding: 951 951 543
Width: 526
Flags: HW
HStem: 0 21G<76 164> 451 80<52 107.5>
VStem: 76 88<0 426.5> 410 88<-158 358.5>
Fore
410 316 m 2
 410 401 389 454 302 454 c 0
 210 454 164 397 164 284 c 2
 164 0 l 1
 76 0 l 1
 76 414 l 2
 76 439 69 451 54 451 c 0
 50 451 45 450 38 448 c 1
 24 520 l 1
 43 527 63 531 85 531 c 0
 130 531 153 491 155 445 c 1
 156 430 l 1
 201 497 255 530 320 530 c 0
 429 530 491 475 497 371 c 0
 498 364 498 347 498 320 c 2
 498 -182 l 1
 410 -158 l 1
 410 316 l 2
EndSplineSet
EndChar
StartChar: theta
Encoding: 952 952 544
Width: 526
Flags: W
HStem: -12 74<202 357> 330 72<131 406> 658 72<178.5 357>
VStem: 45 86<268 452.5 325.5 464.5> 406 84<223 452 247.5 452>
Fore
490 360 m 0
 490 135 446 -12 268 -12 c 0
 136 -12 84 69 60 184 c 0
 50 232 45 291 45 360 c 0
 45 545 89 730 268 730 c 0
 446 730 490 544 490 360 c 0
268 658 m 0
 155 658 131 527 131 402 c 1
 406 402 l 1
 406 475 396 536 377 586 c 0
 358 634 321 658 268 658 c 0
406 330 m 1
 131 330 l 1
 131 206 147 62 268 62 c 0
 346 62 406 116 406 330 c 1
EndSplineSet
EndChar
StartChar: iota
Encoding: 953 953 545
Width: 286
Flags: HW
HStem: -8 87<140 197.5>
VStem: 56 88<87 520>
Fore
144 136 m 2
 144 101 164.981 79 192 79 c 0
 203 79 221 85 240 94 c 1
 270 13 l 1
 239 -1 209 -8 180 -8 c 0
 100 -8 56 41 56 133 c 2
 56 524 l 1
 144 524 l 1
 144 136 l 2
EndSplineSet
EndChar
StartChar: kappa
Encoding: 954 954 546
Width: 516
Flags: W
HStem: 0 21G<66 154 388 496> 504 20G<66 154 362 476>
VStem: 66 88<0 524>
Fore
496 0 m 1
 388 0 l 1
 216 266 l 1
 154 206 l 1
 154 0 l 1
 66 0 l 1
 66 524 l 1
 154 524 l 1
 154 314 l 1
 362 524 l 1
 476 524 l 1
 278 326 l 1
 496 0 l 1
EndSplineSet
EndChar
StartChar: lambda
Encoding: 955 955 547
Width: 560
Flags: HW
HStem: -10 83<449 505> 646 86<110.5 187.5>
Fore
228 520 m 1
 200 600 186 644 120 644 c 0
 101 644 66 636 66 636 c 1
 76 718 l 1
 98 726 117 730 132 730 c 0
 243 730 273 619 308 528 c 2
 474 90 l 2
 479 78 489 71 502 71 c 0
 508 71 532 78 536 82 c 1
 556 12 l 1
 524 -4 497 -12 475 -12 c 0
 423 -12 409 23 394 66 c 2
 272 420 l 1
 126 0 l 1
 30 0 l 1
 228 520 l 1
EndSplineSet
EndChar
StartChar: uni03BC
Encoding: 956 956 548
Width: 574
Flags: W
HStem: -12 80<258 321.5>
VStem: 78 88<-200 518> 412 86<264 518>
Fore
288 -12 m 0
 228 -12 198 9 166 52 c 1
 166 -200 l 1
 78 -200 l 1
 78 518 l 1
 166 518 l 1
 166 300 l 2
 166 219 170 168 178 145 c 0
 192 100 230 68 286 68 c 0
 350 68 389 118 395 137 c 0
 409 182 412 230 412 298 c 2
 412 518 l 1
 498 518 l 1
 498 0 l 1
 418 0 l 1
 418 62 l 1
 389 16 355 -12 288 -12 c 0
EndSplineSet
EndChar
StartChar: nu
Encoding: 957 957 549
Width: 500
Flags: HW
HStem: 0 21G<210 292>
Back
488 518 m 1
 292 0 l 1
 210 0 l 1
 14 518 l 1
 106 518 l 1
 151 385 213 240 250 104 c 1
 260 134 275 176 284 202 c 0
 398 518 l 1
 488 518 l 1
EndSplineSet
Refer: 86 118 N 1 0 0 1 0 0 2
EndChar
StartChar: xi
Encoding: 958 958 550
Width: 470
Flags: W
HStem: 0 70<219.5 331.5> 340 64<225 384> 648 70<38 410>
VStem: 16 84<138 255.5> 62 76<477.5 546.5> 363 78<-59.5 6.5>
Fore
262 70 m 0xf4
 401 70 441 52 441 -39 c 0
 441 -80 428 -131 402 -194 c 1
 328 -166 l 1
 354 -102 363 -70 363 -46 c 0
 363 -8 343 0 269 0 c 2
 250 0 l 2
 62 0 16 101 16 175 c 0xf4
 16 336 145 370 184 376 c 1
 114 386 62 439 62 516 c 0
 62 576 98 627 138 648 c 1
 38 648 l 1
 38 718 l 1
 410 718 l 1
 410 648 l 1
 244 648 l 2
 186 648 138 577 138 516 c 0xec
 138 471 171 404 302 404 c 2
 384 404 l 1
 384 340 l 1
 274 340 l 2
 176 340 100 278 100 198 c 0
 100 114 177 70 262 70 c 0xf4
EndSplineSet
EndChar
StartChar: pi
Encoding: 960 960 552
Width: 661
Flags: W
HStem: -4 68<515 578.5> 454 70<53 605>
VStem: 124 93<0 454> 453 88<64 454>
Fore
571 64 m 0
 586 64 597 72 601 76 c 1
 617 14 l 1
 601 8 565 -4 543 -4 c 0
 487 -4 453 14 453 114 c 2
 453 454 l 1
 217 454 l 1
 217 0 l 1
 123 0 l 1
 124 454 l 1
 53 454 l 1
 53 524 l 1
 605 524 l 1
 605 454 l 1
 541 454 l 1
 541 116 l 2
 541 84 541 64 571 64 c 0
EndSplineSet
EndChar
StartChar: rho
Encoding: 961 961 553
Width: 566
Flags: W
HStem: -10 74<262 330.5> 460 72<246.5 374>
VStem: 57 88<-200 376> 451 90<184 348>
Fore
57 270 m 2
 57 482 196 532 297 532 c 0
 451 532 541 426 541 270 c 0
 541 117 494 61 411 15 c 0
 382 -2 344 -10 297 -10 c 0
 227 -10 178 17 145 61 c 1
 145 -200 l 1
 57 -200 l 1
 57 270 l 2
297 64 m 0
 364 64 451 104 451 264 c 0
 451 421 359 460 297 460 c 0
 234 460 145 420 145 262 c 0
 145 104 230 64 297 64 c 0
EndSplineSet
EndChar
StartChar: sigma1
Encoding: 962 962 554
Width: 535
Flags: W
HStem: 458 78<201 343.5>
VStem: 22 96<195.5 354.5> 403 97<-48.5 15>
Fore
22 276 m 0
 22 433 124 536 278 536 c 0
 409 536 501 452 501 324 c 1
 410 324 l 1
 410 410 357 458 270 458 c 0
 209 458 118 421 118 274 c 0
 118 117 234 99 364 87 c 0
 448 75 500 58 500 -28 c 0
 500 -69 469 -143 452 -182 c 1
 362 -150 l 1
 374 -126 403 -54 403 -34 c 0
 403 -7 358 -4 318 -2 c 0
 225 2 192 13 125 62 c 0
 67 101 22 177 22 276 c 0
EndSplineSet
EndChar
StartChar: sigma
Encoding: 963 963 555
Width: 616
Flags: W
HStem: -12 74<197.5 352> 444 82<454 590> 458 72<222 330>
VStem: 34 90<179 368> 428 90<179 313>
Fore
34 260 m 0xd8
 34 476 169 530 276 530 c 0xb8
 295 530 312 529 326 526 c 1
 590 526 l 1
 590 444 l 1
 454 444 l 1
 497 389 518 328 518 260 c 0
 518 98 428 -12 276 -12 c 0
 119 -12 34 98 34 260 c 0xd8
124 260 m 0
 124 103 209 62 276 62 c 0
 376 62 428 143 428 260 c 0
 428 366 384 458 276 458 c 0
 168 458 124 362 124 260 c 0
EndSplineSet
EndChar
StartChar: tau
Encoding: 964 964 556
Width: 532
Flags: W
HStem: -4 84<277.5 349.5> 451 73<42 494>
VStem: 206 88<93 451>
Fore
328 -4 m 0
 227 -4 206 42 206 144 c 2
 206 451 l 1
 42 451 l 1
 42 524 l 1
 494 524 l 1
 494 451 l 1
 294 451 l 1
 294 152 l 2
 294 98 298 80 344 80 c 0
 355 80 373 84 377 85 c 1
 396 6 l 1
 382 2 347 -4 328 -4 c 0
EndSplineSet
EndChar
StartChar: upsilon
Encoding: 965 965 557
Width: 515
Flags: W
HStem: -14 76<167.5 327.5> 504 20G<40 128 390 478>
VStem: 40 88<130.5 524> 390 88<108 524>
Fore
128 232 m 2
 128 109 144 62 260 62 c 0
 302 62 329 69 355 89 c 0
 387 111 390 164 390 232 c 2
 390 524 l 1
 478 524 l 1
 478 198 l 2
 478 18 393 -14 262 -14 c 0
 73 -14 40 63 40 198 c 2
 40 524 l 1
 128 524 l 1
 128 232 l 2
EndSplineSet
EndChar
StartChar: phi
Encoding: 966 966 558
Width: 741
Flags: W
HStem: -10 81<228 333 421 528.5> 434 90<421 501.5>
VStem: 46 84<179.5 313> 333 88<-200 -10 71 524> 613 84<178.5 331.5>
Fore
311 -10 m 2
 145 -10 46 109 46 250 c 0
 46 376 119 469 206 514 c 1
 248 446 l 1
 185 406 130 338 130 254 c 0
 130 151 208 71 313 71 c 2
 333 71 l 1
 333 524 l 1
 421 524 l 2
 582 524 697 413 697 250 c 0
 697 107 604 -10 453 -10 c 2
 421 -10 l 1
 421 -200 l 1
 333 -200 l 1
 333 -10 l 1
 311 -10 l 2
613 251 m 0
 613 354 549 434 441 434 c 2
 421 434 l 1
 421 71 l 1
 445 71 l 2
 547 71 613 148 613 251 c 0
EndSplineSet
EndChar
StartChar: chi
Encoding: 967 967 559
Width: 572
Flags: W
HStem: -212 85<514 546> 458 80<41 98.5>
Fore
573 -200 m 1
 556 -208 539 -212 522 -212 c 2
 514 -212 l 2
 462 -212 421 -168 399 -123 c 0
 302 74 l 1
 118 -200 l 1
 14 -200 l 1
 248 160 l 1
 99 420 l 2
 85 446 77 458 41 458 c 1
 31 455 23 454 17 454 c 1
 17 532 l 1
 25 534 67 538 73 538 c 0
 124 538 151 516 171 478 c 0
 302 234 l 1
 455 518 l 1
 551 518 l 1
 356 160 l 1
 487 -91 l 2
 501 -122 519 -127 539 -127 c 0
 553 -127 563 -124 573 -121 c 1
 573 -200 l 1
EndSplineSet
EndChar
StartChar: psi
Encoding: 968 968 560
Width: 662
Flags: W
HStem: -2 74<213.5 288 374 449.5> 504 20G<42 132 530 620>
VStem: 42 90<138.5 524> 288 86<-200 -2 72 506> 530 90<140 524>
CounterMasks: 1 00
Fore
620 214 m 2
 620 66 525 -2 374 -2 c 1
 374 -200 l 1
 288 -200 l 1
 288 -2 l 1
 139 -2 42 63 42 214 c 2
 42 524 l 1
 132 524 l 1
 132 242 l 2
 132 125 173 72 288 72 c 1
 288 506 l 1
 374 506 l 1
 374 72 l 1
 489 72 530 126 530 242 c 2
 530 524 l 1
 620 524 l 1
 620 214 l 2
EndSplineSet
EndChar
StartChar: omega
Encoding: 969 969 561
Width: 740
Flags: W
HStem: -9 72<160 263 477.5 553.5>
VStem: 36 84<175.5 289> 328 84<134.5 376> 620 84<142 294.5>
CounterMasks: 1 00
Fore
412 153 m 2
 412 116 434 67 510 63 c 0
 595 63 620 150 620 235 c 0
 620 354 572 435 512 500 c 1
 592 526 l 1
 647 482 704 348 704 241 c 0
 704 43 593 -9 514 -9 c 0
 441 -9 398 28 370 81 c 1
 343 28 300 -9 226 -9 c 0
 94 -9 36 110 36 241 c 0
 36 302 71 465 148 526 c 1
 228 500 l 1
 165 437 120 343 120 235 c 0
 120 151 144 63 229 63 c 0
 312 67 328 122 328 153 c 2
 328 376 l 1
 412 376 l 1
 412 153 l 2
EndSplineSet
EndChar
StartChar: afii10023
Encoding: 1025 1025 568
Width: 667
Flags: HW
Back
172 332 m 1
 172 82 l 1
 602 82 l 1
 602 0 l 1
 79 0 l 1
 79 729 l 1
 584 729 l 1
 584 647 l 1
 172 647 l 1
 172 414 l 1
 569 414 l 1
 569 332 l 1
 172 332 l 1
303 914 m 1
 303 811 l 1
 199 811 l 1
 199 914 l 1
 303 914 l 1
465 914 m 1
 465 811 l 1
 361 811 l 1
 361 914 l 1
 465 914 l 1
EndSplineSet
Refer: 103 168 N 1 0 0 1 180 189 2
Refer: 588 1045 N 1 0 0 1 0 0 3
EndChar
StartChar: afii10051
Encoding: 1026 1026 569
Width: 766
Flags: W
HStem: -148 66<469 585.5> 0 21G<228 321> 372 82<321 603> 649 80<28 518>
VStem: 227 94<0 649> 625 93<-16 343.5>
Fore
553 454 m 2
 653 454 718 389 718 298 c 2
 718 0 l 2
 718 -125 620 -148 551 -148 c 2
 469 -148 l 1
 469 -82 l 1
 568 -82 l 2
 603 -82 625 -60 625 -16 c 2
 625 315 l 2
 625 350 603 372 559 372 c 2
 321 372 l 1
 321 0 l 1
 228 0 l 1
 227 649 l 1
 28 649 l 1
 28 729 l 1
 518 729 l 1
 518 649 l 1
 321 649 l 1
 321 454 l 1
 553 454 l 2
EndSplineSet
EndChar
StartChar: afii10052
Encoding: 1027 1027 570
Width: 611
Flags: HW
HStem: 896 20<326 439>
Back
183 0 m 1
 90 0 l 1
 90 729 l 1
 579 729 l 1
 579 647 l 1
 183 647 l 1
 183 0 l 1
326 917 m 1
 439 917 l 1
 290 769 l 1
 230 769 l 1
 326 917 l 1
EndSplineSet
Refer: 1869 714 N 1 0 0 1 138 176 2
Refer: 586 1043 N 1 0 0 1 10 0 3
EndChar
StartChar: afii10053
Encoding: 1028 1028 571
Width: 722
Flags: W
HStem: -23 82<245.5 466> 332 82<142 508> 659 82<248 461>
VStem: 48 460<281.5 432>
Fore
567 503 m 1
 546 605 488 659 370 659 c 0
 244 659 160 567 144 414 c 1
 508 414 l 1
 508 332 l 1
 142 332 l 1
 150 164 240 59 378 59 c 0
 500 59 559 128 581 266 c 1
 677 266 l 1
 655 73 555 -23 377 -23 c 0
 114 -23 48 207 48 356 c 0
 48 508 115 741 381 741 c 0
 541 741 633 663 662 503 c 1
 567 503 l 1
EndSplineSet
EndChar
StartChar: afii10058
Encoding: 1033 1033 576
Width: 1080
Flags: W
HStem: 0 82<514 871.5> 333 82<607 841.5> 647 82<194 607>
VStem: 194 95<410 589> 513 94<333 333 415 647> 929 93<181.5 267>
Back
514 0 m 1
 513 647 l 1
 288 647 l 1
 288 422 310 0 83 0 c 1
 83 94 l 1
 208 94 194 424 194 729 c 1
 607 729 l 1
 607 415 l 1
 751 415 l 2
 929 416 1006 338 1022 208 c 5
 1022 151 1002 99 966 61 c 0
 927 19 876 0 807 0 c 2
 514 0 l 1
929 207 m 0
 929 281.152 884.489 333 798 333 c 2
 607 333 l 1
 607 82 l 1
 798 82 l 2
 843 82 873 93 895 117 c 0
 917 140 929 172 929 207 c 0
EndSplineSet
Fore
514 0 m 1
 513 647 l 1
 288 647 l 1
 288 610 289 569 289 524 c 0
 289 296 273 -0 83 0 c 1
 83 94 l 1
 185 94 194 314 194 561 c 0
 194 729 l 1
 607 729 l 1
 607 415 l 1
 751 415 l 2
 754 415 l 0
 929 415 1022 324 1022 210 c 0
 1022 208 l 0
 1021 82 936 0 807 0 c 2
 514 0 l 1
798 82 m 2
 903 82 929 156 929 207 c 0
 929 281 884 333 798 333 c 2
 607 333 l 1
 607 82 l 1
 798 82 l 2
EndSplineSet
EndChar
StartChar: afii10059
Encoding: 1034 1034 577
Width: 1014
Flags: W
HStem: 0 82<481 821> 332 82<176 481> 709 20G<83 176 481 574>
VStem: 83 93<414 729> 481 93<0 333 414 729> 879 93<181.5 244>
CounterMasks: 1 00
Back
481 0 m 1
 481 332 l 1
 177 332 l 1
 177 0 l 1
 83 0 l 1
 83 729 l 1
 176 729 l 1
 176 414 l 1
 481 414 l 1
 481 729 l 1
 574 729 l 1
 574 415 l 1
 701 415 l 2
 879 416 956 338 972 208 c 1
 972 151 952 99 916 61 c 0
 877 19 826 0 757 0 c 2
 481 0 l 1
879 207 m 0
 879 281.152 834.489 333 748 333 c 2
 574 333 l 1
 574 82 l 1
 748 82 l 2
 793 82 823 93 845 117 c 0
 867 140 879 172 879 207 c 0
EndSplineSet
Fore
481 0 m 1
 481 332 l 1
 177 332 l 1
 177 0 l 1
 83 0 l 1
 83 729 l 1
 176 729 l 1
 176 414 l 1
 481 414 l 1
 481 729 l 1
 574 729 l 1
 574 415 l 1
 701 415 l 2
 704 415 l 0
 880 415 971 322 972 208 c 0
 972 206 l 0
 972 83 885 -0 757 0 c 2
 481 0 l 1
748 82 m 2
 853 82 879 156 879 207 c 0
 879 281 834 333 748 333 c 2
 574 333 l 1
 574 82 l 1
 748 82 l 2
EndSplineSet
EndChar
StartChar: afii10060
Encoding: 1035 1035 578
Width: 766
Flags: W
HStem: 0 21G<228 321 625 718> 372 82<321 603> 649 80<28 518>
VStem: 227 94<0 649> 625 93<0 343.5>
Fore
553 454 m 2
 653 454 718 389 718 298 c 2
 718 0 l 1
 625 0 l 1
 625 315 l 2
 625 350 603 372 559 372 c 2
 321 372 l 1
 321 0 l 1
 228 0 l 1
 227 649 l 1
 28 649 l 1
 28 729 l 1
 518 729 l 1
 518 649 l 1
 321 649 l 1
 321 454 l 1
 553 454 l 2
EndSplineSet
EndChar
StartChar: afii10061
Encoding: 1036 1036 579
Width: 667
Flags: W
HStem: 0 21G<79 172 548 658> 709 20G<79 172 535 655>
VStem: 79 93<0 729>
Back
172 0 m 1
 79 0 l 1
 79 729 l 1
 172 729 l 1
 172 414 l 1
 535 729 l 1
 655 729 l 1
 243 375 l 1
 658 0 l 1
 548 0 l 1
 172 324 l 1
 172 0 l 1
358 917 m 1
 471 917 l 1
 322 769 l 1
 262 769 l 1
 358 917 l 1
EndSplineSet
Fore
172 0 m 1
 79 0 l 1
 79 729 l 1
 172 729 l 1
 172 414 l 1
 535 729 l 1
 655 729 l 1
 243 375 l 1
 658 0 l 1
 548 0 l 1
 172 324 l 1
 172 0 l 1
358 917 m 1
 471 917 l 1
 322 769 l 1
 262 769 l 1
 358 917 l 1
EndSplineSet
EndChar
StartChar: uni040D
Encoding: 1037 1037 580
Width: 728
Flags: HW
HStem: 896 20<255 368>
Back
76 729 m 1
 164 729 l 1
 164 133 l 1
 545 729 l 1
 646 729 l 1
 646 0 l 1
 558 0 l 1
 558 591 l 1
 181 0 l 1
 76 0 l 1
 76 729 l 1
370 917 m 1
 466 769 l 1
 406 769 l 1
 257 917 l 1
 370 917 l 1
EndSplineSet
Refer: 1870 715 N 1 0 0 1 233 176 2
Refer: 591 1048 N 1 0 0 1 0 0 3
EndChar
StartChar: afii10062
Encoding: 1038 1038 581
Width: 650
Flags: HW
HStem: 769 69<290.5 367.5> 884 20<172 231 414 473>
Back
252 0 m 1
 139 0 l 1
 268 244 l 1
 26 729 l 1
 139 729 l 1
 324 350 l 1
 508 729 l 1
 619 729 l 1
 252 0 l 1
172 904 m 1
 231 904 l 1
 236 860 266 838 323 838 c 0
 377 838 410 862 414 904 c 1
 473 904 l 1
 466 815 414 769 321 769 c 0
 265 769 220 789 193 826 c 0
 179 846 173 865 172 904 c 1
EndSplineSet
Refer: 474 728 S 1 0 0 1 157 172 2
Refer: 602 1059 N 1 0 0 1 0 0 3
EndChar
StartChar: afii10145
Encoding: 1039 1039 582
Width: 722
Flags: W
HStem: 0 82<177 551> 709 20G<83 177 551 645>
VStem: 83 94<0 729> 324 80<-135 0> 551 94<0 729>
CounterMasks: 1 00
Fore
404 0 m 1
 404 -135 l 1
 324 -135 l 1
 324 0 l 1
 83 0 l 1
 83 729 l 1
 177 729 l 1
 177 82 l 1
 551 82 l 1
 551 729 l 1
 645 729 l 1
 645 0 l 1
 404 0 l 1
EndSplineSet
EndChar
StartChar: afii10018
Encoding: 1041 1041 584
Width: 667
Flags: W
HStem: 0 82<79 494> 353 82<172 399> 647 82<79 568>
VStem: 79 93<0 729> 530 93<175 243.5>
Fore
623 218 m 2
 623 132 580 0 408 0 c 2
 79 0 l 1
 79 729 l 1
 568 729 l 1
 568 647 l 1
 172 647 l 1
 172 435 l 1
 352 435 l 2
 545 435 623 351 623 220 c 0
 623 218 l 2
530 217 m 0
 530 270 510 353 399 353 c 2
 172 353 l 1
 172 82 l 1
 399 82 l 2
 510 82 530 165 530 217 c 0
EndSplineSet
EndChar
StartChar: afii10020
Encoding: 1043 1043 586
Width: 611
Flags: W
HStem: 0 21G<79 172> 647 82<79 568>
VStem: 79 93<0 729>
AnchorPoint: "above" 276 732 basechar 0
Fore
172 0 m 1
 79 0 l 1
 79 729 l 1
 568 729 l 1
 568 647 l 1
 172 647 l 1
 172 0 l 1
EndSplineSet
EndChar
